<?xml version="1.0" standalone="no"?>
<!DOCTYPE svg PUBLIC "-//W3C//DTD SVG 20010904//EN"
 "http://www.w3.org/TR/2001/REC-SVG-20010904/DTD/svg10.dtd">
<svg version="1.0" xmlns="http://www.w3.org/2000/svg"
 width="1024.000000pt" height="1024.000000pt" viewBox="0 0 1024.000000 1024.000000"
 preserveAspectRatio="xMidYMid meet">

<g transform="translate(0.000000,1024.000000) scale(0.100000,-0.100000)"
fill="#000000" stroke="none">
<path d="M4775 8706 c-700 -78 -1361 -352 -1950 -809 -158 -123 -424 -387
-566 -563 -609 -752 -897 -1755 -764 -2658 113 -762 420 -1421 908 -1951 184
-199 393 -384 603 -533 358 -252 823 -467 1240 -571 557 -139 1134 -141 1700
-6 845 202 1584 689 2120 1396 359 475 596 1092 679 1769 18 145 20 515 5 671
-20 198 -66 427 -131 654 -116 404 -355 866 -613 1185 -386 478 -784 796
-1331 1061 -384 185 -716 287 -1125 344 -157 22 -614 28 -775 11z m530 -810
c155 -42 312 -154 398 -284 25 -37 137 -256 249 -487 l205 -420 329 -6 c199
-3 342 -10 361 -16 166 -57 303 -194 355 -352 19 -60 21 -94 26 -383 l4 -316
47 -18 c130 -49 239 -164 287 -304 18 -52 19 -99 19 -970 0 -855 -1 -918 -18
-966 -41 -118 -134 -210 -248 -245 -52 -16 -93 -19 -293 -19 l-232 0 -27 28
c-47 49 -44 195 4 235 19 15 48 17 265 17 242 0 243 0 271 24 l28 24 0 894 0
893 -30 53 c-35 64 -71 96 -145 131 -55 26 -56 26 -361 29 l-306 3 -23 47
c-13 26 -94 193 -180 372 -87 179 -264 543 -395 810 -131 267 -272 557 -315
645 -94 194 -142 250 -265 311 l-79 39 -126 0 c-126 0 -126 0 -202 -38 -132
-65 -162 -104 -303 -392 -67 -137 -236 -481 -374 -763 -138 -282 -251 -514
-251 -516 0 -3 -56 -119 -124 -260 l-124 -255 -304 -3 c-302 -3 -303 -3 -358
-29 -74 -35 -110 -67 -145 -131 l-30 -53 0 -892 0 -891 24 -26 24 -26 240 0
239 0 29 -29 c27 -28 29 -34 29 -111 0 -77 -2 -83 -30 -111 l-30 -30 -247 3
c-244 3 -249 3 -305 30 -113 53 -194 160 -218 287 -6 35 -10 373 -10 915 1
945 -1 926 61 1048 42 84 129 168 220 211 l71 35 -1 273 c-2 310 7 385 60 497
41 85 141 187 225 230 110 56 150 61 483 64 l303 3 209 424 c114 233 224 449
243 480 92 148 244 253 431 296 78 18 278 13 360 -9z m-46 -728 c32 -68 141
-292 241 -498 220 -452 438 -905 473 -980 14 -30 64 -136 112 -235 106 -219
155 -323 155 -330 0 -3 -508 -5 -1130 -5 -621 0 -1130 2 -1130 4 0 9 354 744
665 1381 179 369 338 696 352 728 l26 57 89 0 89 0 58 -122z m-1832 -2370 c21
-20 23 -29 23 -132 0 -99 -2 -112 -22 -133 -20 -21 -30 -23 -128 -23 -103 0
-108 1 -134 26 -25 25 -26 32 -26 131 0 97 2 106 25 128 23 23 31 25 131 25
97 0 110 -2 131 -22z m468 16 c31 -12 45 -60 45 -149 0 -89 -14 -137 -45 -149
-9 -3 -61 -6 -116 -6 -93 0 -102 2 -124 25 -27 26 -27 27 -25 155 2 122 11
130 146 130 56 0 110 -3 119 -6z m490 -19 c23 -22 25 -31 25 -128 0 -97 -2
-106 -25 -131 -23 -25 -28 -26 -128 -26 -99 0 -106 1 -131 26 -25 25 -26 32
-26 131 0 97 2 106 25 128 23 23 31 25 130 25 99 0 107 -2 130 -25z m495 5
c27 -27 33 -56 29 -154 -4 -73 -7 -88 -28 -110 -23 -25 -30 -26 -126 -26 -73
0 -106 4 -122 15 -33 23 -46 77 -40 167 4 65 9 84 28 104 21 23 29 24 131 24
94 0 111 -3 128 -20z m560 0 c27 -27 33 -56 29 -154 -4 -73 -7 -88 -28 -110
-23 -24 -30 -26 -118 -26 -148 0 -162 14 -163 156 0 88 3 105 21 128 20 25 24
26 130 26 95 0 111 -2 129 -20z m621 -6 c22 -24 24 -33 24 -131 0 -102 -1
-105 -28 -129 -26 -22 -37 -24 -128 -24 -98 0 -101 1 -131 30 l-30 30 4 106
c4 140 8 144 157 144 103 0 109 -1 132 -26z m454 1 c23 -23 25 -31 25 -130 0
-99 -2 -107 -25 -130 -22 -23 -31 -25 -126 -25 -98 0 -104 1 -131 27 -27 26
-28 30 -28 132 0 94 2 107 22 128 20 21 29 23 130 23 102 0 110 -1 133 -25z
m609 -1 c25 -25 26 -32 26 -129 0 -103 0 -103 -31 -129 -30 -26 -31 -26 -217
-26 l-186 0 -28 27 c-27 26 -28 30 -28 130 0 97 2 106 25 128 24 25 25 25 218
25 l194 0 27 -26z m-2511 -476 c14 -17 17 -40 17 -128 0 -152 -3 -155 -149
-155 -102 0 -112 2 -133 23 -20 20 -23 34 -26 125 -3 92 -2 105 17 129 27 34
44 37 161 31 79 -4 98 -8 113 -25z m515 -1 c20 -19 22 -29 22 -126 0 -89 -4
-110 -20 -131 -18 -24 -23 -25 -130 -25 -110 0 -113 1 -136 28 -22 26 -24 37
-24 126 0 84 3 102 20 124 19 24 28 26 103 29 109 4 138 0 165 -25z m990 -2
c20 -23 22 -37 22 -126 0 -98 -1 -101 -29 -130 -29 -28 -33 -29 -126 -29 -93
0 -97 1 -126 29 -28 29 -29 32 -29 133 0 96 2 106 23 125 29 28 55 32 157 28
77 -4 87 -7 108 -30z m-2699 -1 c18 -23 21 -41 21 -129 0 -96 -1 -103 -26
-126 -23 -21 -36 -24 -123 -27 -96 -4 -97 -4 -130 27 l-33 31 4 104 c4 144 6
146 154 146 110 0 113 -1 133 -26z m686 1 c23 -22 25 -31 25 -125 0 -94 -2
-103 -25 -125 l-24 -25 -235 0 -234 0 -26 31 c-24 28 -26 38 -26 125 0 87 2
97 25 119 l24 25 236 0 236 0 24 -25z m1513 5 c20 -19 22 -30 22 -128 -1 -93
-3 -110 -21 -132 -20 -24 -26 -25 -131 -25 -108 0 -110 0 -134 28 -22 26 -24
37 -24 126 0 84 3 102 21 125 20 25 23 26 133 26 99 0 115 -2 134 -20z m1197
14 c30 -12 45 -60 45 -144 0 -148 -2 -149 -272 -150 l-216 0 -26 31 c-24 28
-26 38 -26 125 0 87 2 97 25 119 24 25 24 25 239 25 118 0 222 -3 231 -6z
m-3160 -489 c23 -22 25 -31 25 -128 0 -153 14 -146 -284 -150 l-239 -4 -29 26
c-27 25 -28 29 -29 131 -1 101 0 105 26 127 26 23 31 23 266 23 l240 0 24 -25z
m606 -1 c20 -22 24 -37 27 -102 4 -93 -13 -151 -48 -169 -35 -18 -184 -17
-219 1 -40 21 -51 56 -51 157 0 82 2 92 25 114 23 24 31 25 133 25 104 0 110
-1 133 -26z m508 7 c27 -27 35 -78 27 -169 -8 -106 -19 -116 -137 -121 -153
-5 -179 19 -179 169 0 83 2 93 25 115 23 24 31 25 135 25 96 0 113 -3 129 -19z
m536 -6 c23 -22 25 -31 25 -128 0 -98 -1 -105 -26 -128 -22 -20 -38 -24 -106
-28 -109 -5 -155 10 -174 54 -30 73 -12 232 28 248 7 3 62 6 121 6 102 1 109
0 132 -24z m510 0 c23 -22 25 -31 25 -125 0 -99 -1 -102 -29 -131 -28 -28 -33
-29 -121 -29 -144 0 -170 24 -170 155 0 140 15 155 161 155 103 0 111 -1 134
-25z m626 -4 c27 -28 29 -34 29 -115 0 -163 -7 -167 -271 -159 -247 7 -239 2
-239 152 0 157 -9 151 248 151 l204 0 29 -29z m683 -2 c24 -28 26 -38 26 -124
0 -84 -2 -97 -23 -121 l-24 -27 -238 0 -239 1 -28 31 c-26 29 -28 37 -28 120
0 82 2 92 26 120 l26 31 238 0 238 0 26 -31z m-675 -444 c16 -8 40 -28 54 -44
79 -95 7 -241 -119 -241 -112 0 -185 136 -125 234 37 60 127 84 190 51z m-440
-31 c30 -25 31 -28 31 -114 0 -86 -1 -89 -31 -114 l-31 -26 -1112 0 -1112 0
-26 28 c-32 33 -47 131 -28 187 23 70 -65 65 1166 65 l1112 0 31 -26z m-2230
-557 c73 -107 204 -194 325 -216 37 -7 229 -11 508 -11 l448 0 0 45 0 45 201
0 202 0 -6 -217 c-4 -120 -7 -219 -7 -220 0 -2 -88 -3 -195 -3 l-195 0 0 85 0
85 -482 0 c-529 0 -526 0 -659 61 -131 60 -243 167 -299 284 -52 110 -54 105
44 105 l85 0 30 -43z m2031 -357 l0 -150 -135 0 -135 0 0 150 0 150 135 0 135
0 0 -150z"/>
<path d="M3685 6440 c-205 -4 -235 -7 -275 -26 -54 -25 -103 -72 -133 -128
-21 -39 -22 -54 -25 -321 l-3 -280 158 3 c87 2 161 6 165 10 9 10 358 734 358
744 0 4 -3 7 -7 6 -5 -1 -111 -5 -238 -8z"/>
<path d="M6294 6435 c2 -5 84 -175 181 -377 l178 -368 157 0 158 0 5 43 c2 23
4 143 3 267 -1 206 -3 229 -22 271 -32 68 -77 113 -144 143 -59 27 -64 27
-290 29 -150 1 -229 -1 -226 -8z"/>
<path d="M4980 6052 c-68 -152 -164 -363 -212 -469 -48 -105 -88 -194 -88
-196 0 -3 193 -4 430 -3 236 0 430 4 430 8 0 4 -29 70 -64 145 -81 177 -218
480 -293 652 -32 74 -63 136 -68 137 -6 2 -66 -121 -135 -274z"/>
<path d="M5630 2455 l0 -45 45 0 45 0 0 45 0 45 -45 0 -45 0 0 -45z"/>
</g>
</svg>
