<?xml version="1.0" encoding="UTF-8"?>
<svg version="1.1" xmlns="http://www.w3.org/2000/svg" width="500" height="500">
<path d="M0 0 C1.06018088 0.81552376 2.12225734 1.62859916 3.1875 2.4375 C21.86838224 19.45785937 29.36603259 44.4929372 31 69 C31.13211686 73.5669562 31.13101768 78.13040132 31.12025452 82.69902039 C31.12069148 84.05319912 31.12156869 85.40737777 31.12284368 86.76155597 C31.12506406 90.45362718 31.12110128 94.14566901 31.11606562 97.83773649 C31.11172577 101.83008211 31.11321004 105.82242624 31.1139679 109.81477356 C31.1144909 116.72215349 31.11136751 123.62952393 31.10573006 130.53690147 C31.09758469 140.52366933 31.09499673 150.51043263 31.09374207 160.49720345 C31.09155631 176.70215841 31.08490916 192.90710832 31.07543945 209.11206055 C31.066253 224.84871394 31.0591782 240.58536595 31.05493164 256.32202148 C31.05466892 257.29289208 31.05440619 258.26376268 31.05413551 259.26405361 C31.05283042 264.13488385 31.05156673 269.0057141 31.05032361 273.87654436 C31.03996584 314.25103308 31.0223605 354.62551625 31 395 C17.9788936 395.023121 4.95779205 395.04091384 -8.06333065 395.05181217 C-14.10887817 395.05704153 -20.1544117 395.06414014 -26.19995117 395.07543945 C-32.02894288 395.08626645 -37.85792109 395.09227643 -43.68692207 395.09487724 C-45.9161761 395.09673183 -48.14542935 395.10035308 -50.37467766 395.10573006 C-53.48539734 395.11293799 -56.59606049 395.11399105 -59.70678711 395.11352539 C-60.63826569 395.11712067 -61.56974426 395.12071594 -62.52944946 395.12442017 C-68.88594784 395.11405216 -68.88594784 395.11405216 -70 394 C-70.16029688 391.04470496 -70.25957328 388.11017543 -70.31640625 385.15234375 C-70.3475779 383.82270348 -70.3475779 383.82270348 -70.37937927 382.46620178 C-70.444974 379.623383 -70.50380552 376.78046883 -70.5625 373.9375 C-70.6056758 372.01496394 -70.64928978 370.09243766 -70.69335938 368.16992188 C-70.80066543 363.44671332 -70.90190451 358.72340847 -71 354 C-71.53834473 355.09844238 -72.07668945 356.19688477 -72.63134766 357.32861328 C-73.35038352 358.78427969 -74.06963311 360.23984054 -74.7890625 361.6953125 C-75.14234619 362.41759033 -75.49562988 363.13986816 -75.85961914 363.8840332 C-78.64564401 369.50417314 -81.75512295 374.35416947 -86 379 C-86.76183594 379.84175781 -87.52367187 380.68351562 -88.30859375 381.55078125 C-100.18360553 394.05566885 -114.2607983 399.69756052 -131.4375 400.1875 C-152.53208222 399.92707306 -174.88315264 395.28110126 -190.18359375 379.7890625 C-202.43813305 365.40849201 -208.48199294 347.28350555 -212.25 329.0625 C-212.40114258 328.33780518 -212.55228516 327.61311035 -212.70800781 326.86645508 C-215.76174526 310.85156673 -216.34904931 294.7302839 -216.31567383 278.46777344 C-216.31251699 275.26722988 -216.3360719 272.06761767 -216.36132812 268.8671875 C-216.45722256 237.66484513 -212.55274745 204.85085053 -192 180 C-191.30132812 179.13890625 -190.60265625 178.2778125 -189.8828125 177.390625 C-180.4802064 166.34841855 -168.97070322 159.94465943 -156 154 C-155.33129883 153.69126953 -154.66259766 153.38253906 -153.97363281 153.06445312 C-132.06745745 143.08696546 -108.8005726 135.88992753 -86 128.25 C-85.02430557 127.92204437 -85.02430557 127.92204437 -84.02890015 127.58746338 C-82.207947 126.97665405 -80.38526653 126.37100139 -78.5625 125.765625 C-77.53253906 125.42305664 -76.50257813 125.08048828 -75.44140625 124.72753906 C-73 124 -73 124 -71 124 C-71.04197256 116.83202527 -71.11459072 109.66480804 -71.20751953 102.49731445 C-71.23557072 100.06411592 -71.25686322 97.63082895 -71.27099609 95.19750977 C-70.51386864 72.64874584 -70.51386864 72.64874584 -80.44140625 53.30078125 C-84.94435203 49.54268364 -89.00646212 48.40706708 -94.765625 48.66796875 C-99.84585175 49.42289755 -102.74171393 51.3156577 -105.73046875 55.31640625 C-114.63577806 69.50990399 -111.41342598 81.22963141 -112 100 C-144.34 100 -176.68 100 -210 100 C-210.69728239 93.02717606 -211.10272615 86.66900528 -210.75 79.75 C-210.70190186 78.80398926 -210.65380371 77.85797852 -210.60424805 76.88330078 C-209.05260267 50.02807072 -204.4049262 22.79074997 -186 2 C-185.505 1.4121875 -185.01 0.824375 -184.5 0.21875 C-163.12943685 -23.28886947 -126.9625526 -27.0713266 -97.19458008 -28.85791016 C-62.09957708 -30.4188801 -26.94991959 -23.73064592 0 0 Z M-101.2734375 191.26953125 C-113.63950746 205.49740728 -114.31364685 223.94217637 -114.30078125 241.90234375 C-114.30468827 243.27747217 -114.30902687 244.65259942 -114.31376648 246.02772522 C-114.32114672 248.88400213 -114.32099747 251.74015525 -114.31567383 254.59643555 C-114.31103425 257.48884597 -114.318002 260.38083681 -114.33618164 263.27319336 C-115.92325904 290.66237009 -115.92325904 290.66237009 -106 315 C-105.34 315.78375 -104.68 316.5675 -104 317.375 C-98.86433286 321.54772955 -93.38308075 321.64651783 -87 321 C-82.00968713 319.30517676 -78.71221661 316.48698923 -76 312 C-71.18627761 301.58103712 -70.84891661 291.34062232 -70.88647461 280.05444336 C-70.88632858 278.89245422 -70.88618256 277.73046509 -70.8860321 276.53326416 C-70.88672495 272.71877124 -70.89448781 268.90432806 -70.90234375 265.08984375 C-70.90421016 262.43469663 -70.90568225 259.77955221 -70.90663147 257.12440491 C-70.90972867 250.86669475 -70.91792017 244.60900224 -70.92798096 238.35129982 C-70.93919234 231.22184591 -70.94466517 224.09239111 -70.94967639 216.96293056 C-70.96010427 202.3086113 -70.97767226 187.6543059 -71 173 C-80.41590806 173 -95.15198758 185.15859929 -101.2734375 191.26953125 Z " fill="#01162E" transform="translate(254,66)"/>
<path d="M0 0 C42.9 0 85.8 0 130 0 C130.0825 18.789375 130.165 37.57875 130.25 56.9375 C130.28641602 62.83874756 130.32283203 68.73999512 130.36035156 74.82006836 C130.37841797 82.10656738 130.37841797 82.10656738 130.3817749 85.53321838 C130.38785945 87.89250214 130.40180573 90.2517746 130.42230225 92.61097717 C130.72754981 129.64343305 118.31336337 160.8335743 93 188 C72.85229449 208.41475904 46.4752704 222.69937576 17.48046875 224.1796875 C14.97724526 224.18611426 12.49847231 224.14569925 10 224 C10 224.99 10 225.98 10 227 C6.37 227 2.74 227 -1 227 C-1 210.5 -1 194 -1 177 C0.32 176.67 1.64 176.34 3 176 C3 175.01 3 174.02 3 173 C3.70125 172.82984375 4.4025 172.6596875 5.125 172.484375 C15.37614286 169.86587655 22.929214 167.07656541 29 158 C33.05263658 150.31285601 34.40726044 143.76006756 36 135 C24.12 135 12.24 135 0 135 C0 90.45 0 45.9 0 0 Z " fill="#FA9E50" transform="translate(330,239)"/>
<path d="M0 0 C6.75634995 0 6.75634995 0 9.890625 1.765625 C10.59106934 2.15500244 11.29151367 2.54437988 12.01318359 2.94555664 C12.75133301 3.37602295 13.48948242 3.80648926 14.25 4.25 C15.42103271 4.91793579 15.42103271 4.91793579 16.61572266 5.59936523 C37.34873682 17.60541998 56.20383261 32.06278453 73.875 48.1875 C74.38603271 48.65003174 74.89706543 49.11256348 75.42358398 49.58911133 C98.64597954 71.04225321 117.43695676 102.68085271 126 133 C126 133.66 126 134.32 126 135 C84.42 135 42.84 135 0 135 C0 90.45 0 45.9 0 0 Z " fill="#FA9E50" transform="translate(330,39)"/>
<path d="M0 0 C0.33 0 0.66 0 1 0 C1 105.93 1 211.86 1 321 C-0.32 321 -1.64 321 -3 321 C-2.84129645 320.50475421 -2.68259291 320.00950842 -2.51908016 319.49925518 C-1.79583622 316.01699695 -1.76790564 312.55469005 -1.69471741 309.01191711 C-1.67476727 308.19481258 -1.65481713 307.37770805 -1.63426244 306.53584278 C-1.56941557 303.77179471 -1.51271736 301.00766021 -1.45727539 298.2434082 C-1.43652454 297.26601515 -1.4157737 296.28862211 -1.39439404 295.28161108 C-0.83286857 268.42333374 -0.77906106 241.56006812 -0.70291793 214.69700668 C-0.6815892 207.23157186 -0.65525792 199.76615668 -0.62875474 192.30073873 C-0.58165492 178.99859802 -0.53824407 165.69644814 -0.49731445 152.39428711 C-0.45765984 139.50918878 -0.41616742 126.62409842 -0.37231445 113.73901367 C-0.36959018 112.93837343 -0.36686591 112.13773319 -0.36405908 111.31283113 C-0.35037473 107.29434219 -0.33665543 103.27585338 -0.32291877 99.25736463 C-0.20986443 66.17159314 -0.10286428 33.08580477 0 0 Z " fill="#081020" transform="translate(284,140)"/>
<path d="M0 0 C0.66 0 1.32 0 2 0 C1.2057666 7.23026269 -0.44796871 13.84006912 -3 20.625 C-3.26119629 21.32367188 -3.52239258 22.02234375 -3.79150391 22.7421875 C-4.91760639 25.64052854 -5.77806947 27.77806947 -8 30 C-7.54177532 26.53058454 -7.10868317 23.32604951 -6 20 C-5.34 20 -4.68 20 -4 20 C-4 17.69 -4 15.38 -4 13 C-3.34 13 -2.68 13 -2 13 C-1.34 8.71 -0.68 4.42 0 0 Z " fill="#ECA25F" transform="translate(457,357)"/>
<path d="M0 0 C2 3.75 2 3.75 2 6 C1.34 6 0.68 6 0 6 C0.185625 7.11375 0.37125 8.2275 0.5625 9.375 C1 13 1 13 0 15 C-2.5625 15.625 -2.5625 15.625 -5 16 C-4.80664062 15.43152344 -4.61328125 14.86304688 -4.4140625 14.27734375 C-2.81863577 9.54635062 -1.33099414 4.81205575 0 0 Z " fill="#ED9E5C" transform="translate(365,381)"/>
<path d="M0 0 C0.66 0.33 1.32 0.66 2 1 C-0.64 3.97 -3.28 6.94 -6 10 C-6.33 8.68 -6.66 7.36 -7 6 C-4.86618551 2.7230706 -3.74981988 1.24993996 0 0 Z " fill="#EEA062" transform="translate(429,417)"/>
<path d="M0 0 C1.14926266 0.95421808 2.29430541 1.91352045 3.4375 2.875 C4.07558594 3.40867187 4.71367187 3.94234375 5.37109375 4.4921875 C7 6 7 6 8 8 C5.69 8 3.38 8 1 8 C1 6.68 1 5.36 1 4 C0.7018576 2.65835921 0.37756808 1.32148827 0 0 Z " fill="#EF9E5A" transform="translate(409,94)"/>
<path d="M0 0 C0.33 0 0.66 0 1 0 C0.67 4.95 0.34 9.9 0 15 C-1.64350079 11.71299843 -2.41321669 9.52069985 -3 6 C-2.34 6 -1.68 6 -1 6 C-0.67 4.02 -0.34 2.04 0 0 Z " fill="#05121F" transform="translate(141,278)"/>
<path d="M0 0 C2.61500768 2.36595933 4.38999603 4.86049226 6 8 C5.67 8.66 5.34 9.32 5 10 C0.07692308 5.69230769 0.07692308 5.69230769 -0.3125 2.1875 C-0.209375 1.465625 -0.10625 0.74375 0 0 Z " fill="#EC9F60" transform="translate(432,123)"/>
<path d="M0 0 C0.33 0.66 0.66 1.32 1 2 C0.00390625 4.1640625 0.00390625 4.1640625 -1.4375 6.625 C-1.91058594 7.44226563 -2.38367188 8.25953125 -2.87109375 9.1015625 C-3.24363281 9.72804688 -3.61617188 10.35453125 -4 11 C-4.33 11 -4.66 11 -5 11 C-5.33 9.02 -5.66 7.04 -6 5 C-4.68 5 -3.36 5 -2 5 C-1.855625 4.360625 -1.71125 3.72125 -1.5625 3.0625 C-1 1 -1 1 0 0 Z " fill="#E99E61" transform="translate(444,395)"/>
<path d="M0 0 C1.98 0 3.96 0 6 0 C2.8745041 2.64465038 -0.08788267 3.84414715 -4 5 C-4 4.01 -4 3.02 -4 2 C-2.68 2 -1.36 2 0 2 C0 1.34 0 0.68 0 0 Z " fill="#E89F62" transform="translate(383,451)"/>
<path d="M0 0 C1.32 1.32 2.64 2.64 4 4 C2.68 3.67 1.36 3.34 0 3 C0 2.01 0 1.02 0 0 Z M-4 3 C-2.68 3 -1.36 3 0 3 C-0.33 3.99 -0.66 4.98 -1 6 C-2.32 5.34 -3.64 4.68 -5 4 C-4.67 3.67 -4.34 3.34 -4 3 Z " fill="#F29F58" transform="translate(387,73)"/>
<path d="M0 0 C0.66 0.99 1.32 1.98 2 3 C1.67 3.33 1.34 3.66 1 4 C0.76807135 5.51469448 0.58784762 7.03754562 0.4375 8.5625 C0.35371094 9.38878906 0.26992188 10.21507812 0.18359375 11.06640625 C0.12300781 11.70449219 0.06242187 12.34257812 0 13 C-0.33 13 -0.66 13 -1 13 C-1.02686553 11.02090602 -1.04633375 9.04171029 -1.0625 7.0625 C-1.07410156 5.96035156 -1.08570313 4.85820312 -1.09765625 3.72265625 C-1 1 -1 1 0 0 Z " fill="#061424" transform="translate(45,133)"/>
<path d="" fill="#FFFFFF" transform="translate(0,0)"/>
<path d="" fill="#FFFFFF" transform="translate(0,0)"/>
<path d="" fill="#FFFFFF" transform="translate(0,0)"/>
<path d="" fill="#FFFFFF" transform="translate(0,0)"/>
<path d="" fill="#FFFFFF" transform="translate(0,0)"/>
<path d="" fill="#FFFFFF" transform="translate(0,0)"/>
<path d="" fill="#FFFFFF" transform="translate(0,0)"/>
<path d="" fill="#FFFFFF" transform="translate(0,0)"/>
<path d="" fill="#FFFFFF" transform="translate(0,0)"/>
<path d="" fill="#FFFFFF" transform="translate(0,0)"/>
<path d="" fill="#FFFFFF" transform="translate(0,0)"/>
<path d="" fill="#FFFFFF" transform="translate(0,0)"/>
<path d="" fill="#FFFFFF" transform="translate(0,0)"/>
<path d="" fill="#FFFFFF" transform="translate(0,0)"/>
<path d="" fill="#FFFFFF" transform="translate(0,0)"/>
<path d="" fill="#FFFFFF" transform="translate(0,0)"/>
<path d="" fill="#FFFFFF" transform="translate(0,0)"/>
<path d="" fill="#FFFFFF" transform="translate(0,0)"/>
<path d="" fill="#FFFFFF" transform="translate(0,0)"/>
<path d="" fill="#FFFFFF" transform="translate(0,0)"/>
<path d="" fill="#FFFFFF" transform="translate(0,0)"/>
<path d="" fill="#FFFFFF" transform="translate(0,0)"/>
<path d="" fill="#FFFFFF" transform="translate(0,0)"/>
<path d="" fill="#FFFFFF" transform="translate(0,0)"/>
<path d="" fill="#FFFFFF" transform="translate(0,0)"/>
<path d="" fill="#FFFFFF" transform="translate(0,0)"/>
<path d="" fill="#FFFFFF" transform="translate(0,0)"/>
<path d="" fill="#FFFFFF" transform="translate(0,0)"/>
<path d="" fill="#FFFFFF" transform="translate(0,0)"/>
<path d="" fill="#FFFFFF" transform="translate(0,0)"/>
<path d="" fill="#FFFFFF" transform="translate(0,0)"/>
<path d="" fill="#FFFFFF" transform="translate(0,0)"/>
<path d="" fill="#FFFFFF" transform="translate(0,0)"/>
<path d="" fill="#FFFFFF" transform="translate(0,0)"/>
<path d="" fill="#FFFFFF" transform="translate(0,0)"/>
<path d="" fill="#FFFFFF" transform="translate(0,0)"/>
<path d="" fill="#FFFFFF" transform="translate(0,0)"/>
<path d="" fill="#FFFFFF" transform="translate(0,0)"/>
<path d="" fill="#FFFFFF" transform="translate(0,0)"/>
<path d="" fill="#FFFFFF" transform="translate(0,0)"/>
<path d="" fill="#FFFFFF" transform="translate(0,0)"/>
<path d="" fill="#FFFFFF" transform="translate(0,0)"/>
<path d="" fill="#FFFFFF" transform="translate(0,0)"/>
<path d="" fill="#FFFFFF" transform="translate(0,0)"/>
<path d="" fill="#FFFFFF" transform="translate(0,0)"/>
<path d="" fill="#FFFFFF" transform="translate(0,0)"/>
<path d="" fill="#FFFFFF" transform="translate(0,0)"/>
</svg>
