<?xml version="1.0" encoding="UTF-8"?>
<svg version="1.1" xmlns="http://www.w3.org/2000/svg" width="500" height="500">
<path d="M0 0 C165 0 330 0 500 0 C500 165 500 330 500 500 C335 500 170 500 0 500 C0 335 0 170 0 0 Z " fill="#000000" transform="translate(0,0)"/>
<path d="M0 0 C2.25084741 -0.00217357 4.50119265 -0.02036167 6.75195312 -0.03930664 C40.29415918 -0.17093897 73.25976785 8.829727 97.96289062 32.49780273 C116.90430892 52.30272686 124.51559097 77.28597129 124.39089966 104.27032471 C124.39177379 105.65424069 124.39352858 107.03815635 124.39607799 108.42207026 C124.40051476 112.19172543 124.39259891 115.96126528 124.38252187 119.73090577 C124.37383623 123.80844232 124.37681113 127.88597303 124.37832642 131.96351624 C124.37937205 139.01712824 124.37312918 146.07070307 124.36185074 153.12430573 C124.34555494 163.32246277 124.34038357 173.52060194 124.33787476 183.71877059 C124.33350404 200.26703237 124.32021189 216.81527435 124.30126953 233.36352539 C124.28289457 249.43286033 124.26874598 265.50218987 124.26025391 281.5715332 C124.25972846 282.56305005 124.25920301 283.55456689 124.25866164 284.5761297 C124.25605145 289.55057779 124.25352406 294.5250259 124.25103784 299.49947405 C124.23032476 340.72810119 124.19346549 381.95669171 124.15039062 423.18530273 C91.15039062 423.18530273 58.15039062 423.18530273 24.15039062 423.18530273 C23.82039062 408.33530273 23.49039063 393.48530273 23.15039062 378.18530273 C21.50039062 382.47530273 19.85039062 386.76530273 18.15039062 391.18530273 C13.63569766 399.08601543 8.52071168 405.70061326 2.15039062 412.18530273 C1.58707031 412.76151367 1.02375 413.33772461 0.44335938 413.93139648 C-10.5065372 424.18859887 -24.98482416 427.74621299 -39.53710938 427.56030273 C-41.25849121 427.54507568 -41.25849121 427.54507568 -43.01464844 427.52954102 C-62.75675309 427.16973154 -80.2987615 421.83483299 -95.02539062 408.16577148 C-120.91853213 381.0659593 -122.29367222 336.82741227 -122.22460938 301.62280273 C-122.22406555 300.57380798 -122.22352173 299.52481323 -122.22296143 298.44403076 C-122.13666727 262.1542334 -116.87908454 228.34427471 -91.09960938 200.93530273 C-85.59434728 195.63331186 -79.52878952 191.84879954 -72.84960938 188.18530273 C-71.13064453 187.23397461 -71.13064453 187.23397461 -69.37695312 186.26342773 C-47.93808567 174.80363 -24.17525521 167.76777648 -1.14157104 160.25064087 C2.40015882 159.09424442 5.93555946 157.92298513 9.46142578 156.71899414 C10.49285454 156.36850761 10.49285454 156.36850761 11.54512024 156.01094055 C13.42614348 155.37028837 15.30553644 154.72485522 17.18481445 154.07910156 C20.15039062 153.18530273 20.15039062 153.18530273 23.15039062 153.18530273 C23.10852776 145.55348276 23.03601264 137.92238063 22.94287109 130.29101562 C22.91476502 127.69863372 22.89349934 125.10616777 22.87939453 122.51367188 C22.85782197 118.77227062 22.81109554 115.03186896 22.75976562 111.29077148 C22.75792267 109.5713459 22.75792267 109.5713459 22.75604248 107.81718445 C22.56502819 97.15847987 20.20820325 88.69850245 12.93164062 80.74389648 C8.31146804 76.70124547 4.02127832 76.75024687 -1.93945312 76.88061523 C-5.98388802 77.30405942 -7.93970144 78.34636816 -10.84960938 81.18530273 C-21.66209125 95.42022285 -18.26527463 108.90225622 -18.84960938 128.18530273 C-50.85960937 128.18530273 -82.86960937 128.18530273 -115.84960938 128.18530273 C-115.84960938 79.43081172 -115.84960938 79.43081172 -107.84960938 58.18530273 C-107.4809375 57.1347168 -107.11226562 56.08413086 -106.73242188 55.00170898 C-99.10625373 34.77921484 -83.70333451 20.84705004 -64.59960938 11.49780273 C-44.11030126 2.66569169 -22.11400166 -0.00237683 0 0 Z " fill="#FEFEFE" transform="translate(159.849609375,38.814697265625)"/>
<path d="M0 0 C42.9 0 85.8 0 130 0 C130.061875 17.799375 130.12375 35.59875 130.1875 53.9375 C130.22846802 62.31950806 130.22846802 62.31950806 130.27026367 70.87084961 C130.28381348 77.77648926 130.28381348 77.77648926 130.28633118 81.02516174 C130.29089123 83.25943299 130.3013436 85.49369759 130.31672668 87.72792053 C130.42631761 104.50621107 130.08489064 120.73425857 123.8125 136.5625 C123.51134277 137.34641113 123.21018555 138.13032227 122.89990234 138.93798828 C109.40528573 173.25326658 84.95600057 201.04247222 51 216 C43.32862171 219.32859804 35.72336623 221.44509472 27.5 222.8125 C26.76547607 222.93665283 26.03095215 223.06080566 25.27416992 223.1887207 C18.02901502 224.25731599 11.54385059 224 4 224 C3.67 207.17 3.34 190.34 3 173 C7.29 172.01 11.58 171.02 16 170 C26.42258666 164.45887798 30.65276711 157.11870371 34.23828125 146.08984375 C35.1341881 142.45567801 35.53574195 138.71406437 36 135 C24.12 135 12.24 135 0 135 C0 90.45 0 45.9 0 0 Z " fill="#FDFDFD" transform="translate(330,240)"/>
<path d="M0 0 C6.11398683 0.87342669 8.38585215 1.41533602 13.375 4.375 C13.97094971 4.72804199 14.56689941 5.08108398 15.1809082 5.44482422 C17.13174957 6.61256189 19.06725751 7.80256585 21 9 C21.65822754 9.40541016 22.31645508 9.81082031 22.99462891 10.22851562 C39.00388499 20.15757438 54.32029828 31.02182145 68 44 C69.41106302 45.21487244 70.8273529 46.42371355 72.25 47.625 C75.55294783 50.49829608 78.41587702 53.59110605 81.23828125 56.93359375 C82.39174866 58.2865522 83.5761858 59.613845 84.79296875 60.91015625 C101.64049932 78.93875081 113.11718782 101.17963251 122 124 C122.29132813 124.73154297 122.58265625 125.46308594 122.8828125 126.21679688 C124.07742641 129.2786928 125 131.68340262 125 135 C83.75 135 42.5 135 0 135 C0 90.45 0 45.9 0 0 Z " fill="#FCFCFC" transform="translate(330,40)"/>
<path d="M0 0 C0.04678193 16.02941671 0.08201915 32.05881118 0.10362434 48.08827972 C0.11392396 55.53153266 0.12795909 62.9747431 0.15087891 70.41796875 C0.17085311 76.90771467 0.18372599 83.3974298 0.18817699 89.8872056 C0.19077756 93.32146422 0.19686247 96.75563479 0.21146011 100.18986511 C0.22599405 104.02962448 0.22797711 107.86920189 0.22705078 111.70898438 C0.23424133 112.83971375 0.24143188 113.97044312 0.24884033 115.13543701 C0.22163459 125.56869047 -1.55124132 135.77270855 -8.5 143.9375 C-14.54935933 148.92822144 -20.36770673 148.70911282 -28 148 C-32.9980463 146.75493508 -35.45236193 143.74874674 -38.25 139.5625 C-44.06073714 128.69834117 -44.44740086 117.11308878 -44.36328125 105.05859375 C-44.36276066 103.55892436 -44.36328601 102.05925429 -44.36479187 100.55958557 C-44.36470291 97.4391135 -44.3544297 94.31890384 -44.33618164 91.19848633 C-44.31347754 87.23270184 -44.31296238 83.26729861 -44.31969929 79.30146694 C-44.32306725 76.21190604 -44.31635679 73.12242941 -44.30657005 70.0328846 C-44.3027678 68.57190455 -44.30154874 67.11091506 -44.3031559 65.64993095 C-44.30628881 48.62826752 -42.85504035 32.07581109 -31 19 C-30.2575 18.154375 -29.515 17.30875 -28.75 16.4375 C-10.20512821 0 -10.20512821 0 0 0 Z " fill="#030303" transform="translate(183,240)"/>
</svg>
