<svg xmlns="http://www.w3.org/2000/svg" version="1.0" width="755.000000pt" height="708.000000pt" viewBox="0 0 755.000000 708.000000" preserveAspectRatio="xMidYMid meet">

<g transform="translate(0.000000,708.000000) scale(0.100000,-0.100000)" fill="#7cf34d" stroke="none">
<path d="M3844 6945 c-277 -43 -505 -187 -598 -378 -35 -71 -43 -169 -22 -266 9 -41 14 -77 11 -79 -8 -8 -113 68 -142 102 -50 59 -66 111 -61 201 4 72 9 90 47 161 23 43 54 91 69 106 38 41 24 40 -38 -1 -104 -69 -224 -250 -250 -378 -7 -31 -10 -92 -8 -133 l4 -76 -37 12 c-93 32 -258 43 -374 24 -82 -13 -185 -47 -215 -71 l-25 -19 43 15 c23 8 42 11 42 8 0 -4 5 -2 11 4 9 9 22 7 53 -9 46 -23 141 -94 170 -127 19 -21 19 -21 -3 -21 -12 0 -104 -21 -204 -46 -175 -44 -186 -46 -292 -41 -126 6 -197 28 -267 81 -92 71 -143 256 -104 381 8 27 14 51 12 53 -7 6 -84 -131 -116 -207 -53 -124 -72 -213 -73 -341 -2 -127 8 -162 72 -248 36 -49 131 -114 203 -140 26 -9 48 -20 48 -23 0 -4 -24 -13 -52 -19 -29 -7 -123 -35 -208 -62 -175 -55 -217 -57 -347 -17 -168 52 -278 145 -318 269 -23 69 -30 52 -16 -37 21 -140 105 -260 261 -375 94 -69 137 -92 145 -77 4 6 13 8 21 5 8 -3 17 1 20 8 3 8 17 13 34 12 17 -1 26 2 23 9 -2 8 -21 10 -50 7 -44 -4 -46 -3 -40 19 5 22 5 22 -7 7 -17 -24 -29 -23 -21 1 3 11 1 22 -4 26 -6 3 -8 0 -5 -8 3 -8 1 -18 -4 -21 -10 -6 -100 48 -122 75 -8 9 -23 26 -32 38 -9 11 -13 21 -9 23 5 2 -1 12 -12 23 -11 11 -17 13 -13 5 9 -18 -25 22 -56 65 l-21 30 29 -26 c40 -36 88 -62 162 -89 34 -12 62 -25 62 -29 0 -6 31 -9 145 -12 50 -1 95 6 155 24 113 34 220 59 247 59 13 0 20 4 18 9 -7 10 60 23 74 14 6 -3 11 -2 11 3 0 8 36 17 115 29 11 1 64 4 118 6 53 2 100 7 104 10 10 11 25 8 18 -3 -3 -5 0 -7 9 -4 8 3 13 11 10 18 -3 7 7 18 21 24 35 16 39 15 19 -5 -23 -23 -114 -165 -114 -178 0 -5 20 20 45 57 53 79 133 161 151 154 8 -3 11 0 8 8 -2 6 11 21 30 32 18 10 63 36 100 57 38 22 71 35 78 31 7 -4 10 -3 5 1 -4 5 19 17 50 28 40 14 58 17 61 8 2 -6 8 -11 13 -11 4 0 6 6 3 14 -4 10 7 15 40 20 54 8 61 21 11 22 -18 0 -32 -3 -29 -8 3 -4 -8 -8 -24 -8 -28 0 -127 -36 -187 -68 -16 -9 -32 -16 -35 -17 -4 -1 -53 -30 -115 -70 -11 -7 -31 -23 -44 -36 -16 -15 -26 -19 -29 -11 -2 7 -9 9 -15 5 -6 -4 -8 0 -4 10 5 13 2 15 -18 7 -19 -7 -27 -5 -34 8 -6 10 -11 12 -11 5 0 -19 -41 -16 -56 5 -13 16 -14 16 -8 -1 6 -15 3 -16 -20 -7 -15 5 -41 12 -59 15 -18 4 -33 10 -35 15 -2 5 -9 7 -16 4 -15 -6 -137 57 -165 85 -12 12 -26 21 -32 21 -5 0 -7 4 -4 10 3 6 -1 7 -9 4 -9 -3 -16 -2 -16 4 0 6 5 12 12 14 7 3 5 7 -6 11 -10 4 -15 3 -11 -3 3 -6 1 -10 -4 -10 -6 0 -11 6 -11 14 0 8 -5 18 -12 22 -7 5 -8 3 -3 -7 10 -16 -54 41 -102 90 -27 29 -31 37 -21 55 10 20 10 20 -7 6 -17 -14 -18 -14 -5 10 12 23 12 24 -3 11 -14 -11 -17 -11 -18 0 -3 31 -7 56 -14 89 -10 53 -9 155 3 176 10 18 11 18 10 -1 -1 -11 2 -32 5 -47 5 -19 3 -28 -4 -28 -8 0 -8 -4 1 -15 7 -8 10 -21 7 -29 -3 -8 1 -17 10 -20 8 -4 13 -13 9 -21 -3 -9 3 -19 14 -25 11 -6 20 -15 20 -21 0 -6 -5 -7 -12 -3 -7 4 -8 3 -4 -5 4 -6 12 -9 17 -6 5 4 14 -5 20 -19 7 -14 15 -23 19 -21 9 5 24 -25 21 -39 -1 -5 4 -6 11 -3 8 2 27 -9 43 -26 17 -17 21 -25 11 -17 -18 14 -18 14 -6 -6 8 -13 21 -20 36 -18 21 2 23 0 12 -19 -10 -20 -10 -21 6 -8 10 9 20 11 24 5 11 -14 151 -20 232 -9 19 2 60 8 90 12 30 4 70 7 88 7 17 0 32 3 32 8 0 8 -19 9 -242 10 -80 0 -138 4 -138 10 0 5 -4 7 -9 4 -16 -10 -75 16 -129 57 -66 50 -94 93 -31 48 23 -17 48 -31 56 -31 8 0 12 -3 10 -7 -3 -5 7 -9 21 -9 15 -1 45 -7 67 -13 39 -10 184 -15 237 -7 15 2 56 11 90 20 119 29 148 34 148 25 0 -5 5 -9 11 -9 5 0 7 5 4 10 -3 6 0 10 7 11 7 0 24 3 38 7 25 6 328 8 387 2 18 -2 30 -7 27 -11 -3 -5 1 -6 9 -4 7 3 42 -1 77 -9 35 -8 66 -13 69 -11 2 3 -1 5 -8 5 -8 0 -11 6 -7 16 5 14 4 15 -9 4 -14 -12 -19 -7 -16 13 1 5 -2 6 -7 3 -5 -3 -36 6 -71 20 -73 30 -93 33 -233 35 l-108 1 -47 42 c-27 22 -53 45 -60 51 -7 5 -19 16 -27 23 -18 14 -68 36 -78 34 -5 -1 -8 2 -8 7 0 14 136 24 237 18 98 -6 216 -34 206 -50 -3 -6 -1 -7 5 -3 6 3 28 0 49 -8 52 -20 156 -50 166 -48 4 1 7 -6 7 -16 0 -13 2 -14 9 -3 7 11 13 10 35 -4 14 -9 24 -21 21 -25 -3 -5 0 -12 6 -16 8 -4 9 -3 5 4 -9 15 16 16 31 1 7 -7 12 -6 17 6 3 9 2 14 -3 11 -13 -8 -62 34 -55 46 4 6 3 8 -3 5 -20 -13 -146 82 -171 130 -18 33 -14 104 9 205 16 65 24 86 31 74 5 -10 5 -24 -2 -36 -6 -11 -8 -26 -4 -32 4 -7 3 -8 -4 -4 -12 7 -9 -71 3 -83 4 -3 6 1 4 9 -1 8 1 37 6 64 8 51 25 47 25 -6 0 -16 5 -28 11 -28 8 0 10 -14 6 -42 -4 -27 -2 -37 4 -27 7 11 9 10 10 -6 1 -11 2 -26 2 -32 -1 -7 3 -13 8 -13 5 0 9 -7 9 -15 0 -20 20 -51 95 -150 34 -44 67 -95 75 -113 7 -18 15 -31 17 -29 7 8 -22 63 -75 140 -29 43 -54 87 -55 97 -1 11 -5 20 -9 20 -4 0 -8 5 -8 11 0 5 4 8 9 4 5 -3 13 -1 16 5 4 6 3 10 -2 9 -23 -4 -43 2 -38 11 5 8 11 7 21 -1 13 -11 19 -5 14 16 -1 5 2 6 6 2 4 -4 9 -15 10 -24 2 -9 10 -20 19 -25 8 -5 12 -14 9 -20 -5 -7 -2 -8 5 -4 7 5 18 0 26 -10 13 -18 14 -18 11 -1 -1 10 -16 30 -32 43 -16 14 1 6 38 -18 53 -34 66 -47 63 -63 -3 -11 -2 -14 1 -7 9 20 26 14 19 -7 -3 -11 -1 -22 4 -26 7 -4 8 1 4 12 -6 16 -5 16 10 5 9 -8 22 -29 29 -48 6 -19 15 -34 19 -34 4 0 15 -20 26 -45 10 -25 21 -45 26 -45 4 0 0 17 -9 38 -9 20 -17 45 -18 54 0 9 -3 15 -6 13 -4 -2 -20 42 -36 98 -26 90 -29 110 -22 172 5 39 11 77 15 85 3 8 5 19 4 24 -1 6 2 19 7 30 5 12 18 41 28 66 10 25 25 51 34 58 8 8 9 11 3 7 -22 -11 -15 2 27 47 22 23 40 47 40 51 0 5 4 6 9 2 5 -3 13 4 16 15 6 18 9 19 23 8 10 -7 14 -8 10 -4 -12 14 11 36 29 29 10 -4 14 -2 10 4 -4 6 3 11 18 11 15 0 25 -6 25 -15 0 -10 -6 -13 -17 -9 -10 4 -14 4 -11 0 4 -3 -15 -36 -43 -72 -27 -36 -47 -68 -44 -70 3 -3 12 4 21 16 9 13 38 48 65 79 26 30 51 64 54 74 4 11 11 17 16 14 5 -4 9 -2 9 3 0 18 177 118 188 107 3 -3 -12 -12 -33 -21 -21 -8 -52 -25 -69 -37 -43 -30 -116 -105 -116 -120 0 -7 -9 -23 -20 -37 -22 -28 -27 -49 -7 -28 6 7 30 36 52 63 43 54 69 82 100 105 11 8 -9 -17 -45 -56 -115 -126 -212 -336 -224 -486 l-5 -63 11 55 c6 30 13 49 15 43 3 -7 0 -36 -6 -63 -6 -28 -11 -80 -11 -116 0 -36 -5 -75 -11 -86 -10 -18 -9 -20 5 -15 18 7 32 -30 23 -64 -3 -12 0 -22 9 -26 8 -3 14 -13 14 -23 0 -11 5 -22 11 -25 6 -4 8 -14 5 -22 -3 -8 -2 -12 2 -10 4 3 17 -11 29 -29 25 -38 20 -43 -17 -14 -14 11 -33 20 -42 20 -10 0 -18 4 -18 10 0 5 -7 7 -15 4 -8 -4 -15 -2 -15 3 0 5 -8 9 -17 10 -49 5 -98 15 -115 24 -10 5 -23 7 -28 4 -6 -4 -23 7 -38 23 -25 26 -29 28 -42 14 -13 -14 -12 -15 2 -9 12 4 19 0 23 -14 4 -10 11 -19 17 -19 6 0 9 -3 6 -6 -4 -3 -16 -1 -27 6 -17 9 -21 8 -21 -4 0 -8 -8 -14 -17 -14 -10 0 -34 -3 -53 -7 -19 -4 -42 -8 -50 -9 -8 0 -17 -3 -20 -6 -3 -4 -25 -12 -50 -19 -24 -7 -68 -28 -97 -47 -47 -30 -54 -32 -68 -18 -8 9 -15 12 -15 7 0 -5 5 -14 10 -19 13 -13 -46 -68 -63 -58 -7 4 -9 4 -5 -1 4 -4 -15 -32 -42 -62 -28 -30 -50 -59 -50 -65 0 -6 -7 -4 -17 3 -15 13 -15 12 -2 -9 8 -12 15 -18 17 -12 2 6 8 8 13 5 5 -4 6 0 3 8 -8 23 40 54 96 61 28 4 58 10 67 13 13 5 15 2 10 -11 -5 -13 -3 -17 7 -13 7 3 19 0 26 -6 10 -9 11 -9 6 1 -4 7 -1 15 8 18 21 8 76 -18 76 -35 0 -11 4 -10 16 5 8 10 13 13 9 7 -4 -8 0 -13 10 -13 9 0 13 4 10 10 -3 6 1 7 9 4 9 -3 16 -11 16 -16 0 -6 7 -7 16 -4 8 3 12 2 9 -3 -3 -5 -36 -10 -73 -11 -112 -2 -132 -4 -132 -12 0 -4 -10 -5 -22 -3 -12 3 -26 -1 -30 -8 -6 -9 -8 -9 -8 1 0 10 -4 10 -16 -2 -19 -20 -35 -21 -28 -2 3 8 1 23 -6 33 -10 16 -10 16 -5 -3 8 -32 -4 -54 -30 -54 -31 0 -95 -38 -90 -53 5 -13 -80 -70 -108 -73 -10 -1 -21 -5 -25 -9 -4 -5 2 -5 13 -2 16 6 16 3 -5 -14 -14 -11 -38 -32 -53 -45 -15 -14 -33 -22 -39 -18 -6 4 -8 3 -5 -3 7 -11 -25 -43 -95 -96 -31 -23 -43 -37 -33 -40 7 -3 19 1 26 9 11 14 15 13 32 -8 17 -22 18 -22 8 -1 -6 12 -11 24 -11 27 0 9 38 7 43 -1 2 -5 2 -2 0 6 -2 8 2 11 11 8 8 -3 16 -2 18 3 2 5 39 17 82 26 93 19 327 17 333 -3 3 -7 11 -9 20 -6 12 5 14 3 8 -7 -6 -10 -4 -11 6 -4 29 18 49 15 48 -9 0 -21 -1 -21 -9 -2 -5 11 -9 14 -9 7 -1 -7 -5 -10 -11 -7 -5 3 -10 2 -10 -4 0 -5 6 -12 13 -15 6 -2 2 -4 -10 -2 -11 1 -28 8 -37 15 -13 11 -16 11 -16 -1 0 -8 -6 -15 -12 -16 -7 0 -31 -3 -53 -5 -22 -3 -46 0 -53 6 -11 8 -18 6 -30 -10 -16 -20 -137 -81 -176 -89 -10 -2 -24 -8 -32 -15 -8 -6 -14 -8 -14 -5 0 4 -8 2 -18 -3 -13 -7 -23 -6 -32 2 -10 9 -11 9 -6 0 9 -17 -15 -28 -25 -12 -7 12 -9 12 -9 0 0 -8 -7 -11 -20 -8 -11 3 -20 2 -20 -2 0 -5 -37 -11 -83 -14 -46 -4 -104 -13 -130 -21 -26 -8 -47 -12 -47 -9 0 3 -6 1 -12 -4 -7 -6 -38 -18 -68 -28 -30 -10 -62 -24 -71 -31 -8 -8 -21 -14 -27 -14 -6 0 -14 -4 -17 -10 -4 -6 10 -9 35 -7 22 1 40 4 40 7 0 3 13 6 30 5 16 0 30 -2 29 -5 -1 -12 -89 -68 -89 -57 0 6 -6 1 -13 -13 -7 -14 -20 -24 -29 -24 -9 1 -14 -4 -12 -10 2 -6 -5 -17 -16 -24 -18 -11 -20 -10 -21 10 -1 16 -4 11 -11 -15 -9 -32 -13 -37 -32 -32 -15 5 -17 4 -7 -3 8 -6 9 -12 3 -16 -6 -3 -13 -2 -17 4 -9 15 -25 12 -19 -4 6 -16 -31 -28 -66 -20 -21 5 -22 4 -10 -6 13 -10 12 -11 -4 -6 -11 4 -22 2 -26 -4 -3 -5 -20 -11 -37 -12 -17 -2 -43 -13 -57 -25 -26 -23 -52 -31 -41 -14 3 5 0 13 -6 17 -7 4 -9 3 -6 -3 12 -19 -19 -36 -43 -23 -25 14 -41 4 -20 -11 12 -9 12 -10 -3 -5 -10 3 -23 6 -29 6 -5 0 -3 7 6 15 8 8 25 14 37 13 16 -2 24 3 25 15 1 9 0 11 -2 4 -6 -18 -62 -17 -69 1 -4 12 70 50 88 44 5 -1 6 1 3 6 -3 5 11 14 30 21 20 7 34 15 32 17 -3 2 -29 -6 -59 -17 -82 -31 -89 -33 -89 -18 0 8 -6 5 -16 -7 -8 -10 -13 -14 -10 -8 7 14 -60 17 -85 3 -13 -7 -25 -6 -37 1 -15 10 -14 11 5 7 13 -3 26 -1 29 4 3 5 16 9 29 9 12 0 25 7 29 15 3 8 15 15 26 15 12 0 18 5 15 10 -4 7 -12 7 -25 0 -10 -5 -28 -10 -40 -10 -12 0 -19 -4 -16 -8 3 -5 -15 -13 -39 -19 -25 -6 -45 -7 -45 -3 0 4 16 11 36 15 20 3 34 8 32 11 -3 2 -31 -1 -63 -8 -53 -10 -59 -10 -73 8 -12 16 -14 16 -9 2 5 -15 0 -18 -34 -18 -39 0 -41 1 -35 25 5 19 2 25 -10 25 -12 0 -15 -6 -10 -25 5 -19 3 -23 -9 -19 -8 4 -15 12 -15 19 0 8 -5 17 -11 21 -8 4 -9 0 -4 -15 5 -18 2 -21 -19 -21 -19 0 -24 4 -19 16 3 9 0 20 -8 25 -12 7 -12 10 -1 18 11 6 10 10 -5 16 -15 7 -12 9 17 15 79 17 150 40 195 64 26 15 44 26 40 26 -5 0 5 10 21 23 17 12 39 30 48 40 10 9 22 15 27 12 5 -4 9 -1 9 4 0 6 3 10 8 9 16 -3 40 14 36 27 -6 15 51 59 65 50 5 -3 13 0 17 6 5 8 2 10 -7 5 -8 -4 -4 1 8 12 14 12 31 18 43 15 12 -3 20 0 20 6 0 7 5 9 12 5 8 -5 6 -11 -5 -19 -9 -7 -13 -16 -9 -20 4 -5 -1 -5 -11 -2 -15 6 -16 4 -8 -11 8 -13 1 -26 -32 -59 -50 -52 -42 -57 12 -8 22 20 45 34 52 33 7 -2 13 2 14 9 0 18 13 27 117 83 55 29 103 48 109 44 8 -5 9 -3 4 6 -6 10 -1 11 21 6 23 -5 26 -4 14 5 -12 8 -8 9 15 5 19 -4 25 -3 16 2 -10 7 -10 11 -1 17 7 4 17 1 22 -6 8 -11 9 -11 5 2 -4 12 5 19 35 28 22 7 38 14 36 17 -3 2 -27 -2 -54 -10 -27 -8 -64 -13 -81 -11 -18 2 -33 0 -33 -5 0 -7 -57 -24 -72 -21 -5 0 -8 -3 -8 -8 0 -5 -12 -14 -27 -19 -16 -5 -36 -13 -45 -17 -11 -4 -18 -3 -18 4 0 6 7 11 16 11 9 0 12 5 8 12 -4 6 -3 8 4 5 5 -4 32 4 59 17 26 13 59 28 73 34 24 11 24 11 -5 5 -16 -4 -42 -7 -57 -7 -14 -1 -24 -4 -21 -8 4 -7 -23 -12 -30 -5 -2 1 -15 -6 -30 -16 -15 -9 -27 -13 -27 -8 0 6 -12 4 -28 -4 -32 -16 -183 -57 -215 -59 -12 0 -30 -8 -39 -17 -41 -36 -174 -61 -243 -45 -11 2 -23 5 -27 5 -3 1 -21 13 -40 28 l-33 27 25 -28 c51 -57 148 -87 245 -76 33 4 61 6 63 5 6 -5 -137 -124 -167 -139 -16 -9 -64 -25 -108 -37 -129 -36 -253 -21 -540 65 -85 26 -250 52 -260 42 -3 -3 0 -7 8 -10 163 -48 298 -158 405 -328 104 -167 181 -255 255 -294 61 -31 142 -54 193 -54 l50 0 -54 -56 c-69 -70 -202 -171 -258 -196 -28 -13 -54 -17 -75 -13 l-32 6 25 -15 c50 -30 125 -30 244 0 27 6 26 5 -16 -36 -68 -68 -135 -94 -238 -93 -115 1 -187 28 -256 97 -54 55 -73 108 -53 150 10 20 10 20 -5 2 -9 -11 -16 -24 -16 -29 0 -5 -6 -4 -14 2 -22 18 -14 -286 9 -366 25 -84 78 -192 120 -241 36 -42 121 -99 131 -89 3 3 -3 8 -14 11 -11 4 -40 28 -65 55 -76 81 -121 190 -132 317 l-7 77 96 -95 c178 -177 331 -226 555 -177 24 5 46 7 49 4 3 -2 -46 -58 -109 -122 -122 -126 -182 -208 -248 -342 -60 -121 -76 -140 -148 -174 -60 -27 -71 -29 -143 -24 -77 5 -128 22 -183 60 l-29 20 16 -30 c27 -54 115 -141 168 -167 32 -16 69 -26 95 -26 24 0 43 -4 43 -9 0 -5 -21 -23 -46 -40 -69 -45 -173 -71 -293 -73 -33 -1 -61 -2 -61 -4 0 -6 106 -60 197 -100 261 -114 417 -112 612 6 45 27 84 50 87 50 10 0 -19 -43 -54 -83 -53 -58 -143 -97 -227 -97 -37 0 -75 5 -86 10 -13 7 -19 7 -19 1 0 -18 76 -50 132 -56 54 -6 118 7 191 39 38 17 38 17 27 -4 -6 -11 -37 -46 -68 -78 -89 -90 -275 -172 -392 -172 -30 -1 -40 -3 -30 -9 27 -15 224 -80 262 -86 l37 -6 -19 -42 c-24 -51 -25 -123 -5 -201 18 -68 40 -111 30 -58 -15 74 40 194 102 225 16 8 55 17 88 20 33 3 79 12 102 20 41 14 42 14 32 -4 -5 -11 -13 -19 -17 -19 -14 0 -71 -105 -77 -140 l-6 -35 20 37 c35 62 157 146 240 163 l34 7 -22 -33 c-62 -95 -75 -131 -79 -226 -7 -144 35 -255 141 -377 26 -31 68 -68 93 -82 66 -39 182 -84 213 -83 24 1 24 1 -7 10 -44 13 -112 82 -140 141 -68 146 -25 250 161 389 43 33 80 59 82 59 5 0 -40 -84 -65 -120 -27 -38 -124 -203 -133 -224 -4 -10 9 -2 30 19 52 51 146 93 240 106 43 6 88 15 101 20 30 12 23 -1 -48 -80 -60 -68 -100 -133 -100 -164 0 -17 4 -15 35 11 37 33 62 40 163 45 38 2 62 -1 62 -8 -1 -14 -53 -82 -81 -104 -13 -10 -42 -28 -64 -39 l-40 -21 41 -1 c59 0 144 27 187 61 51 41 47 16 -6 -37 -30 -30 -57 -46 -90 -55 -61 -15 -56 -35 8 -32 91 5 219 70 276 141 l21 27 -7 -25 c-4 -14 -25 -56 -46 -93 -81 -143 -93 -253 -30 -286 28 -15 31 -14 31 11 0 42 58 87 147 114 45 14 104 40 132 59 l49 34 60 -56 59 -56 -60 -56 c-32 -31 -73 -76 -90 -100 l-30 -44 16 -91 c27 -147 57 -370 57 -418 0 -43 -1 -45 -39 -56 -21 -7 -55 -25 -75 -42 -41 -32 -74 -46 -84 -35 -4 4 -10 64 -13 133 -11 208 -97 495 -160 535 -38 24 -121 39 -150 28 -44 -16 -87 -60 -104 -105 -22 -56 -16 -183 14 -349 16 -85 21 -148 19 -224 l-3 -106 -135 -48 c-74 -27 -137 -46 -140 -41 -4 4 -39 111 -79 237 -113 359 -192 495 -317 554 -51 25 -73 26 -117 7 -95 -40 -103 -109 -33 -311 38 -112 139 -483 154 -568 4 -27 26 -46 38 -34 7 7 -123 508 -148 572 -31 78 -58 177 -58 213 0 77 62 133 125 112 51 -17 119 -73 155 -130 41 -64 113 -236 150 -360 15 -52 44 -147 63 -210 19 -63 40 -134 46 -157 12 -44 41 -60 41 -24 0 10 8 22 18 26 15 6 14 8 -7 19 -23 13 -23 13 18 29 23 10 50 17 60 17 10 0 21 3 25 7 10 11 79 32 87 28 4 -3 9 2 13 10 3 8 14 15 24 15 15 0 19 -9 21 -45 2 -42 -10 -58 -24 -35 -10 17 -45 12 -39 -5 8 -20 -13 -19 -24 1 -7 13 -13 14 -28 6 -18 -11 -18 -11 2 -12 12 0 21 -7 21 -15 0 -11 -6 -13 -20 -9 -11 4 -17 2 -14 -3 9 -14 -39 -34 -60 -26 -10 4 -14 2 -10 -5 4 -6 -1 -13 -10 -15 -10 -3 19 -4 64 -4 44 1 77 5 71 8 -5 3 10 11 34 17 l43 11 -25 -19 -25 -20 44 0 43 0 -5 218 c-4 189 -8 237 -35 372 -26 130 -29 166 -23 221 10 76 18 93 60 133 34 33 66 36 123 12 42 -18 78 -61 106 -127 29 -67 83 -337 76 -379 -6 -39 5 -133 38 -323 19 -109 25 -127 41 -127 16 0 19 7 17 58 -5 119 7 126 20 10 l7 -73 2 65 c1 68 18 222 27 253 8 25 51 22 59 -4 4 -11 4 -48 1 -82 -3 -34 -2 -54 2 -44 4 11 8 -12 8 -55 0 -40 3 -85 7 -101 l7 -27 475 0 475 0 0 28 c0 15 -5 79 -10 142 -19 210 -13 203 -365 385 -181 94 -233 129 -239 158 -10 53 -35 281 -31 285 2 3 51 -26 107 -64 72 -48 150 -114 260 -222 102 -101 161 -151 169 -147 7 5 10 4 5 -3 -3 -6 18 -29 49 -54 30 -23 55 -47 55 -51 0 -5 7 -7 15 -3 8 3 14 0 12 -6 -1 -6 23 -31 53 -55 30 -25 71 -59 90 -75 19 -17 45 -35 56 -40 21 -10 21 -15 16 -144 l-5 -134 477 0 c447 0 476 1 476 18 0 9 5 24 11 32 9 13 10 12 5 -2 -3 -10 -2 -18 3 -18 12 0 22 84 10 88 -5 2 -9 8 -9 13 0 6 4 8 9 5 14 -9 21 22 15 71 -3 24 -1 43 3 40 4 -3 9 11 11 31 3 45 7 48 35 33 22 -12 22 -15 20 -164 -2 -147 2 -153 22 -33 10 62 27 27 23 -48 -2 -46 1 -66 9 -66 15 0 18 10 43 170 12 74 23 187 25 250 3 107 19 200 66 375 27 100 97 165 176 165 39 0 90 -41 109 -87 20 -47 17 -162 -7 -283 -19 -100 -37 -314 -34 -410 1 -25 3 -75 3 -112 l2 -68 47 0 c44 0 45 1 27 15 -19 15 -19 15 1 8 11 -3 25 -9 30 -13 6 -4 60 -7 121 -8 l112 -1 6 32 c19 98 125 450 169 561 58 148 112 235 183 289 42 33 55 37 87 33 46 -5 72 -27 87 -72 15 -45 8 -93 -35 -225 -19 -61 -44 -149 -56 -197 -11 -48 -31 -125 -45 -172 -27 -89 -64 -230 -64 -242 0 -5 6 -8 13 -8 15 0 55 128 112 360 20 80 54 200 76 267 22 70 39 142 39 169 0 127 -95 181 -210 118 -134 -73 -216 -231 -326 -634 -25 -91 -47 -166 -49 -168 -1 -1 -27 7 -56 19 -30 12 -96 35 -148 51 l-93 29 6 127 c4 70 19 192 32 272 36 206 25 277 -52 336 -51 39 -124 44 -184 12 -58 -32 -90 -93 -129 -248 -35 -137 -51 -246 -51 -341 0 -85 -13 -94 -73 -52 -23 16 -61 37 -84 48 -54 23 -53 18 -13 300 35 242 33 217 31 274 -1 42 -6 49 -83 123 l-82 79 35 35 35 35 50 -39 c124 -100 259 -136 359 -97 60 23 62 31 6 27 -53 -4 -90 18 -117 70 -20 38 -14 44 27 23 47 -25 174 -31 224 -11 22 9 28 14 14 11 -36 -7 -93 12 -129 42 -51 43 -78 111 -105 268 l-7 40 54 -51 c62 -59 93 -77 179 -104 62 -19 129 -70 129 -98 0 -7 5 -10 11 -6 32 19 -19 302 -69 387 -18 31 -18 34 -2 30 33 -9 139 -104 165 -147 31 -53 45 -128 35 -191 -9 -59 6 -47 51 43 32 64 34 72 34 179 0 62 3 113 6 113 4 0 12 -7 20 -16 22 -26 84 -53 187 -80 113 -30 137 -42 173 -81 44 -47 62 -91 56 -140 -2 -23 -3 -43 -1 -43 12 0 36 70 40 123 7 78 -21 413 -41 490 -15 59 -42 117 -95 206 -16 29 -30 55 -30 58 0 10 82 -7 131 -29 121 -51 196 -210 146 -307 -9 -19 -17 -39 -17 -44 0 -22 39 27 61 76 29 64 32 184 8 233 l-16 31 96 6 c125 9 205 28 309 77 105 50 199 140 255 246 20 40 37 75 37 78 0 3 -18 -14 -41 -38 -63 -69 -177 -99 -294 -77 -73 14 -124 46 -170 109 -49 66 -46 72 28 72 72 0 147 30 187 76 l25 28 -33 -27 c-90 -72 -237 -32 -317 86 -19 28 -33 52 -32 54 2 1 32 -8 67 -19 52 -18 90 -22 190 -22 113 -1 132 2 203 28 42 15 105 46 140 68 79 52 184 159 221 229 l30 54 -32 -27 c-65 -55 -173 -65 -255 -24 -64 32 -164 106 -238 178 -60 58 -142 158 -135 165 2 2 34 -5 70 -16 95 -29 152 -35 237 -22 84 13 178 55 228 102 51 49 105 138 132 220 20 62 24 92 23 189 -1 63 -6 126 -12 140 -9 21 -11 16 -11 -37 -2 -160 -115 -293 -287 -338 -119 -31 -185 -6 -304 120 -40 42 -42 47 -20 41 99 -25 157 -28 215 -11 66 19 305 136 323 158 11 13 6 14 -32 10 -48 -6 -185 21 -213 42 -14 10 -5 22 64 91 146 144 195 304 184 594 l-3 75 -14 -75 c-32 -177 -115 -307 -246 -384 -52 -30 -91 -39 -169 -39 -106 1 -169 35 -302 162 -88 84 -88 88 16 90 26 1 47 5 47 9 0 5 -30 14 -67 21 -38 8 -77 18 -88 24 -17 9 -11 12 41 23 125 25 245 104 364 237 l24 28 -39 -18 c-49 -21 -185 -23 -265 -4 -30 7 -96 33 -146 57 -114 54 -216 151 -321 304 -40 58 -88 121 -108 140 -19 19 -35 37 -35 41 0 4 24 13 53 19 73 18 134 50 194 104 41 37 65 74 127 195 42 82 76 152 76 156 0 4 -35 -22 -77 -58 -103 -84 -158 -114 -262 -139 -67 -16 -115 -20 -221 -19 -74 1 -151 5 -170 10 -20 4 -72 35 -115 67 -145 107 -287 151 -457 141 -49 -2 -88 -1 -88 3 0 20 103 160 147 202 56 52 125 78 205 78 81 0 159 -54 194 -135 13 -29 13 -30 15 -5 2 43 -2 63 -27 111 -27 55 -74 96 -150 133 -72 35 -135 46 -279 48 -132 1 -176 -3 -345 -33 -238 -43 -347 -93 -424 -196 l-39 -53 -16 30 c-34 63 -107 153 -146 180 -22 15 -79 51 -127 79 -54 32 -101 69 -125 98 -35 43 -38 51 -37 107 1 88 28 169 71 217 39 43 176 129 205 129 9 0 20 5 23 10 8 13 -59 11 -161 -5z m-244 -155 c0 -5 -4 -10 -10 -10 -5 0 -10 5 -10 10 0 6 5 10 10 10 6 0 10 -4 10 -10z m-641 -247 c0 -29 -2 -33 -8 -18 -7 18 -4 55 5 55 2 0 4 -17 3 -37z m18 -25 c-3 -8 -6 -5 -6 6 -1 11 2 17 5 13 3 -3 4 -12 1 -19z m675 -53 c3 -13 1 -22 -3 -19 -9 5 -13 44 -5 44 2 0 6 -11 8 -25z m-382 -61 c-6 -38 -14 -71 -17 -74 -7 -7 4 127 12 141 14 22 15 0 5 -67z m396 -11 c-3 -4 -6 -1 -6 5 0 19 -20 14 -21 -5 0 -12 -2 -13 -6 -5 -3 7 1 20 8 28 11 14 13 14 22 -1 5 -9 6 -19 3 -22z m33 -60 c7 -14 7 -23 1 -23 -6 0 -10 -4 -10 -10 0 -5 7 -10 15 -10 8 0 15 5 15 12 0 6 11 1 24 -11 15 -14 26 -18 29 -11 4 7 5 6 3 -1 -1 -7 -12 -13 -24 -14 -11 -1 -19 2 -16 6 2 4 0 10 -5 13 -16 10 -20 -22 -5 -35 8 -7 13 -18 10 -25 -3 -8 -2 -13 2 -13 26 4 34 -1 22 -16 -8 -9 -9 -15 -2 -15 23 0 23 22 1 46 -30 32 -18 42 15 11 23 -21 24 -26 11 -43 -19 -25 -19 -40 -1 -25 12 10 13 8 9 -9 l-6 -21 -21 20 c-30 28 -68 100 -59 114 4 7 0 8 -12 3 -16 -6 -17 -2 -12 30 5 32 4 34 -10 22 -14 -11 -15 -10 -9 10 8 23 -3 29 -20 12 -7 -7 -11 -6 -11 4 0 8 4 13 9 10 4 -3 8 0 8 5 0 18 37 -10 49 -36z m231 -38 c11 -13 10 -14 -4 -9 -9 4 -16 3 -15 -2 3 -20 -2 -28 -10 -15 -6 9 -5 19 2 27 15 17 12 17 27 -1z m1030 5 c0 -5 -4 -10 -10 -10 -5 0 -10 5 -10 10 0 6 5 10 10 10 6 0 10 -4 10 -10z m-132 -34 c4 6 16 14 27 17 16 6 16 4 -4 -12 -29 -23 -51 -17 -50 13 0 19 1 19 10 -4 6 -14 13 -20 17 -14z m-74 -11 c-17 -13 -16 -14 21 -10 l40 5 -35 -9 c-44 -12 -73 1 -41 18 12 7 19 17 15 24 -5 9 -3 8 6 0 12 -11 11 -15 -6 -28z m-784 10 c0 -8 -2 -15 -4 -15 -2 0 -6 7 -10 15 -3 8 -1 15 4 15 6 0 10 -7 10 -15z m-24 -16 c1 -5 2 -13 3 -18 0 -5 10 -13 21 -16 11 -3 20 -11 20 -16 0 -6 -5 -7 -12 -3 -7 4 -8 3 -4 -4 4 -7 4 -12 -1 -12 -13 0 -54 70 -47 81 6 11 18 4 20 -12z m532 9 c-2 -7 -7 -17 -13 -21 -5 -5 4 -6 20 -3 17 4 25 3 19 -1 -6 -4 -25 -29 -43 -55 -17 -27 -36 -48 -41 -48 -6 0 -10 -7 -10 -16 0 -8 -4 -12 -10 -9 -6 4 -3 16 7 31 14 21 14 27 3 34 -8 5 -18 6 -22 4 -4 -3 -8 2 -8 10 0 16 -38 42 -47 33 -2 -3 5 -10 16 -17 13 -7 21 -21 21 -38 0 -20 3 -23 10 -12 5 8 11 12 14 9 3 -3 -20 -30 -52 -60 -31 -29 -56 -56 -54 -59 2 -2 -2 -6 -9 -9 -9 -3 -8 5 4 23 11 16 13 25 6 24 -7 -2 -16 8 -20 22 -7 24 -7 24 -9 -5 l-2 -30 -9 27 c-6 15 -16 26 -22 24 -7 -1 -9 -1 -4 1 4 3 5 8 2 13 -3 4 3 14 13 21 15 13 16 12 3 -4 -12 -15 -11 -17 10 -15 18 2 25 -2 27 -20 2 -12 7 -20 12 -17 5 3 3 25 -4 49 -13 43 -13 43 20 65 18 13 38 20 43 16 6 -3 11 0 11 8 0 20 31 31 44 16 7 -8 7 -10 1 -6 -6 3 -17 2 -24 -2 -8 -6 -3 -12 19 -21 24 -10 29 -17 25 -34 -5 -17 -4 -18 4 -6 9 13 11 13 11 1 0 -13 2 -13 13 -2 10 11 10 14 0 18 -7 3 -13 9 -13 15 0 7 5 6 14 -1 9 -7 17 -8 20 -3 8 13 -19 23 -39 16 -11 -5 -13 -2 -9 9 3 9 12 13 20 10 8 -3 14 -2 13 3 -3 16 1 24 11 24 6 0 9 -6 8 -12z m162 7 c0 -2 -10 -9 -22 -15 -22 -11 -22 -10 -4 4 21 17 26 19 26 11z m76 -12 c0 -9 10 -23 24 -30 l25 -13 -27 0 c-31 0 -61 -26 -51 -43 3 -7 3 -9 -1 -5 -5 4 -21 -6 -36 -22 l-29 -29 1 29 c1 27 18 45 18 20 0 -5 5 -10 11 -10 6 0 8 10 5 23 -3 12 -3 16 0 9 4 -9 13 -5 31 14 13 14 22 28 20 30 -7 7 -67 -27 -67 -39 0 -8 -4 -7 -12 1 -18 18 -27 15 -21 -8 4 -14 0 -20 -12 -20 -15 0 -16 2 -4 17 12 15 12 16 -4 10 -10 -4 -16 -3 -12 2 3 5 1 12 -5 16 -5 3 -10 11 -10 16 0 6 8 3 17 -6 16 -16 18 -16 36 6 15 18 20 20 27 9 7 -12 12 -12 35 0 14 8 23 20 21 27 -3 7 1 13 8 13 8 0 13 -8 12 -17z m-1032 -73 c5 -21 4 -21 -8 5 -9 17 -15 41 -15 55 1 23 2 23 9 -5 5 -16 11 -41 14 -55z m123 65 c9 -10 24 -13 37 -10 15 5 17 4 7 -3 -9 -7 -10 -12 -2 -16 6 -4 9 -10 7 -14 -2 -4 2 -15 9 -25 8 -12 15 -14 20 -8 3 6 1 11 -4 11 -16 0 -13 27 4 33 8 4 37 -15 72 -48 31 -30 59 -52 62 -48 4 3 0 8 -6 10 -7 3 -13 11 -13 18 0 7 -6 15 -12 18 -10 3 -10 8 2 21 13 16 12 20 -3 31 -21 15 -22 25 -1 25 8 0 13 -4 10 -8 -3 -5 4 -15 15 -23 11 -8 29 -34 40 -59 16 -35 22 -42 30 -30 7 11 9 6 7 -20 -2 -22 1 -34 9 -33 6 1 14 -4 17 -13 4 -10 2 -13 -6 -8 -7 5 -9 -1 -4 -19 3 -15 1 -29 -6 -33 -7 -5 -8 -3 -4 5 5 7 0 19 -10 27 -11 9 -13 13 -6 9 6 -3 12 -1 12 4 0 6 -4 11 -10 11 -5 0 -10 6 -10 13 -1 6 -7 26 -16 42 -14 30 -13 8 2 -30 7 -20 7 -20 -15 -1 -21 19 -23 19 -52 2 -48 -29 -82 -35 -98 -19 -7 8 -10 17 -6 21 4 4 10 1 12 -5 3 -7 15 -13 28 -13 30 0 47 21 30 37 -7 6 -14 11 -16 9 -2 -1 -12 6 -21 16 -10 10 -13 18 -7 18 5 0 8 4 5 9 -7 10 -46 3 -46 -8 0 -4 -7 -16 -15 -27 -15 -18 -15 -18 -8 0 4 13 3 17 -5 12 -6 -3 -13 -2 -17 4 -4 6 -10 8 -15 5 -5 -3 -8 11 -7 32 2 20 9 39 16 41 8 3 12 -1 9 -9 -5 -14 19 -45 27 -37 12 12 -23 57 -52 69 -18 7 -30 16 -27 21 7 11 13 10 31 -7z m863 1 c0 -3 -4 -8 -10 -11 -5 -3 -10 -1 -10 4 0 6 5 11 10 11 6 0 10 -2 10 -4z m-123 -48 c-2 -12 -11 -22 -21 -24 -22 -3 -55 -44 -57 -69 -1 -17 -2 -16 -8 5 -7 23 5 57 16 46 6 -6 53 44 53 55 0 5 4 9 10 9 5 0 8 -10 7 -22z m239 -17 c-4 -6 -13 -8 -20 -5 -7 3 -19 -3 -27 -12 -13 -16 -12 -17 5 -10 15 5 13 0 -8 -19 -15 -14 -32 -25 -38 -25 -7 0 -3 7 8 15 10 8 15 15 10 15 -14 0 26 41 49 50 23 9 30 6 21 -9z m-1078 -56 c-3 -3 -9 2 -12 12 -6 14 -5 15 5 6 7 -7 10 -15 7 -18z m877 -2 c5 -21 8 -24 16 -12 5 9 9 9 9 2 0 -26 -20 -22 -35 7 -8 16 -11 30 -6 30 5 0 12 -12 16 -27z m-677 -6 c9 3 14 2 9 -2 -4 -5 0 -17 10 -27 23 -26 3 -22 -29 6 -15 12 -24 26 -21 30 4 4 9 3 11 -3 2 -5 11 -7 20 -4z m605 -1 c9 -7 17 -17 17 -21 0 -4 -7 -1 -16 6 -15 12 -16 11 -9 -11 7 -22 6 -23 -9 -11 -16 13 -23 51 -8 51 4 0 15 -7 25 -14z m40 -6 c-3 -11 -7 -20 -8 -20 -1 0 -5 9 -8 20 -3 12 0 20 8 20 8 0 11 -8 8 -20z m10 -45 c-10 -7 -20 -11 -23 -8 -3 3 1 8 8 10 6 3 12 14 12 26 1 20 1 21 11 4 9 -15 7 -21 -8 -32z m-323 14 c0 -6 -4 -7 -10 -4 -5 3 -10 11 -10 16 0 6 5 7 10 4 6 -3 10 -11 10 -16z m206 6 c-3 -8 -2 -15 3 -15 5 0 11 -9 14 -21 4 -15 -4 -31 -29 -55 -19 -19 -34 -30 -34 -24 0 5 11 20 25 32 14 12 24 31 24 42 -1 17 -2 18 -6 4 -7 -29 -21 -21 -17 10 2 15 1 20 -2 12 -7 -16 -24 -30 -37 -30 -4 0 6 14 23 30 34 33 45 38 36 15z m244 6 c0 -5 -9 -13 -20 -16 -11 -3 -20 -11 -20 -17 0 -6 -3 -8 -7 -5 -3 4 2 16 12 27 19 21 35 26 35 11z m-651 -41 c4 0 7 -10 8 -22 0 -13 -1 -17 -4 -10 -3 6 -8 10 -13 7 -12 -8 -41 25 -33 38 4 6 9 2 14 -11 11 -29 20 -28 16 1 -2 12 -2 16 0 10 3 -7 8 -13 12 -13z m361 18 c0 -4 -7 -8 -15 -8 -8 0 -15 4 -15 8 0 5 7 9 15 9 8 0 15 -4 15 -9z m83 -14 c-4 -12 0 -14 22 -10 22 4 25 3 15 -9 -16 -19 -50 -2 -50 26 0 11 4 18 10 14 5 -3 7 -12 3 -21z m-213 -3 c-5 -11 -8 -26 -5 -33 3 -7 -1 -22 -9 -33 -9 -11 -16 -15 -16 -8 0 6 5 15 10 18 16 10 12 25 -5 19 -21 -8 -19 2 7 31 26 30 32 32 18 6z m-30 0 c0 -6 -5 -13 -10 -16 -6 -4 -8 -16 -4 -27 4 -15 2 -19 -7 -16 -8 3 -15 17 -17 31 -3 22 0 26 14 20 12 -4 15 -3 10 5 -4 7 -2 12 3 12 6 0 11 -4 11 -9z m-266 -16 c3 -8 1 -15 -4 -15 -6 0 -10 7 -10 15 0 8 2 15 4 15 2 0 6 -7 10 -15z m-15 -39 c-2 -2 -13 8 -23 22 l-19 27 24 -22 c12 -12 21 -24 18 -27z m56 6 c-3 -3 -11 0 -18 7 -9 10 -8 11 6 5 10 -3 15 -9 12 -12z m56 -19 c13 -16 12 -17 -3 -4 -10 7 -18 15 -18 17 0 8 8 3 21 -13z m70 -18 c5 4 9 1 9 -4 0 -6 -4 -11 -8 -11 -12 0 -32 22 -32 35 0 5 5 2 11 -8 6 -9 14 -15 20 -12z m72 13 c2 -7 0 -21 -5 -31 -6 -13 -5 -23 4 -35 8 -9 8 -13 1 -9 -6 4 -14 1 -16 -5 -3 -7 -4 1 -3 18 2 17 6 36 10 43 4 6 2 11 -3 11 -6 0 -11 5 -11 10 0 14 17 12 23 -2z m171 -53 c-4 -8 -11 -15 -16 -15 -6 0 -5 6 2 15 7 8 14 15 16 15 2 0 1 -7 -2 -15z m-994 -75 c4 -7 16 -9 28 -6 11 4 23 2 27 -4 3 -5 16 -11 28 -11 16 -1 17 -3 5 -6 -9 -2 -15 -10 -12 -18 3 -7 1 -16 -5 -20 -6 -3 -11 1 -11 11 0 16 -1 16 -15 -2 -8 -10 -15 -27 -15 -36 0 -21 -26 -24 -33 -5 -4 9 -8 8 -16 -3 -9 -13 -11 -12 -12 5 -1 17 -2 17 -6 3 -5 -20 -43 -25 -43 -5 0 7 -3 8 -8 2 -8 -11 -21 -13 -107 -16 -60 -2 -335 -52 -381 -70 -37 -13 -49 -11 -34 6 7 9 21 13 31 10 9 -3 20 -1 24 4 4 7 -1 8 -11 4 -24 -9 -9 13 18 28 15 8 19 8 14 0 -4 -6 -2 -11 3 -11 6 0 11 8 11 17 0 9 3 14 6 10 4 -3 14 2 23 13 24 27 133 82 153 76 10 -2 16 0 12 5 -3 5 1 9 10 9 8 0 17 -6 19 -12 3 -8 6 -7 6 4 1 9 9 17 19 17 36 1 94 10 100 16 12 11 164 -2 172 -15z m197 -87 c17 -16 21 -24 11 -20 -11 4 -18 2 -18 -6 0 -9 -2 -9 -8 1 -5 7 -17 10 -28 7 -18 -6 -18 -6 1 11 16 13 16 15 3 11 -12 -4 -18 1 -21 16 -3 15 -5 12 -6 -10 0 -18 -6 -33 -12 -33 -6 0 -8 9 -4 20 4 11 2 20 -4 20 -6 0 -11 -9 -11 -20 0 -16 -6 -20 -30 -18 -22 2 -30 7 -30 21 0 16 3 17 14 8 11 -9 17 -8 29 4 9 8 20 15 26 15 6 0 11 4 11 10 0 5 -8 7 -17 4 -15 -5 -15 -4 -4 4 18 13 56 -5 98 -45z m2543 16 c-12 -16 -24 -28 -27 -25 -3 3 2 12 11 21 9 9 16 21 16 26 0 5 5 9 11 9 6 0 1 -14 -11 -31z m-1023 -12 c-8 -6 -7 -7 3 -4 8 2 15 10 14 18 -1 10 12 14 48 14 26 1 48 -3 48 -8 0 -4 6 -5 13 0 6 4 22 8 33 8 21 1 21 0 6 -20 -14 -18 -22 -21 -49 -14 -19 4 -33 3 -33 -2 0 -5 -15 -9 -33 -7 -18 1 -38 -2 -45 -6 -7 -4 -12 -2 -12 4 0 7 -7 10 -15 6 -19 -7 -19 -1 2 24 12 14 19 16 25 8 4 -7 2 -16 -5 -21z m-34 16 c-7 -2 -13 -12 -13 -21 0 -15 -2 -15 -10 -2 -9 15 4 30 25 29 6 0 4 -3 -2 -6z m263 -6 c8 3 14 1 14 -4 0 -5 7 -10 15 -11 8 -1 22 -3 30 -4 27 -3 6 -11 -35 -13 -24 -2 -40 2 -40 9 0 6 -5 4 -10 -4 -6 -9 -10 -11 -10 -3 0 7 -7 10 -17 7 -13 -4 -10 1 7 16 13 12 26 17 28 11 2 -5 10 -7 18 -4z m747 -22 c-3 -9 -8 -14 -10 -11 -3 3 -2 9 2 15 9 16 15 13 8 -4z m-2640 -47 c-60 -10 -223 -15 -228 -7 -6 9 48 15 150 18 44 1 81 4 83 6 2 2 11 1 20 -3 11 -4 3 -9 -25 -14z m1757 12 c3 -1 10 -2 15 -1 6 1 -1 -8 -15 -20 -14 -12 -24 -26 -22 -30 1 -5 -3 -9 -9 -9 -5 0 -8 -4 -5 -8 10 -16 -52 -52 -84 -50 -16 1 -30 3 -30 4 0 1 3 9 6 18 5 14 8 14 30 -1 15 -9 24 -11 24 -4 0 6 -5 11 -11 11 -5 0 -7 5 -3 11 4 7 10 7 16 1 12 -12 40 -4 32 9 -3 5 0 9 6 9 6 0 8 5 4 12 -5 8 -10 6 -19 -5 -10 -14 -13 -14 -25 4 -8 10 -21 19 -29 19 -11 0 -10 4 5 15 25 19 40 19 24 0 -10 -12 -10 -16 1 -19 43 -13 88 10 60 31 -14 10 -14 11 4 8 11 -2 22 -4 25 -5z m745 0 c-11 -5 -27 -9 -35 -9 -13 -1 -13 0 0 9 8 5 24 9 35 9 l20 0 -20 -9z m-866 -4 c-8 -8 -60 -15 -55 -8 2 4 17 9 32 10 15 1 25 0 23 -2z m171 -18 c0 -18 -2 -20 -9 -8 -6 8 -7 18 -5 22 9 14 14 9 14 -14z m139 13 c11 -1 10 -5 -5 -16 -16 -12 -21 -12 -29 -1 -9 11 -12 11 -23 0 -16 -17 -15 -25 2 -18 8 3 22 -8 34 -28 12 -18 22 -27 22 -19 0 11 3 11 15 1 8 -6 20 -8 26 -4 8 4 9 3 5 -4 -4 -7 -2 -12 3 -12 6 0 11 -5 11 -11 0 -8 -4 -8 -15 1 -8 6 -20 8 -26 4 -8 -4 -9 -3 -5 4 4 7 2 12 -3 12 -6 0 -12 -4 -12 -10 -1 -5 -2 -14 -3 -19 0 -5 -4 -13 -8 -17 -4 -3 -5 3 -3 15 6 31 -5 57 -16 39 -7 -10 -9 -10 -9 0 0 6 -4 12 -10 12 -5 0 -7 -7 -4 -15 4 -8 1 -15 -5 -15 -11 0 -15 20 -12 49 2 7 -2 10 -8 6 -6 -3 -11 -1 -11 6 0 8 -4 8 -15 -1 -13 -10 -15 -9 -15 9 0 23 10 27 26 11 7 -7 16 -4 28 9 9 10 25 18 34 16 9 -2 23 -4 31 -4z m65 -7 c20 -8 21 -21 1 -21 -8 0 -15 4 -15 8 0 4 -8 10 -17 12 -16 4 -16 5 -1 6 9 0 23 -2 32 -5z m541 -4 c-3 -5 -11 -10 -16 -10 -6 0 -7 5 -4 10 3 6 11 10 16 10 6 0 7 -4 4 -10z m-435 -12 c0 -9 4 -8 10 2 5 8 10 11 10 6 0 -5 -7 -17 -16 -27 -14 -15 -13 -19 12 -38 24 -19 51 -20 40 -2 -3 4 5 7 18 7 18 0 22 -4 18 -23 -2 -13 -9 -23 -14 -23 -6 0 -8 7 -4 15 3 8 1 15 -4 15 -6 0 -10 -5 -10 -11 0 -12 -42 -1 -51 14 -4 5 -9 3 -10 -7 -4 -15 -6 -14 -16 3 -11 18 -10 20 5 15 14 -5 13 -3 -3 11 -14 12 -16 19 -7 22 13 5 17 23 5 23 -5 0 -17 -7 -28 -16 -17 -13 -18 -16 -5 -24 10 -7 11 -10 2 -10 -22 0 -27 32 -7 46 24 17 55 18 55 2z m229 2 c-14 -4 -57 -6 -95 -5 -55 2 -75 -2 -99 -18 l-30 -20 25 25 c23 24 31 26 125 26 60 0 90 -3 74 -8z m-559 -9 c0 -5 3 -17 6 -25 5 -13 2 -15 -12 -10 -11 4 -16 4 -12 -1 11 -12 -18 -35 -44 -34 -15 0 -18 3 -8 6 14 5 34 30 35 43 2 22 35 41 35 21z m-203 -31 c-1 -10 -5 -16 -10 -13 -5 3 -6 -5 -2 -18 4 -13 4 -21 0 -17 -13 12 -15 59 -2 51 7 -4 8 0 4 11 -4 9 -3 15 2 11 6 -3 9 -14 8 -25z m58 20 c3 -5 1 -10 -4 -10 -6 0 -11 5 -11 10 0 6 2 10 4 10 3 0 8 -4 11 -10z m-190 -10 c-3 -5 -12 -10 -18 -10 -7 0 -6 4 3 10 19 12 23 12 15 0z m580 0 c3 -5 1 -10 -4 -10 -6 0 -11 5 -11 10 0 6 2 10 4 10 3 0 8 -4 11 -10z m185 6 c0 -2 -11 -6 -25 -8 -13 -3 -22 -1 -19 3 5 9 44 13 44 5z m194 -10 c-3 -7 -18 -13 -34 -12 -40 1 -38 14 3 19 17 2 33 5 34 5 1 1 0 -4 -3 -12z m136 4 c0 -5 -5 -10 -11 -10 -5 0 -7 5 -4 10 3 6 8 10 11 10 2 0 4 -4 4 -10z m-3090 -20 c0 -5 -2 -10 -4 -10 -3 0 -8 5 -11 10 -3 6 -1 10 4 10 6 0 11 -4 11 -10z m2395 0 c-9 -14 -45 -32 -45 -23 0 7 24 22 48 32 2 0 0 -3 -3 -9z m399 2 c3 -5 -1 -9 -9 -9 -8 0 -12 4 -9 9 3 4 7 8 9 8 2 0 6 -4 9 -8z m210 -4 c-5 -8 -1 -9 12 -4 15 6 16 4 7 -5 -14 -14 -47 -4 -38 11 3 5 11 10 16 10 6 0 7 -5 3 -12z m80 -1 c4 4 4 -1 0 -10 -3 -10 -12 -16 -18 -14 -6 2 -19 -5 -28 -16 -10 -11 -18 -15 -18 -8 0 6 9 19 19 28 11 9 17 21 14 27 -4 6 0 5 9 -1 8 -7 18 -10 22 -6z m-1919 -7 c-3 -5 -1 -10 6 -10 7 0 10 -2 7 -5 -3 -3 -13 -2 -22 1 -14 5 -15 9 -4 15 17 11 20 11 13 -1z m-156 -4 c-15 -13 -49 -25 -49 -17 0 5 8 12 18 14 24 6 36 8 31 3z m32 -9 c-6 -8 -29 -20 -52 -27 -34 -12 -42 -12 -49 0 -5 8 -7 17 -4 19 3 3 9 -1 13 -8 7 -10 17 -9 52 7 54 25 54 25 40 9z m47 1 c-4 -12 14 -38 27 -38 3 0 4 10 0 23 -5 20 -5 20 6 3 9 -15 5 -24 -32 -62 -23 -24 -46 -41 -50 -39 -4 3 -10 -5 -13 -18 -8 -28 -81 -108 -91 -99 -4 4 -4 -4 -1 -18 7 -24 7 -25 -10 -5 -16 20 -16 20 -9 -4 5 -18 4 -22 -6 -16 -8 6 -11 4 -7 -6 3 -8 0 -23 -7 -32 -11 -15 -14 -16 -25 -2 -11 13 -10 14 4 9 9 -3 16 -1 16 6 0 6 -4 8 -10 5 -5 -3 -10 0 -10 7 0 8 -5 6 -11 -5 -8 -14 -7 -23 6 -37 10 -11 12 -20 7 -24 -6 -3 -12 -1 -14 6 -3 7 -19 -4 -38 -25 -18 -20 -39 -37 -46 -37 -7 0 -14 -5 -16 -12 -3 -7 -10 -8 -17 -3 -11 6 -9 10 5 19 11 5 24 10 29 11 21 0 14 19 -8 22 -14 2 -31 -5 -43 -18 -18 -20 -18 -21 0 -34 17 -13 16 -15 -13 -29 -36 -19 -45 -20 -35 -4 4 7 3 8 -5 4 -9 -6 -9 -11 0 -22 10 -12 9 -13 -5 -8 -11 4 -16 2 -14 -7 2 -10 -5 -13 -22 -11 -20 2 -22 1 -10 -8 13 -9 13 -11 0 -19 -10 -7 -17 -6 -22 2 -5 8 -8 7 -8 -5 0 -9 6 -18 12 -20 8 -3 1 -12 -15 -22 -15 -10 -27 -23 -27 -28 0 -6 -14 -27 -30 -48 -17 -21 -28 -45 -24 -53 3 -8 1 -18 -5 -22 -6 -3 -9 0 -5 8 3 8 0 18 -7 23 -7 4 -10 3 -6 -3 4 -6 -2 -21 -13 -33 -11 -12 -22 -31 -25 -41 -13 -39 -39 -15 -29 26 6 24 7 24 20 8 13 -17 13 -17 14 0 0 11 -9 21 -19 24 -15 4 -18 12 -16 34 2 16 0 27 -4 24 -5 -3 -12 2 -15 11 -3 8 -11 12 -17 8 -8 -4 -9 -3 -5 4 10 17 53 11 52 -8 -1 -18 26 -20 32 -2 2 8 -2 10 -14 5 -11 -4 -15 -3 -10 5 3 6 -2 15 -11 21 -16 9 -15 11 7 12 22 1 22 2 -7 10 -37 11 -36 39 2 39 13 0 26 7 29 16 9 24 7 56 -3 50 -5 -3 -7 -16 -3 -28 3 -14 2 -19 -6 -14 -24 14 -4 85 41 150 12 17 23 33 25 36 2 2 6 -1 10 -7 6 -9 11 -6 20 7 10 16 9 18 -3 14 -8 -4 -15 -2 -15 4 0 15 26 33 35 24 5 -4 5 -1 1 6 -10 17 12 42 30 35 9 -3 12 0 9 10 -8 18 89 102 106 91 7 -4 9 -3 6 3 -3 5 8 18 25 28 21 12 28 14 23 4 -5 -8 3 -2 18 14 14 15 36 27 48 27 21 0 21 -1 6 -18 -21 -23 -22 -39 -2 -22 12 10 18 10 30 0 9 -7 15 -8 15 -2 0 5 -7 12 -15 16 -8 3 -12 12 -9 21 4 9 1 15 -7 15 -8 1 0 7 16 14 25 11 33 11 47 -1 12 -11 18 -11 24 -2 4 7 3 10 -3 6 -6 -4 -13 0 -17 8 -3 9 0 15 10 15 8 0 17 -6 20 -14 4 -11 13 -12 42 -4 20 5 41 14 47 19 12 12 25 11 25 -1 0 -5 -6 -10 -12 -10 -7 -1 -26 -7 -43 -15 -16 -8 -21 -13 -9 -10 13 3 27 -2 38 -14 20 -22 50 -17 41 6 -3 10 -1 13 9 10 8 -3 17 1 20 9 8 20 -11 17 -33 -5 -16 -16 -22 -17 -31 -6 -9 10 -4 15 20 20 22 5 30 11 26 22 -3 8 -4 19 0 24 8 13 16 11 12 -3z m1826 -19 c-15 -17 -15 -19 0 -25 9 -3 13 -10 10 -16 -3 -5 -13 1 -22 13 -11 16 -12 24 -4 27 7 2 12 10 12 18 0 9 5 12 11 9 7 -5 4 -13 -7 -26z m-824 11 c0 -5 -4 -10 -10 -10 -5 0 -10 5 -10 10 0 6 5 10 10 10 6 0 10 -4 10 -10z m250 6 c0 -3 -4 -8 -10 -11 -5 -3 -10 -1 -10 4 0 6 5 11 10 11 6 0 10 -2 10 -4z m66 -11 c-1 -8 -5 -17 -8 -21 -5 -4 -4 16 1 34 3 9 9 -1 7 -13z m447 -2 c-4 -10 -2 -14 4 -10 6 4 13 0 16 -7 5 -12 0 -13 -25 -4 -29 10 -30 12 -13 25 24 17 26 16 18 -4z m109 -27 c-2 -4 2 -12 9 -17 10 -6 8 -8 -7 -7 -14 1 -20 8 -19 18 2 8 4 24 5 35 l1 20 8 -20 c5 -11 6 -24 3 -29z m-502 24 c0 -5 -5 -10 -11 -10 -5 0 -7 5 -4 10 3 6 8 10 11 10 2 0 4 -4 4 -10z m105 -31 c5 -5 -6 -4 -25 2 -45 15 -54 24 -15 15 17 -4 34 -12 40 -17z m280 0 c11 -17 -13 -17 -30 1 -16 18 -16 18 4 13 12 -3 24 -9 26 -14z m190 -9 c-3 -5 -12 -10 -18 -10 -7 0 -6 4 3 10 19 12 23 12 15 0z m-139 -26 c-3 -8 0 -14 6 -14 6 0 9 -3 5 -6 -3 -3 -14 -1 -24 5 -10 6 -13 11 -6 11 7 0 10 7 6 17 -4 11 -3 14 6 9 7 -5 10 -14 7 -22z m-3609 10 c-3 -3 -12 -4 -19 -1 -8 3 -5 6 6 6 11 1 17 -2 13 -5z m71 -1 c-10 -2 -28 -2 -40 0 -13 2 -5 4 17 4 22 1 32 -1 23 -4z m3512 3 c0 -3 -4 -8 -10 -11 -5 -3 -10 -1 -10 4 0 6 5 11 10 11 6 0 10 -2 10 -4z m-3720 -26 c0 -7 -112 -2 -119 6 -2 2 24 3 57 2 34 -1 62 -5 62 -8z m60 -2 c0 -4 -7 -8 -15 -8 -8 0 -15 4 -15 8 0 5 7 9 15 9 8 0 15 -4 15 -9z m43 5 c-7 -2 -19 -2 -25 0 -7 3 -2 5 12 5 14 0 19 -2 13 -5z m33 -8 c-11 -8 -25 -15 -30 -15 -6 1 0 7 14 15 32 19 40 18 16 0z m44 5 c0 -5 -5 -10 -11 -10 -5 0 -7 5 -4 10 3 6 8 10 11 10 2 0 4 -4 4 -10z m3040 -114 c0 -2 -7 -7 -16 -10 -8 -3 -12 -2 -9 4 6 10 25 14 25 6z m117 -83 c0 -10 -4 -10 -16 -1 -9 7 -18 13 -20 15 -2 1 5 1 16 0 11 0 20 -7 20 -14z m-52 -61 c-3 -3 -11 0 -18 7 -9 10 -8 11 6 5 10 -3 15 -9 12 -12z m-1591 -30 c-36 -33 -77 -62 -87 -62 -5 0 8 13 31 29 22 16 43 34 47 40 3 6 11 11 17 11 7 0 3 -8 -8 -18z m-2047 -27 c-38 -19 -75 -39 -83 -46 -8 -6 -14 -8 -14 -3 0 5 -4 4 -8 -1 -11 -15 -83 -68 -87 -63 -2 2 4 13 13 26 18 23 205 121 232 121 8 0 -16 -15 -53 -34z m1963 30 c0 -2 -10 -10 -22 -16 -21 -11 -22 -11 -9 4 13 16 31 23 31 12z m336 -44 c0 -11 -5 -17 -13 -14 -10 4 -11 9 -2 19 15 18 15 18 15 -5z m-2411 -1 c3 -5 -8 -16 -25 -25 -26 -13 -30 -14 -30 -1 0 8 8 20 18 25 22 13 29 13 37 1z m1125 -10 c0 -5 -4 -10 -10 -10 -5 0 -10 5 -10 10 0 6 5 10 10 10 6 0 10 -4 10 -10z m246 -27 c5 3 10 -3 10 -13 0 -10 -4 -16 -9 -13 -5 3 -22 -9 -39 -26 -31 -32 -48 -39 -48 -21 0 6 -4 10 -10 10 -5 0 -10 -7 -10 -15 0 -14 -11 -19 -26 -12 -3 1 -10 -6 -15 -16 -7 -12 -17 -16 -30 -12 -10 4 -19 3 -19 -2 0 -5 -9 -9 -19 -9 -11 0 -17 4 -15 8 3 4 12 8 20 8 8 0 14 5 14 10 0 7 6 7 20 0 20 -11 25 -5 21 28 -1 7 5 22 14 35 l17 22 -7 -22 c-3 -13 -2 -23 3 -23 13 0 23 26 17 43 -3 6 4 18 15 25 17 10 20 10 20 -3 0 -8 -6 -15 -12 -16 -10 0 -10 -2 0 -6 6 -2 12 -11 12 -19 0 -8 4 -14 9 -14 15 0 23 18 11 25 -5 3 -10 12 -10 18 0 7 4 6 10 -3 9 -13 10 -13 10 0 0 13 1 13 10 0 5 -8 13 -11 17 -6 4 4 0 13 -9 20 -10 7 -15 16 -11 19 3 4 11 -1 18 -10 7 -9 16 -13 21 -10z m-129 5 c-2 -7 -14 -11 -27 -10 -21 4 -23 2 -10 -13 7 -9 9 -15 4 -13 -5 1 -19 -3 -30 -10 -12 -6 -25 -8 -29 -4 -5 4 -5 2 -1 -5 3 -6 2 -15 -4 -18 -8 -5 -7 -12 2 -23 7 -10 8 -14 3 -9 -4 4 -20 -3 -34 -15 l-26 -23 19 23 c13 15 15 22 6 22 -9 0 -7 7 6 21 l19 22 -25 -14 c-14 -7 -29 -12 -35 -11 -5 1 -2 -4 7 -11 10 -8 15 -17 11 -20 -3 -4 -12 -2 -19 4 -8 7 -14 7 -19 -1 -3 -5 1 -10 9 -10 9 0 16 -4 16 -9 0 -11 -56 -32 -64 -24 -2 3 -24 6 -48 7 -83 4 -88 6 -89 24 -1 16 -2 16 -6 0 -5 -19 -53 -26 -53 -7 0 5 5 7 10 4 6 -3 10 -2 10 4 0 5 15 13 32 17 18 3 42 13 54 20 11 8 24 11 27 7 4 -3 7 0 7 8 1 10 4 9 15 -4 7 -11 11 -26 8 -35 -4 -14 -3 -15 5 -3 7 10 7 21 1 32 -10 20 -12 35 -3 26 4 -3 19 0 35 9 16 8 29 12 29 10 0 -3 -12 -12 -26 -19 -22 -12 -24 -15 -10 -20 11 -5 15 -3 10 5 -5 8 -2 9 9 5 12 -5 19 1 23 18 3 14 14 26 23 27 9 0 21 2 28 2 6 1 15 5 19 9 10 10 26 9 20 -1 -2 -4 0 -14 5 -22 8 -12 9 -11 7 5 -3 19 4 22 75 34 5 0 7 -5 4 -11z m874 -11 c-10 -9 -11 -8 -5 6 3 10 9 15 12 12 3 -3 0 -11 -7 -18z m1430 6 c13 -16 12 -17 -3 -4 -10 7 -18 15 -18 17 0 8 8 3 21 -13z m-1451 -23 c0 -5 -5 -10 -11 -10 -5 0 -7 5 -4 10 3 6 8 10 11 10 2 0 4 -4 4 -10z m1597 -15 c14 1 19 -3 16 -12 -6 -17 -23 -17 -23 0 0 8 -3 7 -10 -3 -6 -9 -5 -20 3 -29 7 -8 -3 -5 -20 8 -18 12 -33 25 -33 28 0 3 7 0 15 -7 9 -7 19 -10 23 -6 4 4 -4 17 -18 28 l-25 20 25 -14 c14 -8 35 -14 47 -13z m-1692 -5 c-10 -11 -22 -20 -28 -20 -5 0 1 9 14 20 31 25 37 25 14 0z m-795 -8 c0 -10 -50 -35 -57 -28 -2 2 5 7 16 11 12 3 21 11 21 16 0 5 5 9 10 9 6 0 10 -4 10 -8z m540 -13 c0 -6 -4 -7 -10 -4 -5 3 -10 11 -10 16 0 6 5 7 10 4 6 -3 10 -11 10 -16z m615 12 c-3 -5 4 -27 16 -48 11 -21 14 -29 5 -19 -9 11 -16 25 -16 30 0 6 -5 4 -10 -4 -7 -11 -8 -7 -6 15 4 35 4 35 12 35 3 0 3 -4 -1 -9z m1226 -8 c13 -16 12 -17 -3 -4 -10 7 -18 15 -18 17 0 8 8 3 21 -13z m47 -29 c-4 -3 -12 5 -18 18 -12 22 -12 22 6 6 10 -10 15 -20 12 -24z m104 28 c-7 -5 -10 -17 -7 -28 6 -17 6 -18 -5 -1 -12 19 -6 37 13 37 9 0 8 -3 -1 -8z m-1309 -17 c-3 -9 -8 -14 -10 -11 -3 3 -2 9 2 15 9 16 15 13 8 -4z m1400 -44 c-2 -3 -8 0 -14 6 -6 6 -17 9 -24 7 -7 -3 -15 2 -19 12 -6 15 -4 15 11 3 15 -12 16 -12 9 6 -6 16 -3 15 17 -5 12 -14 22 -27 20 -29z m-1873 35 c0 -2 -8 -10 -17 -17 -16 -13 -17 -12 -4 4 13 16 21 21 21 13z m-679 -19 c-6 -8 -8 -17 -4 -21 4 -4 0 -4 -8 -1 -10 4 -25 -5 -41 -27 -14 -18 -36 -43 -47 -55 -20 -21 -19 -27 1 -24 4 0 5 -6 2 -14 -4 -8 -9 -13 -13 -11 -3 1 -15 6 -26 10 -16 6 -9 17 58 81 69 67 108 98 78 62z m2399 -7 c13 -11 18 -20 12 -20 -7 0 -15 0 -19 0 -5 0 -9 5 -9 10 -3 23 -5 24 -14 10 -5 -8 -10 -10 -10 -4 0 9 9 24 15 24 1 0 12 -9 25 -20z m-1424 -22 c-9 -12 -16 -19 -16 -15 0 11 24 47 28 42 2 -2 -3 -14 -12 -27z m1484 11 c0 -5 4 -9 10 -9 5 0 6 7 3 17 -4 10 -2 14 4 10 13 -8 14 -57 1 -57 -5 0 -7 4 -3 9 3 5 -3 12 -14 16 -11 3 -24 12 -31 20 -9 11 -7 12 9 8 12 -3 21 -9 21 -14z m-1373 -11 c-3 -8 -6 -5 -6 6 -1 11 2 17 5 13 3 -3 4 -12 1 -19z m-66 -68 c6 0 8 9 4 19 -3 11 -1 22 4 26 7 4 8 -1 4 -11 -4 -11 -3 -15 5 -10 6 3 14 1 18 -5 5 -9 11 -7 21 6 7 11 13 15 13 9 0 -5 -7 -18 -15 -28 -14 -18 -15 -18 -21 -1 -7 16 -8 16 -17 0 -6 -12 -6 -20 3 -25 8 -5 7 -9 -5 -13 -10 -5 -14 -3 -9 4 4 7 1 10 -7 7 -8 -3 -13 -15 -11 -26 3 -18 -1 -22 -25 -21 -23 2 -24 2 -5 6 25 5 29 18 7 27 -8 3 -15 11 -15 18 0 10 2 10 8 1 4 -7 13 -9 21 -4 10 7 10 14 -3 39 -17 34 -22 56 -6 32 8 -13 10 -12 12 5 1 11 3 3 5 -17 2 -21 9 -38 14 -38z m49 42 c0 -15 -2 -15 -10 -2 -13 20 -13 33 0 25 6 -3 10 -14 10 -23z m1260 18 c0 -5 -4 -10 -10 -10 -5 0 -10 5 -10 10 0 6 5 10 10 10 6 0 10 -4 10 -10z m-1722 -30 c-22 -30 -35 -41 -22 -17 9 16 36 47 41 47 2 0 -6 -13 -19 -30z m1754 22 c-7 -5 -10 -16 -7 -24 4 -9 2 -18 -2 -21 -5 -3 -8 6 -7 21 2 33 1 32 17 32 9 0 9 -2 -1 -8z m104 -24 c16 -18 20 -26 9 -18 -30 23 -56 50 -47 50 5 0 21 -14 38 -32z m-2597 -18 c-18 -22 -33 -40 -34 -40 -2 0 -8 6 -14 13 -8 11 -6 18 11 33 19 16 20 16 9 2 -20 -27 1 -21 28 7 36 38 36 30 0 -15z m2724 13 c20 -17 20 -17 13 2 -5 15 -4 17 4 9 8 -8 8 -18 -1 -37 l-12 -26 -33 22 c-19 12 -34 26 -34 30 0 9 17 1 43 -21 9 -8 20 -12 24 -8 4 4 -3 16 -17 26 -14 11 -21 20 -16 20 5 0 18 -8 29 -17z m-203 -23 c0 -5 -2 -10 -4 -10 -3 0 -8 5 -11 10 -3 6 -1 10 4 10 6 0 11 -4 11 -10z m-2585 -30 c-3 -5 0 -10 6 -12 7 -2 -2 -23 -21 -51 -26 -40 -34 -45 -50 -37 -29 16 -34 12 -10 -8 19 -16 20 -19 7 -30 -10 -9 -17 -10 -22 -2 -3 5 -1 10 5 10 6 0 8 5 4 11 -13 22 -26 -8 -14 -31 10 -20 10 -22 -3 -17 -10 4 -13 0 -10 -13 3 -12 -4 -23 -24 -35 -15 -9 -39 -32 -51 -52 -13 -19 -26 -33 -29 -30 -6 6 14 45 35 70 17 19 21 33 26 80 3 33 2 33 -18 2 -15 -22 -15 -24 0 -18 15 5 14 3 -1 -21 -10 -15 -24 -25 -31 -22 -8 3 -14 1 -14 -4 0 -6 4 -10 10 -10 12 0 2 -26 -27 -70 -24 -36 -30 -55 -14 -46 5 4 8 -9 7 -27 -2 -26 1 -33 15 -34 10 -1 21 2 24 8 3 5 -1 6 -9 3 -24 -9 -19 8 9 39 14 15 23 27 20 27 -3 0 8 15 24 33 17 17 31 35 31 38 0 14 38 48 45 41 5 -4 5 -1 1 5 -4 7 -2 22 4 34 12 21 12 21 43 -11 17 -18 33 -27 35 -21 2 6 11 11 19 11 13 0 13 -3 3 -15 -7 -8 -11 -15 -9 -16 38 -8 40 -7 28 7 -8 10 -8 14 0 14 6 0 16 11 23 25 6 13 15 22 21 18 6 -4 7 -1 2 7 -5 9 -14 4 -31 -16 -13 -16 -23 -24 -24 -17 0 16 51 63 62 57 4 -3 8 2 8 10 0 9 5 16 10 16 6 0 10 -5 10 -11 0 -5 5 -7 10 -4 6 3 10 1 10 -6 0 -7 3 -9 6 -6 4 4 2 13 -5 20 -9 11 -8 17 4 27 13 11 15 7 15 -26 0 -26 3 -34 9 -25 7 11 11 10 19 -6 7 -12 7 -25 1 -34 -13 -21 -11 -33 5 -20 10 8 16 9 21 1 9 -15 28 -1 21 16 -6 16 32 56 46 48 4 -3 11 2 14 10 3 9 10 16 16 16 5 0 6 -6 1 -12 -11 -19 -13 -40 -4 -56 6 -11 9 -8 10 11 1 15 3 38 4 51 2 22 17 27 17 5 0 -18 58 -90 65 -79 3 5 2 10 -3 10 -6 0 -8 8 -5 19 3 10 -1 22 -7 26 -9 5 -10 1 -5 -16 5 -18 2 -16 -14 9 -12 18 -21 40 -21 50 1 13 4 11 16 -8 13 -21 14 -22 9 -4 -4 14 0 24 10 28 8 3 15 13 15 23 0 13 3 14 12 5 9 -9 8 -15 -4 -24 -11 -9 -13 -20 -8 -38 8 -25 8 -24 9 5 1 22 4 26 13 17 9 -9 9 -19 0 -45 -16 -44 -15 -47 6 -47 16 -1 16 -1 -1 -11 -18 -11 -40 -52 -41 -78 -1 -8 -7 -16 -15 -19 -10 -3 -12 0 -8 11 3 9 1 19 -5 23 -6 4 -8 3 -4 -4 3 -6 1 -14 -5 -17 -5 -4 -8 -13 -5 -20 2 -7 -2 -16 -10 -19 -9 -3 -13 -10 -9 -16 3 -5 -10 -26 -29 -45 -20 -19 -36 -38 -36 -40 0 -3 -3 -4 -7 -2 -5 1 -7 11 -6 22 1 11 -8 0 -19 -24 l-20 -45 -17 33 -17 32 -1 -50 c0 -45 2 -49 18 -41 9 5 23 23 30 39 8 18 16 25 20 19 4 -6 -2 -20 -12 -31 -10 -12 -19 -27 -19 -34 0 -7 -6 -10 -14 -7 -15 6 -30 -22 -19 -38 4 -7 1 -8 -6 -3 -7 4 -11 16 -8 26 3 11 1 17 -3 14 -5 -3 -11 -1 -15 5 -3 5 -1 10 4 10 6 0 11 5 11 11 0 8 -5 7 -15 -1 -9 -7 -29 -14 -45 -15 -27 -2 -35 5 -31 28 2 12 -17 8 -21 -5 -6 -18 -28 0 -28 23 0 13 4 18 12 13 7 -5 9 -2 6 7 -3 8 1 26 9 40 8 13 12 17 9 7 -7 -25 26 -15 36 11 5 14 4 20 -2 16 -6 -3 -10 -14 -10 -23 -1 -16 -1 -16 -10 0 -8 12 -5 26 11 52 16 28 18 39 9 53 -11 17 -11 17 -6 0 6 -18 -12 -57 -26 -57 -4 0 -9 8 -11 18 -2 9 -3 4 -1 -12 5 -39 -13 -61 -35 -44 -14 12 -14 11 -2 -5 12 -15 11 -20 -4 -38 -11 -11 -25 -17 -32 -14 -8 2 -11 0 -8 -5 10 -17 -6 -34 -17 -19 -8 11 -9 10 -4 -4 6 -18 -31 -70 -44 -62 -4 3 -10 -4 -13 -15 -3 -11 -13 -20 -22 -20 -9 0 -14 -4 -11 -9 6 -9 -76 -79 -83 -71 -2 3 -8 -5 -12 -18 -7 -18 -14 -22 -31 -17 -16 4 -19 3 -10 -3 10 -7 1 -19 -36 -51 -48 -40 -70 -52 -57 -31 4 6 -2 7 -16 1 -13 -4 -25 -14 -27 -22 -3 -11 -1 -11 7 1 5 8 14 11 18 6 4 -5 3 -11 -3 -13 -6 -2 -28 -19 -49 -39 l-39 -35 -13 25 c-19 36 -25 32 -21 -10 2 -28 -3 -40 -22 -56 -14 -11 -32 -17 -45 -14 -15 4 -24 -1 -31 -17 -6 -12 -9 -17 -7 -10 1 7 -2 15 -7 18 -6 4 -10 -3 -10 -14 0 -12 -4 -21 -9 -21 -5 0 -12 -8 -14 -17 -3 -11 -5 -5 -6 12 -1 26 -3 27 -12 12 -6 -9 -14 -15 -18 -13 -4 3 -8 0 -8 -7 0 -7 -3 -22 -7 -34 -5 -16 -3 -23 6 -23 7 -1 -3 -9 -22 -20 -19 -11 -29 -19 -21 -20 11 0 10 -5 -4 -20 -19 -21 -32 -20 -19 2 14 22 13 38 -2 38 -7 0 -11 -6 -8 -13 3 -8 -2 -19 -10 -26 -8 -7 -14 -18 -12 -24 1 -7 1 -9 -1 -4 -8 13 -23 7 -17 -7 3 -8 -8 -19 -27 -29 -35 -16 -61 -13 -53 7 3 7 0 23 -6 37 l-10 24 5 -26 c5 -30 -9 -51 -47 -67 -22 -9 -30 -8 -42 3 -10 10 -16 11 -18 3 -2 -6 -16 -12 -31 -14 -17 -2 -25 1 -21 8 4 6 -2 8 -17 3 -18 -5 -20 -4 -9 4 8 5 11 13 8 16 -10 11 -28 -4 -28 -23 0 -15 -2 -15 -10 -2 -8 13 -11 13 -19 1 -6 -9 -15 -11 -27 -6 -11 5 -22 7 -26 7 -5 -1 -8 3 -8 10 0 7 -5 6 -12 -4 -9 -11 -20 -13 -38 -8 l-25 8 26 1 c15 1 29 8 33 16 6 17 2 18 -22 6 -9 -5 -25 -12 -35 -15 -10 -3 -15 -10 -12 -16 4 -6 -1 -7 -11 -3 -13 5 -16 2 -12 -8 4 -10 -1 -15 -13 -15 -16 0 -15 4 8 28 15 15 35 28 45 28 12 0 16 4 12 12 -4 7 -3 8 5 4 14 -9 41 11 37 27 -1 7 -1 9 1 6 2 -3 15 -4 29 -1 26 5 67 49 59 62 -5 9 73 50 94 50 16 0 74 30 82 42 3 5 9 9 13 9 27 -4 37 1 33 13 -4 10 -1 13 9 9 7 -3 14 0 14 6 0 5 9 15 19 21 17 9 19 7 16 -10 -2 -11 -6 -24 -10 -29 -3 -5 0 -13 6 -17 7 -4 9 -3 6 3 -4 6 0 13 8 17 18 6 19 1 5 -24 -7 -13 -7 -21 0 -25 6 -4 8 -15 5 -26 -4 -11 -2 -19 5 -19 7 0 9 -9 6 -22 -3 -13 -3 -17 0 -10 3 6 12 12 20 12 8 0 14 5 14 10 0 6 -7 10 -15 10 -8 0 -15 3 -15 8 0 13 39 72 47 71 30 -5 52 2 47 16 -7 18 12 20 20 3 3 -7 4 -4 3 7 -2 15 -9 19 -26 17 -15 -2 -21 0 -16 7 3 6 11 9 16 6 5 -4 9 -1 9 4 0 6 5 11 11 11 5 0 7 -6 3 -12 -4 -8 -2 -8 7 1 11 11 11 14 1 18 -10 4 -8 8 5 18 13 9 22 10 30 3 9 -7 13 -7 13 1 0 6 7 11 16 11 8 0 13 4 9 10 -3 5 -13 6 -22 3 -15 -6 -16 -5 -3 9 8 9 17 13 20 9 3 -4 16 -15 30 -24 l24 -17 -24 0 c-19 0 -22 -2 -11 -9 9 -6 22 -6 35 1 19 10 19 11 -6 24 -33 17 -41 39 -20 56 15 11 15 11 6 -2 -9 -11 -9 -18 1 -27 9 -8 16 -9 20 -3 3 6 0 10 -7 10 -7 0 -2 9 12 20 14 11 33 19 42 17 9 -1 17 1 18 6 1 27 -1 31 -10 17 -5 -8 -10 -11 -10 -6 0 5 -9 1 -20 -9 -11 -10 -22 -16 -25 -13 -3 3 11 18 32 34 54 41 143 131 143 145 0 6 -9 0 -21 -15 -11 -14 -29 -26 -40 -26 -13 0 -18 -4 -13 -12 4 -6 3 -8 -3 -5 -5 3 -20 -7 -32 -23 -12 -17 -27 -30 -33 -30 -6 0 -1 10 11 23 12 12 37 41 57 64 34 40 35 43 19 60 -17 16 -17 16 -11 -5 8 -23 -8 -31 -18 -9 -3 6 -3 1 0 -12 5 -17 3 -21 -6 -16 -8 5 -11 4 -7 -2 4 -6 -2 -18 -13 -28 -11 -10 -20 -24 -20 -32 0 -7 -7 -16 -16 -20 -8 -3 -13 -11 -10 -19 3 -7 -20 -30 -56 -56 -34 -24 -72 -53 -86 -66 -30 -28 -39 -24 -12 6 11 11 26 40 35 64 8 23 19 44 25 46 5 2 10 10 10 17 0 18 66 131 91 156 11 11 16 19 12 19 -3 0 2 9 12 20 10 11 22 17 28 13 6 -4 7 -1 3 6 -10 15 23 53 37 44 6 -3 7 -1 3 6 -12 19 177 237 196 225 4 -3 7 -2 6 3 -4 10 81 103 94 103 5 0 7 -4 4 -9 -3 -5 5 -16 19 -25 14 -9 25 -13 24 -9 -4 21 2 33 13 27 7 -4 8 -3 4 4 -8 13 21 62 36 62 7 0 7 -5 1 -12 -13 -19 -16 -68 -4 -68 6 0 8 7 5 15 -3 7 6 30 21 49 16 21 22 37 16 41 -6 3 -11 1 -11 -4 0 -6 -5 -11 -11 -11 -8 0 -8 5 1 15 10 12 16 13 26 4 8 -6 12 -15 9 -19z m608 0 c-6 -21 -25 -28 -20 -7 2 10 16 26 24 27 0 0 -1 -9 -4 -20z m1658 3 c13 -16 12 -17 -3 -4 -17 13 -22 21 -14 21 2 0 10 -8 17 -17z m350 0 c13 -16 12 -17 -3 -4 -10 7 -18 15 -18 17 0 8 8 3 21 -13z m97 -8 c-3 -3 -9 2 -12 12 -6 14 -5 15 5 6 7 -7 10 -15 7 -18z m-154 7 c3 -5 -1 -9 -9 -9 -8 0 -12 4 -9 9 3 4 7 8 9 8 2 0 6 -4 9 -8z m305 -25 c12 4 13 3 2 -5 -9 -7 -10 -12 -2 -16 6 -4 9 -12 5 -17 -9 -15 -59 27 -61 50 -2 20 -1 20 19 2 11 -11 28 -17 37 -14z m-2389 3 c6 -11 8 -20 6 -20 -3 0 -10 9 -16 20 -6 11 -8 20 -6 20 3 0 10 -9 16 -20z m1778 -5 c-3 -3 -9 2 -12 12 -6 14 -5 15 5 6 7 -7 10 -15 7 -18z m342 5 c0 -5 -2 -10 -4 -10 -3 0 -8 5 -11 10 -3 6 -1 10 4 10 6 0 11 -4 11 -10z m53 -7 c-5 -12 -2 -15 8 -11 10 4 15 -1 16 -14 2 -20 1 -19 -23 3 -18 17 -21 25 -12 31 18 11 18 10 11 -9z m78 0 c8 2 10 2 6 -1 -5 -2 13 -19 40 -37 56 -38 76 -59 80 -87 3 -16 0 -18 -10 -9 -8 6 -17 8 -20 4 -4 -3 -7 -1 -7 6 0 7 -5 9 -10 6 -6 -3 -13 1 -16 9 -3 9 -11 13 -17 9 -6 -3 -7 -1 -3 5 7 11 -6 17 -27 13 -5 -1 -5 3 -2 9 5 8 14 6 30 -4 13 -9 26 -12 29 -7 7 10 -51 57 -88 71 -14 5 -26 15 -26 21 0 9 3 9 14 0 7 -6 20 -10 27 -8z m-2661 -8 c10 -12 10 -21 1 -38 -9 -19 -10 -19 -6 -2 2 11 0 27 -6 35 -9 13 -10 12 -5 -2 3 -11 0 -18 -7 -18 -19 0 -48 -38 -35 -46 12 -8 29 16 21 30 -4 5 -1 6 6 2 7 -5 10 -15 7 -23 -4 -11 -2 -13 9 -9 26 10 16 -3 -15 -19 -17 -9 -30 -23 -30 -35 0 -29 -13 -30 -38 -4 -21 22 -21 29 1 25 5 -1 5 4 1 10 -3 6 -3 14 2 18 5 3 22 25 37 49 30 46 38 50 57 27z m201 -2 c13 -16 12 -17 -3 -4 -17 13 -22 21 -14 21 2 0 10 -8 17 -17z m203 -14 c15 -17 31 -28 38 -24 7 4 2 -2 -12 -13 -22 -18 -23 -23 -11 -45 18 -34 7 -49 -24 -35 -25 11 -34 28 -15 28 6 0 10 -5 10 -11 0 -5 4 -8 8 -5 8 4 8 31 3 94 -1 6 -5 12 -9 12 -4 0 -6 -17 -4 -37 3 -21 2 -36 -1 -33 -4 3 -7 24 -8 45 -2 22 -8 43 -13 47 -8 5 -7 8 1 8 6 0 23 -14 37 -31z m1582 16 c9 -8 11 -15 6 -15 -5 0 -15 7 -22 15 -7 8 -9 15 -6 15 4 0 14 -7 22 -15z m555 -8 c-10 -9 -11 -8 -5 6 3 10 9 15 12 12 3 -3 0 -11 -7 -18z m286 1 c-3 -8 -6 -5 -6 6 -1 11 2 17 5 13 3 -3 4 -12 1 -19z m-2259 -13 c-3 -3 -9 2 -12 12 -6 14 -5 15 5 6 7 -7 10 -15 7 -18z m1682 21 c0 -3 -4 -8 -10 -11 -5 -3 -10 -1 -10 4 0 6 5 11 10 11 6 0 10 -2 10 -4z m-1800 -16 c0 -5 -5 -10 -11 -10 -5 0 -7 5 -4 10 3 6 8 10 11 10 2 0 4 -4 4 -10z m2290 0 c0 -5 -7 -7 -15 -4 -8 4 -15 8 -15 10 0 2 7 4 15 4 8 0 15 -4 15 -10z m-2515 -10 c-3 -5 -12 -10 -18 -10 -7 0 -6 4 3 10 19 12 23 12 15 0z m815 -15 c14 -18 13 -19 -1 -8 -9 7 -19 10 -23 6 -4 -4 -4 1 0 10 3 10 7 17 8 15 1 -2 8 -12 16 -23z m-893 7 c8 6 13 7 12 2 -4 -21 2 -26 16 -14 14 12 18 9 13 -7 -5 -12 -38 -14 -38 -2 0 8 -4 8 -14 0 -11 -9 -15 -7 -19 10 -4 16 -3 19 5 11 9 -9 15 -9 25 0z m419 -27 c10 -8 9 -13 -4 -25 -14 -13 -15 -12 -9 3 3 9 2 17 -3 17 -6 0 -10 10 -9 23 0 15 2 17 6 7 4 -8 12 -19 19 -25z m2209 25 c3 -6 -1 -7 -9 -4 -18 7 -21 14 -7 14 6 0 13 -4 16 -10z m-4570 -10 c-3 -5 2 -10 11 -10 10 0 15 -3 11 -6 -3 -4 -19 -3 -34 1 -26 7 -26 8 -8 15 27 11 27 11 20 0z m4115 -5 c11 -13 10 -14 -4 -9 -9 3 -16 10 -16 15 0 13 6 11 20 -6z m244 -1 c3 -8 2 -12 -4 -9 -6 3 -10 10 -10 16 0 14 7 11 14 -7z m-1441 -9 c-3 -9 -8 -14 -10 -11 -3 3 -2 9 2 15 9 16 15 13 8 -4z m858 -27 c15 -28 5 -21 -21 15 -15 20 -17 27 -6 18 9 -8 22 -23 27 -33z m-1501 23 c0 -5 -9 -19 -20 -32 l-20 -24 17 32 c19 34 23 39 23 24z m547 -13 c-3 -8 -6 -5 -6 6 -1 11 2 17 5 13 3 -3 4 -12 1 -19z m1496 -5 c-3 -7 -6 -13 -8 -13 -2 0 -5 6 -8 13 -3 8 1 14 8 14 7 0 11 -6 8 -14z m-4298 -26 c-11 -6 -21 -5 -28 2 -17 17 12 34 31 19 11 -10 10 -13 -3 -21z m1955 23 l23 13 -21 -27 c-11 -15 -19 -35 -16 -44 5 -14 4 -14 -4 -2 -12 20 -26 80 -14 61 8 -10 14 -11 32 -1z m893 -30 c-3 -12 -8 -19 -11 -16 -5 6 5 36 12 36 2 0 2 -9 -1 -20z m1031 4 c3 -8 2 -12 -4 -9 -6 3 -10 10 -10 16 0 14 7 11 14 -7z m-1589 -40 c-8 -16 -15 -23 -15 -16 0 17 20 55 26 49 2 -2 -2 -17 -11 -33z m1982 -6 c-3 -7 -5 -2 -5 12 0 14 2 19 5 13 2 -7 2 -19 0 -25z m361 4 c2 -7 -1 -12 -7 -12 -6 0 -11 5 -11 11 0 5 -5 7 -12 3 -7 -4 -8 -3 -4 5 9 14 28 10 34 -7z m-2296 -14 c-7 -7 -12 -8 -12 -2 0 6 3 14 7 17 3 4 9 5 12 2 2 -3 -1 -11 -7 -17z m-182 -3 c-7 -9 -15 -13 -19 -10 -3 3 1 10 9 15 21 14 24 12 10 -5z m1664 -1 c3 -8 2 -12 -4 -9 -6 3 -10 10 -10 16 0 14 7 11 14 -7z m77 -7 c-10 -9 -11 -8 -5 6 3 10 9 15 12 12 3 -3 0 -11 -7 -18z m-31 -27 c0 -7 -13 -7 -38 -1 -2 1 -1 5 3 11 6 10 35 2 35 -10z m-1576 2 c3 -5 -1 -9 -9 -9 -8 0 -12 4 -9 9 3 4 7 8 9 8 2 0 6 -4 9 -8z m-1848 -29 c-7 -7 -26 7 -26 19 0 6 6 6 15 -2 9 -7 13 -15 11 -17z m1118 15 c-7 -12 -73 -109 -79 -116 -2 -2 -2 12 -1 30 2 18 7 32 14 31 6 -2 23 13 38 32 26 34 43 48 28 23z m2906 -32 c0 -12 -5 -7 -19 24 -11 24 -11 24 3 6 9 -11 16 -24 16 -30z m-4071 25 c10 -7 11 -10 1 -16 -19 -12 -61 -15 -54 -4 3 5 10 7 15 4 5 -4 14 -3 20 1 8 4 7 9 -2 15 -8 5 -9 9 -4 9 6 0 16 -4 24 -9z m26 -31 c-3 -5 -16 -10 -28 -11 -21 0 -21 -1 -2 -10 16 -7 14 -9 -12 -6 -18 2 -33 -1 -33 -7 0 -5 -6 -2 -13 9 -9 11 -19 15 -27 10 -9 -5 -11 -4 -6 3 4 7 19 9 35 6 16 -4 37 -1 48 5 23 13 46 14 38 1z m1855 -4 c0 -2 -7 -6 -15 -10 -8 -3 -15 -1 -15 4 0 6 7 10 15 10 8 0 15 -2 15 -4z m-1955 -39 c7 -7 4 -7 -10 -2 -11 5 -33 8 -50 7 -25 0 -27 1 -10 8 22 9 55 3 70 -13z m-110 3 c-3 -5 -11 -10 -16 -10 -6 0 -7 5 -4 10 3 6 11 10 16 10 6 0 7 -4 4 -10z m690 -40 c-16 -7 -17 -9 -3 -9 9 -1 19 -7 21 -13 3 -8 6 -7 6 4 1 9 5 20 11 23 13 8 8 -36 -5 -51 -5 -7 -12 -11 -15 -9 -3 2 -6 -8 -7 -22 -1 -24 0 -23 19 8 18 29 21 31 30 16 9 -16 11 -16 28 5 32 38 22 11 -16 -47 -38 -57 -44 -61 -59 -46 -6 6 -10 0 -11 -17 -1 -15 1 -21 3 -14 3 6 9 12 14 12 6 0 2 -11 -8 -24 -14 -19 -21 -22 -32 -13 -12 10 -12 9 -3 -9 9 -17 9 -24 -2 -33 -14 -11 -26 -5 -26 13 0 6 5 4 10 -4 5 -8 10 -10 10 -4 0 15 -41 66 -48 59 -3 -3 3 -11 13 -19 16 -12 17 -16 6 -30 -7 -9 -9 -16 -3 -16 20 0 20 -28 -1 -51 -12 -14 -19 -20 -15 -14 4 6 -2 17 -14 24 -11 7 -17 8 -14 2 14 -22 -14 -19 -32 4 l-20 25 -5 -25 c-2 -14 0 -28 6 -32 6 -3 7 -1 3 5 -5 8 -1 10 9 6 10 -4 13 -10 7 -16 -5 -5 -20 -4 -37 2 -28 11 -29 11 -11 -9 17 -18 17 -19 -6 -27 -13 -4 -40 -18 -61 -31 -55 -34 -87 -46 -81 -28 3 7 11 12 18 9 7 -3 21 5 32 17 10 13 13 19 7 15 -7 -4 -13 -3 -13 1 0 13 -63 9 -67 -4 -2 -6 1 -14 6 -18 7 -4 8 1 4 12 -5 14 -3 15 7 6 15 -14 5 -34 -14 -27 -7 3 -19 -2 -26 -12 -13 -15 -15 -14 -21 3 -6 14 -8 13 -8 -9 -1 -15 -5 -29 -10 -32 -5 -4 -7 4 -4 16 6 22 6 22 -15 -2 l-22 -25 11 32 c6 17 17 37 25 44 16 13 19 39 3 39 -5 0 -8 -4 -4 -10 6 -9 -11 -33 -50 -73 -12 -11 -14 -17 -5 -13 9 5 8 2 -2 -7 -10 -8 -18 -18 -18 -23 -1 -5 -17 -27 -36 -49 l-36 -40 31 46 c16 26 27 49 24 53 -4 3 0 6 8 6 12 0 12 2 -1 9 -19 13 -31 4 -23 -16 4 -11 3 -14 -5 -9 -8 4 -10 2 -6 -7 3 -8 -9 -28 -26 -46 -17 -17 -28 -31 -25 -31 4 0 2 -7 -5 -15 -7 -8 -16 -12 -21 -9 -5 3 -2 12 6 20 11 12 12 20 5 35 -6 10 -13 19 -16 19 -3 0 -2 -5 2 -11 3 -6 1 -22 -7 -35 -9 -18 -10 -27 -2 -35 8 -8 5 -17 -12 -33 -48 -43 -65 -56 -65 -46 0 5 7 13 16 18 11 6 13 11 5 16 -19 12 -12 42 14 56 20 11 34 30 22 30 -13 0 -65 -49 -60 -56 4 -5 2 -4 -5 2 -10 9 -10 16 -1 38 8 17 15 22 19 15 6 -8 9 -8 14 0 4 6 2 11 -3 11 -6 0 -11 5 -11 11 0 5 5 7 10 4 6 -4 10 -3 9 2 -3 13 12 43 22 43 5 0 9 -8 9 -17 0 -9 2 -14 5 -11 3 3 2 20 -1 38 l-7 32 -14 -23 c-14 -24 -14 -24 -8 6 l6 30 -21 -25 c-11 -14 -20 -20 -19 -15 0 14 46 66 56 63 21 -5 55 15 50 31 -2 9 2 22 10 29 10 10 13 10 13 -2 0 -16 18 -31 27 -22 3 3 0 12 -7 20 -10 13 -9 19 4 32 9 8 14 19 11 23 -2 5 6 14 20 21 13 7 21 18 19 25 -10 25 115 109 245 164 83 35 84 36 76 19 -4 -7 0 -5 8 5 16 19 37 23 37 6 0 -5 5 -7 10 -4 6 4 8 10 5 15 -3 4 5 6 17 2 13 -3 19 -1 15 5 -5 7 5 9 26 6 23 -3 38 1 47 11 7 9 20 16 29 15 12 0 11 -2 -4 -9z m79 -35 c-5 -12 -10 -13 -20 -4 -19 15 -18 19 6 19 13 0 18 -5 14 -15z m936 -58 c0 -5 -4 -5 -10 -2 -5 3 -10 14 -10 23 0 15 2 15 10 2 5 -8 10 -19 10 -23z m-134 -31 c5 -14 8 -16 14 -5 7 11 13 9 30 -6 18 -16 20 -16 14 -2 -3 10 -1 17 5 17 6 0 16 -12 21 -26 13 -33 13 -47 0 -39 -5 3 -10 -2 -10 -12 0 -15 -2 -16 -10 -3 -6 9 -5 17 3 22 6 4 8 10 4 15 -5 4 -12 1 -17 -7 -7 -12 -12 -12 -28 3 -10 9 -22 14 -25 10 -4 -3 -7 3 -7 15 0 12 -4 22 -10 22 -5 0 -10 -4 -10 -8 0 -15 25 -62 33 -62 12 0 8 -21 -8 -36 -8 -9 -15 -23 -15 -32 1 -15 2 -15 14 1 13 17 14 17 20 0 4 -10 4 -14 0 -10 -4 4 -15 0 -24 -8 -12 -11 -17 -12 -18 -3 0 7 -4 23 -7 36 -4 12 -3 22 2 22 12 0 10 57 -2 68 -4 4 -6 -3 -3 -15 4 -14 2 -21 -6 -20 -6 1 -10 -9 -8 -25 1 -16 -2 -28 -8 -28 -5 0 -10 -7 -10 -16 0 -14 -2 -14 -15 0 -20 20 -19 26 6 26 16 0 19 4 14 18 -8 18 -7 90 0 103 10 15 55 4 61 -15z m39 -98 c-7 -21 -7 -22 11 -8 18 14 18 14 5 -2 -21 -27 -34 -22 -29 12 3 18 0 31 -9 34 -7 3 -13 10 -13 16 0 6 9 2 21 -9 15 -14 19 -25 14 -43z m-128 -60 c-3 -8 -6 -5 -6 6 -1 11 2 17 5 13 3 -3 4 -12 1 -19z m43 2 c-8 -5 -19 -10 -25 -10 -5 0 -3 5 5 10 8 5 20 10 25 10 6 0 3 -5 -5 -10z m-1637 -93 c3 -7 -3 -13 -14 -14 -15 -1 -16 1 -6 12 15 18 14 18 20 2z m497 -2 c0 -12 -19 -12 -23 0 -4 9 -1 12 9 8 7 -3 14 -7 14 -8z m-460 -15 c0 -5 -5 -10 -11 -10 -5 0 -7 5 -4 10 3 6 8 10 11 10 2 0 4 -4 4 -10z m823 -73 c4 3 7 1 7 -5 0 -6 -4 -14 -10 -17 -5 -3 -10 -1 -10 5 0 6 -5 8 -10 5 -6 -4 -7 -11 -4 -17 4 -6 2 -8 -4 -5 -5 4 -8 16 -5 27 4 15 9 18 18 10 6 -5 15 -7 18 -3z m-743 -17 c0 -6 -11 -8 -27 -4 -40 10 -41 14 -5 14 18 0 32 -5 32 -10z m685 0 c3 -5 -1 -10 -10 -10 -9 0 -13 5 -10 10 3 6 8 10 10 10 2 0 7 -4 10 -10z m-721 -16 c14 -5 14 -9 0 -35 -17 -34 -24 -38 -17 -9 3 11 0 20 -6 20 -6 0 -11 -9 -11 -19 0 -11 -6 -22 -12 -25 -10 -5 -10 -7 0 -12 16 -7 -3 -34 -24 -34 -8 0 -13 -4 -11 -8 3 -10 -62 -76 -69 -70 -2 3 5 13 16 23 23 21 26 37 6 29 -7 -3 -16 2 -20 11 -4 13 -10 14 -26 5 -11 -6 -20 -17 -20 -24 0 -23 -28 -27 -33 -5 -4 15 -2 19 9 15 8 -3 14 -2 14 3 0 5 12 16 26 26 25 16 28 16 36 1 5 -9 14 -16 19 -16 6 0 3 7 -5 16 -19 19 -12 36 11 27 12 -5 14 -3 8 7 -6 10 -4 12 9 7 14 -6 17 -3 12 8 -3 9 -2 13 4 10 17 -11 11 -24 -17 -39 -16 -8 -22 -15 -15 -16 6 0 12 -10 12 -22 0 -12 3 -18 8 -14 10 11 9 30 -3 39 -5 5 0 6 12 2 12 -3 24 -1 28 4 3 6 0 9 -7 8 -7 -2 -10 -2 -5 0 4 3 7 11 7 19 0 8 5 14 11 14 5 0 8 4 4 10 -3 5 2 18 12 29 22 24 18 22 37 15z m736 -17 c0 -4 4 -5 10 -2 6 3 7 -1 3 -10 -3 -9 -9 -13 -12 -8 -3 5 -16 8 -28 7 -14 -1 -20 3 -16 12 5 14 43 15 43 1z m1504 -64 c-31 -178 -99 -474 -121 -528 -28 -69 -103 -193 -131 -218 -16 -14 -45 -18 -178 -21 -87 -2 -183 -9 -212 -16 -29 -6 -55 -10 -57 -8 -6 6 43 144 71 200 43 84 104 151 243 268 137 116 322 294 365 353 16 20 29 37 30 37 1 0 -3 -30 -10 -67z m-1449 47 c-3 -5 -12 -10 -18 -10 -7 0 -6 4 3 10 19 12 23 12 15 0z m-72 -38 c-3 -12 -9 -19 -14 -16 -5 3 -4 14 2 25 13 26 20 21 12 -9z m448 1 c-12 -20 -14 -14 -5 12 4 9 9 14 11 11 3 -2 0 -13 -6 -23z m-78 -25 c-5 -26 -23 -40 -23 -18 0 10 23 51 26 47 1 -1 0 -14 -3 -29z m28 -1 c-13 -34 0 -44 14 -10 7 16 14 23 18 16 7 -12 -36 -63 -54 -63 -8 0 -8 4 1 15 7 8 10 15 7 15 -3 0 -1 14 5 31 6 16 12 28 14 26 3 -2 0 -16 -5 -30z m-1116 -20 c12 -10 14 -16 7 -21 -7 -4 -12 -15 -12 -26 0 -10 -7 -21 -16 -24 -14 -5 -15 -4 -5 8 7 8 10 20 6 26 -9 15 -35 -19 -28 -37 3 -7 0 -13 -7 -13 -6 0 -8 5 -4 12 5 8 2 9 -10 5 -14 -5 -17 -3 -12 8 8 23 0 18 -19 -12 -16 -23 -16 -25 -1 -20 9 4 16 3 16 -2 0 -13 -40 -21 -40 -8 0 7 -9 1 -20 -13 -19 -25 -19 -25 -17 -2 1 12 5 22 9 22 4 0 23 14 41 30 19 17 40 30 46 30 6 0 17 11 23 25 13 29 17 30 43 12z m860 -7 c-3 -5 -12 -10 -18 -10 -7 0 -6 4 3 10 19 12 23 12 15 0z m124 3 c-5 -29 2 -53 14 -47 9 6 9 5 0 -7 -10 -12 -10 -18 0 -28 9 -10 8 -11 -8 -5 -11 4 -17 3 -12 -1 4 -5 -5 -14 -20 -21 -22 -9 -32 -9 -50 2 -18 11 -23 11 -34 -2 -7 -8 -18 -13 -26 -10 -7 3 -20 3 -29 -1 -23 -9 5 -24 31 -17 15 5 17 3 9 -6 -8 -7 -21 -9 -35 -5 -24 8 -36 5 -32 -6 1 -4 -16 -6 -37 -5 -22 0 -40 2 -40 2 0 8 59 37 73 36 12 0 17 4 13 13 -2 7 1 16 9 19 9 3 12 0 8 -10 -4 -10 0 -12 11 -8 10 4 15 13 12 21 -4 10 -1 11 13 4 12 -7 22 -6 29 1 9 9 12 9 12 0 0 -7 6 -12 14 -12 8 0 16 -5 18 -11 4 -13 46 20 50 40 2 7 -5 15 -14 16 -10 2 -18 -1 -18 -6 0 -6 -5 -7 -12 -3 -8 5 -9 2 -5 -9 3 -10 2 -17 -3 -17 -6 0 -10 7 -10 16 0 8 -4 12 -10 9 -5 -3 -10 1 -10 11 0 12 3 14 13 6 10 -9 19 -8 34 3 11 8 23 11 27 8 3 -3 6 -1 6 5 0 7 -6 12 -12 12 -9 0 -8 4 2 10 18 12 20 12 19 3z m-44 -23 c-3 -5 -12 -10 -18 -10 -7 0 -6 4 3 10 19 12 23 12 15 0z m99 -5 c-4 -8 -8 -15 -10 -15 -2 0 -4 7 -4 15 0 8 4 15 10 15 5 0 7 -7 4 -15z m-1282 -37 c-2 -20 1 -39 7 -43 6 -3 11 -1 11 4 0 6 5 11 10 11 16 0 11 -17 -7 -24 -9 -4 -20 -1 -25 6 -5 9 -8 7 -8 -7 -1 -18 -2 -18 -10 3 -10 23 -34 29 -46 11 -3 -6 -15 -9 -25 -6 -11 3 -19 1 -19 -4 0 -5 6 -9 13 -9 8 0 14 -7 14 -15 0 -21 -16 -19 -36 7 -12 15 -20 18 -25 10 -4 -7 -1 -12 6 -13 7 -1 2 -4 -12 -8 -18 -5 -31 -2 -44 11 -21 19 -52 25 -41 8 3 -6 -1 -7 -9 -4 -19 7 -19 7 -4 39 13 29 25 31 50 8 20 -18 25 -4 6 15 -22 22 31 14 54 -8 12 -11 25 -20 30 -20 4 0 8 9 8 20 0 28 20 25 21 -2 1 -17 2 -19 6 -5 2 9 9 17 14 17 6 0 7 -4 4 -10 -3 -5 -1 -10 5 -10 6 0 8 11 6 24 -3 17 1 26 12 29 30 8 37 1 34 -35z m1308 20 c0 -16 -3 -19 -11 -11 -6 6 -8 16 -5 22 11 17 16 13 16 -11z m80 19 c0 -2 -9 -14 -20 -27 -11 -13 -20 -17 -20 -10 0 7 -9 1 -20 -13 -11 -14 -20 -34 -20 -44 0 -11 -18 -45 -41 -77 -33 -46 -43 -55 -55 -45 -17 14 -19 -2 -1 -20 10 -11 9 -12 -2 -6 -11 6 -13 4 -8 -8 3 -9 2 -19 -3 -22 -4 -3 -10 0 -12 6 -2 6 -16 12 -31 12 -32 0 -44 14 -28 30 9 9 11 8 6 -5 -4 -11 -2 -18 4 -18 6 0 11 6 12 13 0 10 2 10 6 0 2 -7 12 -13 20 -13 9 0 13 6 9 15 -6 17 3 47 13 41 4 -3 7 4 7 15 0 16 -4 16 -30 -9 -18 -15 -24 -19 -16 -7 8 11 23 26 33 33 14 11 16 17 6 28 -11 13 -9 13 15 3 23 -11 29 -10 37 2 12 19 11 7 -1 -25 -6 -17 -6 -26 0 -26 6 0 10 6 10 13 0 7 9 20 20 30 21 18 28 67 9 67 -5 0 -7 -4 -4 -10 4 -6 -1 -7 -11 -3 -14 5 -15 3 -5 -15 14 -26 14 -43 0 -19 -5 9 -18 17 -27 17 -12 0 -9 5 11 18 15 9 27 23 28 32 0 10 2 11 6 3 8 -21 33 -15 33 8 0 16 5 20 18 17 10 -3 23 1 30 9 12 12 22 17 22 10z m-1302 -21 c-7 -8 -16 -12 -21 -9 -11 7 2 23 19 23 12 0 12 -2 2 -14z m540 2 c-3 -11 -42 -38 -55 -38 -4 0 50 49 55 50 1 0 1 -5 0 -12z m-924 -9 c12 10 16 11 16 1 0 -7 7 -10 16 -6 14 5 15 4 5 -8 -7 -8 -10 -20 -7 -25 4 -5 2 -12 -4 -16 -6 -4 -10 5 -10 20 0 22 -3 25 -24 19 -13 -3 -27 -1 -31 5 -3 6 -11 8 -17 5 -7 -4 -8 -2 -4 4 5 9 12 9 26 0 14 -9 22 -9 34 1z m186 -9 c0 -5 -4 -10 -9 -10 -6 0 -13 5 -16 10 -3 6 1 10 9 10 9 0 16 -4 16 -10z m174 -30 c-3 -2 -9 2 -14 9 -4 8 -15 11 -24 8 -9 -4 -16 -2 -16 3 0 16 35 16 47 0 6 -8 9 -17 7 -20z m1059 25 c-3 -9 -8 -14 -10 -11 -3 3 -2 9 2 15 9 16 15 13 8 -4z m217 -35 c-6 -11 -13 -20 -16 -20 -2 0 0 9 6 20 6 11 13 20 16 20 2 0 0 -9 -6 -20z m-1375 -9 c3 -5 1 -12 -5 -16 -5 -3 -10 1 -10 9 0 18 6 21 15 7z m102 -17 c-2 -3 -17 -7 -33 -9 l-29 -4 28 12 c15 6 27 16 28 21 0 6 3 5 6 -2 3 -7 3 -15 0 -18z m-80 -20 c-3 -3 -12 -4 -19 -1 -8 3 -5 6 6 6 11 1 17 -2 13 -5z m3729 -138 c51 -146 151 -328 255 -463 27 -36 48 -67 46 -69 -2 -2 -36 10 -76 27 -105 44 -186 59 -356 64 -127 5 -160 3 -217 -13 -38 -11 -68 -17 -68 -14 0 2 31 39 68 81 128 144 217 305 289 521 5 15 10 2 59 -134z m-2536 110 c0 -2 -7 -7 -16 -10 -8 -3 -12 -2 -9 4 6 10 25 14 25 6z m-50 -122 c0 -3 -7 -12 -15 -20 -16 -17 -18 -14 -9 10 6 15 24 23 24 10z m34 -10 c3 -8 1 -24 -4 -34 -13 -24 -13 -33 1 -25 6 4 5 -2 -2 -13 -11 -18 -14 -19 -24 -5 -10 13 -13 13 -24 -1 -15 -18 -31 -21 -31 -6 0 6 7 10 16 10 9 0 12 5 8 12 -5 7 -3 8 6 3 10 -6 12 -4 7 9 -5 12 -2 16 11 14 13 -2 17 4 17 25 -1 30 9 36 19 11z m2051 -87 c-2 -12 -7 -40 -10 -62 -13 -99 -32 -144 -143 -345 -40 -73 -107 -174 -125 -189 -35 -28 -15 -31 26 -3 69 48 216 142 221 142 3 0 3 -7 0 -15 -4 -8 -1 -15 6 -15 6 0 8 -4 5 -10 -8 -13 -9 -14 102 16 250 66 294 75 378 81 135 9 302 -25 373 -76 35 -25 64 -128 64 -230 0 -39 1 -71 4 -71 2 0 20 34 40 75 20 41 40 75 44 75 4 0 15 -27 25 -60 34 -113 5 -322 -65 -460 -39 -78 -126 -169 -197 -208 -32 -17 -51 -32 -43 -32 40 0 163 30 213 53 32 14 57 22 57 17 0 -4 -30 -36 -67 -70 -55 -50 -63 -60 -40 -55 15 4 27 5 27 1 0 -8 -87 -87 -119 -108 -52 -35 -1 -17 177 63 34 15 62 26 62 24 0 -2 -14 -20 -31 -40 -17 -19 -26 -35 -21 -35 6 0 12 5 14 11 5 14 42 -21 46 -43 2 -10 -2 -18 -8 -18 -5 0 -9 -3 -8 -7 1 -5 -5 -28 -12 -53 -8 -25 -14 -47 -15 -50 0 -3 -9 -21 -20 -40 -10 -19 -38 -75 -62 -123 -154 -313 -355 -524 -697 -730 -176 -106 -455 -243 -538 -264 -64 -17 -72 -17 -135 -1 -100 25 -406 182 -578 296 -247 163 -435 338 -540 501 -76 118 -212 395 -220 449 -5 34 -20 92 -30 115 -8 20 8 16 60 -14 42 -25 182 -79 203 -79 11 0 6 6 -13 16 -88 45 -153 146 -206 319 l-18 60 35 -43 c32 -38 142 -122 159 -122 4 0 -12 21 -36 48 -57 64 -105 168 -130 282 -42 193 -10 471 60 518 14 10 58 30 96 44 120 45 107 48 148 -39 l37 -78 -4 58 c-2 32 1 71 7 87 10 26 17 29 69 35 32 4 96 4 141 0 80 -7 380 -75 417 -95 16 -9 18 -6 15 20 -2 17 0 30 5 30 11 0 14 -25 11 -90 -4 -78 19 -288 39 -348 16 -50 18 -53 19 -25 2 51 38 138 92 216 57 85 66 95 264 302 177 185 199 209 262 287 25 32 50 55 56 51 5 -3 7 -1 3 5 -8 13 33 84 45 76 5 -3 7 -15 4 -27z m-755 -229 c-6 -62 -13 -124 -15 -138 -2 -14 -4 -34 -4 -45 -2 -19 -3 -19 -15 -3 -19 25 -112 69 -162 76 l-45 7 58 56 c69 67 187 167 191 163 2 -1 -1 -53 -8 -116z m-784 25 c0 -32 4 -89 8 -126 7 -63 6 -69 -12 -73 -10 -3 -56 -20 -101 -38 -44 -18 -81 -29 -81 -24 0 18 64 136 123 226 33 50 61 92 62 92 1 0 1 -26 1 -57z m-1596 -15 c0 -4 -4 -8 -9 -8 -6 0 -12 4 -15 8 -3 5 1 9 9 9 8 0 15 -4 15 -9z m-53 -53 c0 -8 -4 -12 -9 -9 -5 3 -6 10 -3 15 9 13 12 11 12 -6z m43 -8 c0 -2 -10 -12 -22 -23 l-23 -19 19 23 c18 21 26 27 26 19z m-60 -60 c0 -2 -14 -16 -32 -33 l-32 -29 25 32 c20 27 39 41 39 30z m20 -21 c0 -2 -8 -10 -17 -17 -16 -13 -17 -12 -4 4 13 16 21 21 21 13z m10 -26 c0 -5 -5 -10 -11 -10 -5 0 -7 5 -4 10 3 6 8 10 11 10 2 0 4 -4 4 -10z m-60 -44 c0 -2 -9 -6 -20 -9 -11 -3 -18 -1 -14 4 5 9 34 13 34 5z m-53 -23 c-4 -3 -2 -11 3 -18 7 -8 5 -12 -4 -12 -8 0 -12 7 -11 16 5 22 4 21 12 21 3 0 3 -3 0 -7z m63 -7 c0 -2 -8 -10 -17 -17 -16 -13 -17 -12 -4 4 13 16 21 21 21 13z m2411 -13 c13 -16 12 -17 -3 -4 -10 7 -18 15 -18 17 0 8 8 3 21 -13z m-2520 -53 c5 0 9 7 9 16 0 8 5 12 11 9 7 -5 5 -13 -5 -24 -9 -10 -14 -20 -11 -22 2 -3 -6 -5 -18 -5 -21 0 -37 12 -37 29 0 4 9 3 19 -2 16 -9 19 -7 16 7 -1 9 0 11 2 5 3 -7 9 -13 14 -13z m104 20 c-3 -5 -12 -10 -18 -10 -7 0 -6 4 3 10 19 12 23 12 15 0z m-45 -3 c0 -2 -10 -12 -22 -23 l-23 -19 19 23 c18 21 26 27 26 19z m-149 -50 c-8 -22 -7 -23 15 -19 13 2 24 8 24 13 0 5 -7 6 -15 3 -11 -5 -13 -2 -9 10 8 22 16 20 38 -10 14 -21 16 -28 6 -37 -10 -9 -12 -8 -7 6 6 15 3 17 -16 11 -12 -3 -25 -12 -29 -19 -4 -7 -19 -16 -33 -19 -15 -4 -22 -11 -19 -20 3 -8 -3 -19 -14 -25 -14 -8 -19 -7 -19 5 0 7 4 14 9 14 4 0 8 5 8 11 0 8 -5 8 -15 -1 -8 -7 -15 -19 -15 -26 0 -8 -7 -14 -15 -14 -8 0 -15 6 -15 13 0 8 -4 7 -11 -3 -9 -12 -12 -13 -16 -1 -4 11 -7 11 -14 0 -4 -7 -11 -11 -14 -7 -4 3 1 17 10 31 13 20 13 27 3 33 -7 4 -10 4 -6 -1 4 -4 2 -17 -3 -28 -9 -16 -13 -17 -21 -6 -6 10 -7 7 -3 -11 4 -17 3 -21 -3 -11 -5 7 -14 11 -20 7 -5 -3 -15 1 -22 9 -7 8 -19 15 -27 15 -8 0 -11 5 -8 10 3 6 -1 10 -10 10 -9 0 -15 6 -12 13 3 11 13 12 47 8 6 0 10 -8 10 -16 0 -8 5 -15 11 -15 6 0 8 -7 4 -17 -5 -15 -4 -16 6 -5 10 9 10 15 1 24 -15 15 -16 38 -1 38 5 0 7 -5 4 -10 -4 -7 2 -9 17 -5 12 3 38 7 55 8 18 1 33 6 33 11 0 5 2 7 5 4 3 -3 27 5 53 18 59 29 64 29 53 1z m-308 -10 c4 3 7 1 7 -5 0 -21 -16 -21 -30 1 -12 19 -11 21 2 10 8 -7 18 -10 21 -6z m317 -67 c-19 -13 -30 -13 -30 0 0 6 10 10 23 10 18 0 19 -2 7 -10z m1206 -607 c-3 -8 -1 -11 4 -8 12 7 51 -55 43 -68 -3 -5 -7 -26 -8 -46 -2 -20 -6 -53 -10 -73 -9 -52 20 -97 87 -133 29 -16 92 -56 140 -89 68 -46 96 -60 122 -59 32 1 35 -2 65 -66 17 -37 31 -72 31 -77 0 -5 -37 -7 -87 -4 -94 5 -133 21 -183 75 -14 15 -47 43 -75 62 -86 62 -187 173 -225 249 -30 60 -35 79 -36 149 -1 44 2 89 6 100 l9 20 1 -20 c2 -11 2 -27 1 -35 -2 -13 -1 -13 9 0 10 13 12 13 17 1 4 -10 11 -4 23 19 l17 34 -3 -55 c-1 -30 -1 -43 2 -29 3 14 10 40 15 58 9 27 13 31 25 21 8 -7 13 -18 10 -26z m3733 -5 c11 -15 10 -16 -13 -5 -16 8 -20 14 -13 19 6 4 12 6 12 5 0 -1 6 -10 14 -19z m-24 -41 c17 23 38 7 30 -24 -4 -17 -2 -23 6 -18 8 5 8 2 1 -11 -5 -11 -7 -25 -5 -31 3 -7 -1 -13 -9 -13 -10 0 -9 -3 2 -10 13 -9 13 -12 -1 -23 -9 -6 -14 -18 -12 -24 3 -7 0 -13 -7 -13 -6 0 -8 -5 -5 -10 4 -6 -1 -23 -10 -37 -14 -20 -19 -23 -27 -12 -7 10 -8 9 -4 -6 7 -25 -63 -103 -144 -161 -30 -21 -79 -61 -110 -87 -30 -27 -66 -55 -80 -62 -35 -17 -139 -26 -163 -13 -14 7 -17 7 -13 -1 4 -6 0 -11 -8 -11 -12 0 -8 15 18 73 23 51 38 71 49 69 9 -1 33 8 54 21 86 54 229 136 243 139 8 2 31 18 52 37 31 28 37 39 35 71 -1 21 -5 36 -9 34 -16 -10 -7 29 10 42 10 8 12 13 5 14 -7 0 -13 4 -13 10 0 5 6 8 13 6 6 -1 8 -1 3 2 -5 3 2 13 15 24 l24 19 -33 -16 c-19 -9 -36 -14 -40 -11 -3 3 0 6 6 6 6 0 9 8 7 18 -2 13 3 18 18 17 30 0 49 -14 43 -31 -3 -8 -1 -14 4 -14 5 0 7 -8 3 -17 -5 -14 -1 -13 16 4 17 18 20 27 11 42 -5 11 -10 23 -9 28 0 4 5 -2 11 -14 10 -21 12 -21 23 -6z m-3612 -84 c-3 -10 -12 -25 -20 -35 -11 -12 -12 -18 -2 -24 7 -4 10 -3 6 3 -4 6 0 14 9 17 13 5 15 2 11 -14 -3 -11 -2 -18 3 -15 4 3 11 -2 14 -11 10 -26 7 -54 -6 -55 -10 0 -10 -2 -1 -5 7 -3 10 -11 7 -19 -3 -7 -1 -16 5 -20 7 -4 8 0 4 11 -4 11 -3 15 4 11 7 -5 9 1 6 15 l-6 23 22 -22 c12 -13 33 -26 46 -29 14 -3 22 -10 19 -15 -3 -5 2 -9 10 -9 8 0 18 -5 21 -10 4 -6 1 -9 -6 -8 -6 2 -14 -4 -17 -12 -4 -11 0 -11 22 3 20 13 31 15 45 7 29 -15 37 -12 15 6 -21 17 -13 15 27 -5 14 -7 34 -26 44 -43 10 -17 13 -28 8 -25 -5 3 -10 0 -10 -8 0 -8 4 -12 9 -9 4 3 8 0 8 -5 0 -6 -6 -11 -14 -11 -8 0 -16 -6 -19 -12 -5 -16 -63 25 -59 42 1 6 -2 9 -7 5 -9 -5 -118 59 -132 78 -3 5 -9 8 -13 8 -17 -2 -25 0 -43 17 -11 9 -18 22 -16 29 2 6 -1 15 -8 19 -8 4 -9 3 -5 -4 4 -7 3 -12 -3 -12 -19 0 -33 41 -26 76 3 19 11 34 16 34 6 0 8 10 4 23 -4 15 -3 18 3 9 7 -11 10 -11 15 2 9 22 18 20 10 -1z m3436 -9 c-11 -13 -11 -18 -1 -21 6 -3 12 -13 12 -23 0 -26 11 -50 22 -50 6 0 6 6 -2 14 -6 8 -10 25 -8 37 3 21 4 22 18 4 12 -15 12 -17 1 -10 -11 6 -13 4 -7 -11 13 -33 12 -39 -9 -39 -13 0 -21 8 -23 23 -2 12 -9 22 -15 22 -7 0 -6 4 3 10 14 9 13 11 -10 14 -15 2 -12 14 8 34 21 23 30 19 11 -4z m-3227 -68 c3 2 8 -3 12 -12 4 -12 2 -15 -9 -10 -12 4 -13 2 -3 -14 8 -12 15 -15 19 -8 4 7 11 3 18 -11 9 -16 9 -21 -1 -21 -8 0 -7 -4 3 -12 8 -7 23 -24 34 -38 l20 -25 -24 20 c-13 11 -34 29 -47 40 -12 11 -36 30 -53 43 -17 13 -31 28 -31 34 0 6 7 5 17 -3 11 -10 14 -10 9 -1 -4 7 -2 12 4 12 6 0 8 5 4 13 -6 9 -5 9 8 0 8 -7 17 -10 20 -7z m3210 -15 c-5 -3 -12 -13 -15 -21 -3 -9 -6 -4 -6 12 -1 21 3 26 15 21 9 -3 11 -9 6 -12z m23 -31 c3 -5 2 -10 -4 -10 -5 0 -13 5 -16 10 -3 6 -2 10 4 10 5 0 13 -4 16 -10z m-32 -22 c-4 -7 -8 -17 -8 -23 0 -5 -9 -11 -20 -12 l-20 -3 20 9 c11 5 16 10 11 10 -5 1 -3 8 4 16 15 18 24 20 13 3z m-131 -30 c-13 -13 -16 -29 -4 -25 9 3 11 -13 4 -32 -3 -8 -10 -1 -18 19 -18 42 -21 37 26 49 2 0 -1 -4 -8 -11z m-43 -17 c8 -5 15 -23 16 -40 1 -24 -1 -28 -14 -22 -9 5 -21 6 -28 4 -17 -6 -27 17 -13 30 9 9 15 7 26 -7 14 -19 14 -19 14 2 0 13 -6 22 -16 22 -26 0 -56 -21 -50 -35 2 -7 -2 -16 -11 -19 -12 -5 -13 -9 -3 -21 7 -8 11 -15 9 -16 -32 -6 -35 -5 -34 15 1 30 17 54 51 77 33 22 34 22 53 10z m101 -15 c-7 -7 -13 -7 -20 0 -6 6 -3 10 10 10 13 0 16 -4 10 -10z m-140 -66 c8 -5 11 -12 7 -17 -5 -4 -11 -3 -15 3 -4 6 -14 14 -22 17 -13 5 -13 5 0 6 8 0 22 -3 30 -9z m210 -1730 c-8 -5 -22 -10 -30 -10 -13 0 -13 1 0 10 8 5 22 10 30 10 13 0 13 -1 0 -10z m30 -10 c0 -5 -10 -10 -22 -11 -21 -1 -20 -2 5 -11 15 -5 25 -15 21 -21 -3 -7 1 -4 9 6 17 21 24 22 24 2 0 -8 -13 -19 -29 -24 -29 -10 -36 -25 -17 -37 6 -3 15 0 20 7 7 11 9 11 9 1 0 -7 4 -11 9 -7 5 3 12 1 16 -5 7 -12 25 -4 25 11 0 6 -4 8 -8 5 -4 -2 -8 4 -8 15 0 19 16 25 30 12 11 -11 46 -14 46 -4 0 5 -10 11 -22 13 -12 2 -23 9 -26 16 -3 10 3 10 27 -2 31 -16 43 -46 19 -46 -8 -1 -6 -6 4 -14 10 -7 15 -16 11 -19 -10 -11 -48 -8 -61 5 -9 9 -13 7 -18 -6 -5 -13 -9 -14 -14 -6 -4 7 -19 13 -34 13 -14 0 -37 10 -50 22 -14 13 -27 20 -30 17 -3 -3 -6 -1 -6 5 0 6 15 15 33 21 32 12 32 12 2 7 -22 -4 -26 -3 -15 5 13 8 12 10 -5 11 -14 0 -9 5 15 14 19 7 36 14 38 14 1 1 2 -3 2 -9z m203 -69 c10 -10 -13 -72 -25 -65 -17 10 -26 48 -14 57 8 5 7 10 -4 18 -12 8 -9 9 10 4 14 -4 28 -10 33 -14z m-3609 -6 c3 -8 1 -15 -3 -15 -5 0 -11 7 -15 15 -3 8 -1 15 3 15 5 0 11 -7 15 -15z m613 -47 c-3 -7 -5 -2 -5 12 0 14 2 19 5 13 2 -7 2 -19 0 -25z" fill="#7cf34d"/>
<path d="M4383 6203 c9 -9 20 -13 24 -9 4 4 1 11 -7 16 -25 16 -35 11 -17 -7z" fill="#7cf34d"/>
<path d="M4303 6196 c-7 -8 -10 -27 -7 -42 7 -36 13 -42 24 -25 5 9 3 20 -6 28 -18 19 -18 29 1 13 8 -6 19 -9 24 -6 5 4 9 -3 8 -14 -1 -11 -5 -20 -9 -20 -4 0 -8 -4 -8 -10 0 -5 7 -7 15 -4 19 8 19 44 -1 72 -17 25 -24 27 -41 8z" fill="#7cf34d"/>
<path d="M4426 6153 c-6 -14 -5 -15 5 -6 7 7 10 15 7 18 -3 3 -9 -2 -12 -12z" fill="#7cf34d"/>
<path d="M4306 6101 c-4 -7 -5 -15 -2 -18 9 -9 19 4 14 18 -4 11 -6 11 -12 0z" fill="#7cf34d"/>
<path d="M4620 6210 c0 -5 5 -10 10 -10 6 0 10 5 10 10 0 6 -4 10 -10 10 -5 0 -10 -4 -10 -10z" fill="#7cf34d"/>
<path d="M3890 6200 c0 -5 5 -10 11 -10 5 0 7 5 4 10 -3 6 -8 10 -11 10 -2 0 -4 -4 -4 -10z" fill="#7cf34d"/>
<path d="M3919 6169 c14 -5 21 -15 18 -23 -3 -8 5 -21 19 -30 19 -13 24 -14 24 -3 0 20 -49 67 -69 66 -10 0 -7 -4 8 -10z m46 -39 c3 -6 -1 -7 -9 -4 -18 7 -21 14 -7 14 6 0 13 -4 16 -10z" fill="#7cf34d"/>
<path d="M3820 6150 c0 -5 5 -10 10 -10 6 0 10 5 10 10 0 6 -4 10 -10 10 -5 0 -10 -4 -10 -10z" fill="#7cf34d"/>
<path d="M3855 6149 c-4 -6 -5 -12 -2 -15 2 -3 7 2 10 11 7 17 1 20 -8 4z" fill="#7cf34d"/>
<path d="M3281 5844 c0 -11 3 -14 6 -6 3 7 2 16 -1 19 -3 4 -6 -2 -5 -13z" fill="#7cf34d"/>
<path d="M3160 5830 c-9 -6 -10 -10 -3 -10 6 0 15 5 18 10 8 12 4 12 -15 0z" fill="#7cf34d"/>
<path d="M3330 5829 c0 -5 5 -7 10 -4 6 3 10 8 10 11 0 2 -4 4 -10 4 -5 0 -10 -5 -10 -11z" fill="#7cf34d"/>
<path d="M3374 5832 c4 -7 1 -12 -8 -12 -8 0 -17 -4 -20 -9 -4 -5 3 -7 14 -4 26 7 34 19 19 29 -8 4 -9 3 -5 -4z" fill="#7cf34d"/>
<path d="M3191 5803 c7 -12 15 -20 18 -17 3 2 -3 12 -13 22 -17 16 -18 16 -5 -5z" fill="#7cf34d"/>
<path d="M3410 5800 c-9 -6 -10 -10 -3 -10 6 0 15 5 18 10 8 12 4 12 -15 0z" fill="#7cf34d"/>
<path d="M3370 5790 c0 -5 5 -10 10 -10 6 0 10 5 10 10 0 6 -4 10 -10 10 -5 0 -10 -4 -10 -10z" fill="#7cf34d"/>
<path d="M5155 5779 c-9 -14 -2 -20 14 -10 8 6 9 11 3 15 -6 3 -14 1 -17 -5z" fill="#7cf34d"/>
<path d="M5245 5780 c3 -5 8 -10 11 -10 2 0 4 5 4 10 0 6 -5 10 -11 10 -5 0 -7 -4 -4 -10z" fill="#7cf34d"/>
<path d="M5332 5657 c-8 -10 -6 -13 7 -13 11 0 17 6 14 13 -3 7 -6 13 -8 13 -1 0 -7 -6 -13 -13z" fill="#7cf34d"/>
<path d="M3776 5545 c-8 -23 -8 -27 3 -21 5 4 12 0 14 -6 4 -9 6 -8 6 2 0 8 -3 21 -8 28 -7 11 -10 10 -15 -3z" fill="#7cf34d"/>
<path d="M3820 5518 c0 -19 2 -20 10 -8 13 19 13 30 0 30 -5 0 -10 -10 -10 -22z" fill="#7cf34d"/>
<path d="M3850 5530 c0 -5 5 -10 11 -10 6 0 9 -9 6 -20 -3 -11 -1 -20 4 -20 5 0 9 4 9 9 0 5 3 17 7 27 4 12 3 15 -5 10 -7 -4 -12 -2 -12 3 0 6 -4 11 -10 11 -5 0 -10 -4 -10 -10z" fill="#7cf34d"/>
<path d="M3900 5495 c-7 -8 -10 -15 -6 -15 4 0 -8 -16 -26 -36 l-33 -36 -13 38 c-12 38 -12 38 -7 5 3 -18 5 -37 5 -42 0 -31 72 30 90 75 11 30 8 33 -10 11z" fill="#7cf34d"/>
<path d="M3680 5490 c-9 -6 -10 -10 -3 -10 6 0 15 5 18 10 8 12 4 12 -15 0z" fill="#7cf34d"/>
<path d="M3631 5480 c0 -8 4 -22 9 -30 12 -18 12 -2 0 25 -6 13 -9 15 -9 5z" fill="#7cf34d"/>
<path d="M3830 5470 c0 -12 28 -21 35 -11 2 5 -4 11 -15 14 -11 3 -20 2 -20 -3z" fill="#7cf34d"/>
<path d="M3730 5460 c0 -5 5 -10 10 -10 6 0 10 5 10 10 0 6 -4 10 -10 10 -5 0 -10 -4 -10 -10z" fill="#7cf34d"/>
<path d="M3762 5440 c-18 -29 -15 -38 4 -12 9 13 14 25 12 27 -2 2 -9 -5 -16 -15z" fill="#7cf34d"/>
<path d="M3575 5440 c-3 -5 -3 -10 1 -10 4 0 -1 -7 -12 -15 -10 -8 -14 -15 -7 -15 13 0 26 17 29 38 3 15 -3 16 -11 2z" fill="#7cf34d"/>
<path d="M3790 5405 c0 -8 5 -15 10 -15 6 0 10 7 10 15 0 8 -4 15 -10 15 -5 0 -10 -7 -10 -15z" fill="#7cf34d"/>
<path d="M3600 5400 c11 -7 11 -10 2 -10 -7 0 -10 -5 -6 -11 4 -8 9 -7 15 2 9 15 3 29 -14 29 -7 0 -6 -4 3 -10z" fill="#7cf34d"/>
<path d="M3630 5375 c-7 -9 -11 -17 -9 -20 3 -2 10 5 17 15 14 24 10 26 -8 5z" fill="#7cf34d"/>
<path d="M3510 5376 c0 -2 8 -10 18 -17 15 -13 16 -12 3 4 -13 16 -21 21 -21 13z" fill="#7cf34d"/>
<path d="M3670 5370 c0 -5 5 -10 10 -10 6 0 10 5 10 10 0 6 -4 10 -10 10 -5 0 -10 -4 -10 -10z" fill="#7cf34d"/>
<path d="M3750 5369 c0 -5 5 -7 10 -4 6 3 10 8 10 11 0 2 -4 4 -10 4 -5 0 -10 -5 -10 -11z" fill="#7cf34d"/>
<path d="M3780 5359 c0 -5 5 -7 10 -4 6 3 10 8 10 11 0 2 -4 4 -10 4 -5 0 -10 -5 -10 -11z" fill="#7cf34d"/>
<path d="M3720 5350 c0 -5 5 -10 10 -10 6 0 10 5 10 10 0 6 -4 10 -10 10 -5 0 -10 -4 -10 -10z" fill="#7cf34d"/>
<path d="M3723 5300 c-5 -19 -6 -20 -19 -3 -13 17 -14 17 -8 0 5 -14 2 -16 -12 -10 -18 6 -18 5 0 -15 19 -21 20 -21 36 -4 9 10 17 25 17 35 0 23 -8 22 -14 -3z" fill="#7cf34d"/>
<path d="M3506 5263 c-4 -9 -3 -20 1 -24 4 -4 9 3 9 17 2 28 -1 31 -10 7z" fill="#7cf34d"/>
<path d="M3447 5263 c-4 -3 -7 -13 -7 -22 1 -13 3 -13 11 2 11 19 8 33 -4 20z" fill="#7cf34d"/>
<path d="M3472 5230 c0 -19 2 -27 5 -17 2 9 2 25 0 35 -3 9 -5 1 -5 -18z" fill="#7cf34d"/>
<path d="M3410 5196 c0 -9 5 -16 10 -16 6 0 10 4 10 9 0 6 -4 13 -10 16 -5 3 -10 -1 -10 -9z" fill="#7cf34d"/>
<path d="M3561 5193 c-7 -8 -11 -16 -8 -19 2 -2 10 2 17 11 17 20 9 27 -9 8z" fill="#7cf34d"/>
<path d="M3590 5179 c0 -5 5 -7 10 -4 6 3 10 8 10 11 0 2 -4 4 -10 4 -5 0 -10 -5 -10 -11z" fill="#7cf34d"/>
<path d="M3356 5163 c-6 -14 -5 -15 5 -6 7 7 10 15 7 18 -3 3 -9 -2 -12 -12z" fill="#7cf34d"/>
<path d="M3487 5174 c-3 -5 1 -15 9 -22 16 -14 18 -5 5 17 -5 7 -11 9 -14 5z" fill="#7cf34d"/>
<path d="M3392 5140 c0 -14 2 -19 5 -12 2 6 2 18 0 25 -3 6 -5 1 -5 -13z" fill="#7cf34d"/>
<path d="M3391 5093 c-1 -24 13 -31 25 -11 4 6 3 8 -4 4 -6 -3 -13 2 -15 11 -4 14 -5 13 -6 -4z" fill="#7cf34d"/>
<path d="M3461 5069 c-10 -23 -16 -27 -26 -19 -8 7 -16 7 -19 2 -3 -6 1 -13 10 -16 8 -3 12 -11 8 -17 -4 -8 -3 -9 4 -5 13 8 47 75 41 81 -3 2 -11 -10 -18 -26z" fill="#7cf34d"/>
<path d="M3435 5080 c-3 -5 -1 -10 4 -10 6 0 11 5 11 10 0 6 -2 10 -4 10 -3 0 -8 -4 -11 -10z" fill="#7cf34d"/>
<path d="M3315 5050 c4 -6 11 -8 16 -5 14 9 11 15 -7 15 -8 0 -12 -5 -9 -10z" fill="#7cf34d"/>
<path d="M3359 5051 c7 -5 10 -14 7 -20 -4 -6 -3 -11 2 -11 8 0 22 22 22 34 0 1 -10 3 -22 3 -16 2 -19 0 -9 -6z" fill="#7cf34d"/>
<path d="M3399 5013 c15 -30 14 -32 -9 -26 -12 3 -20 0 -20 -6 0 -7 4 -10 9 -7 5 3 12 -1 15 -10 3 -8 10 -12 16 -9 6 4 8 10 5 15 -3 4 -1 10 4 12 6 1 1 14 -10 28 -17 21 -19 22 -10 3z" fill="#7cf34d"/>
<path d="M3370 4949 c0 -6 -7 -9 -15 -5 -8 3 -15 0 -15 -7 0 -8 -4 -7 -11 3 -9 13 -10 13 -6 0 2 -8 11 -14 20 -14 9 1 13 -4 10 -12 -3 -8 0 -14 7 -14 6 0 9 4 5 9 -3 5 2 16 10 24 17 18 19 27 5 27 -5 0 -10 -5 -10 -11z" fill="#7cf34d"/>
<path d="M3320 4855 c0 -8 2 -15 4 -15 2 0 6 7 10 15 3 8 1 15 -4 15 -6 0 -10 -7 -10 -15z" fill="#7cf34d"/>
<path d="M2602 5055 c-7 -8 -9 -15 -4 -15 5 0 15 7 22 15 16 19 -1 19 -18 0z" fill="#7cf34d"/>
<path d="M2538 5033 c7 -3 16 -2 19 1 4 3 -2 6 -13 5 -11 0 -14 -3 -6 -6z" fill="#7cf34d"/>
<path d="M2598 5023 c7 -3 16 -2 19 1 4 3 -2 6 -13 5 -11 0 -14 -3 -6 -6z" fill="#7cf34d"/>
<path d="M2640 4885 c-7 -14 -10 -28 -7 -32 4 -3 7 -1 7 5 0 6 7 17 15 26 8 8 11 17 7 20 -5 3 -15 -6 -22 -19z" fill="#7cf34d"/>
<path d="M2485 4824 c-21 -21 -19 -25 8 -20 13 2 30 0 38 -5 10 -6 10 -9 2 -9 -7 0 -13 -4 -13 -8 0 -5 6 -9 14 -9 7 0 12 7 11 16 -2 9 -4 18 -4 21 -1 3 -10 11 -21 17 -15 10 -22 10 -35 -3z" fill="#7cf34d"/>
<path d="M2461 4776 c-10 -12 -8 -13 8 -9 12 3 21 9 21 14 0 14 -16 11 -29 -5z" fill="#7cf34d"/>
<path d="M2781 4781 c-8 -5 -9 -11 -3 -15 5 -3 12 1 16 9 6 17 6 18 -13 6z" fill="#7cf34d"/>
<path d="M2954 4775 c-3 -8 -4 -20 -2 -27 3 -7 7 -1 10 15 6 29 1 36 -8 12z" fill="#7cf34d"/>
<path d="M3000 4780 c0 -5 5 -10 11 -10 5 0 7 5 4 10 -3 6 -8 10 -11 10 -2 0 -4 -4 -4 -10z" fill="#7cf34d"/>
<path d="M2836 4755 c-3 -9 -6 -22 -5 -28 0 -7 5 -1 10 12 5 13 8 26 5 28 -2 2 -6 -3 -10 -12z" fill="#7cf34d"/>
<path d="M2922 4750 c0 -14 2 -19 5 -12 2 6 2 18 0 25 -3 6 -5 1 -5 -13z" fill="#7cf34d"/>
<path d="M2436 4747 c3 -10 9 -15 12 -12 3 3 0 11 -7 18 -10 9 -11 8 -5 -6z" fill="#7cf34d"/>
<path d="M2385 4731 c-2 -5 7 -8 20 -8 14 0 25 2 25 6 0 10 -39 11 -45 2z" fill="#7cf34d"/>
<path d="M3003 4733 c-21 -8 -15 -22 7 -16 11 3 20 9 20 14 0 10 -8 10 -27 2z" fill="#7cf34d"/>
<path d="M3044 4722 c4 -7 -3 -14 -19 -18 -14 -3 -25 -10 -25 -15 0 -5 -4 -9 -10 -9 -5 0 -10 7 -10 15 0 8 -4 15 -10 15 -15 0 -12 -26 4 -40 8 -6 17 -21 19 -33 4 -22 4 -22 6 1 0 12 6 22 12 22 5 0 7 5 4 10 -3 6 5 14 19 20 28 10 33 24 14 36 -7 4 -8 3 -4 -4z" fill="#7cf34d"/>
<path d="M2862 4692 c-11 -25 -11 -25 4 -10 9 9 15 21 13 27 -2 6 -10 -2 -17 -17z" fill="#7cf34d"/>
<path d="M2396 4702 c-4 -7 -4 -12 1 -13 4 0 18 -2 30 -3 14 -2 19 2 16 11 -4 10 -9 11 -18 3 -9 -8 -14 -7 -17 2 -3 9 -6 9 -12 0z" fill="#7cf34d"/>
<path d="M2630 4700 c0 -5 5 -10 11 -10 5 0 7 5 4 10 -3 6 -8 10 -11 10 -2 0 -4 -4 -4 -10z" fill="#7cf34d"/>
<path d="M2892 4689 c-10 -16 -9 -19 4 -19 8 0 13 4 10 9 -4 5 -1 11 6 13 7 3 8 7 2 11 -5 3 -15 -3 -22 -14z" fill="#7cf34d"/>
<path d="M2607 4683 c-4 -3 -7 -11 -7 -17 0 -6 5 -5 12 2 6 6 9 14 7 17 -3 3 -9 2 -12 -2z" fill="#7cf34d"/>
<path d="M2775 4680 c3 -5 8 -10 11 -10 2 0 4 5 4 10 0 6 -5 10 -11 10 -5 0 -7 -4 -4 -10z" fill="#7cf34d"/>
<path d="M2415 4650 c-3 -5 -1 -10 4 -10 6 0 11 5 11 10 0 6 -2 10 -4 10 -3 0 -8 -4 -11 -10z" fill="#7cf34d"/>
<path d="M2546 4643 c-6 -14 -5 -15 5 -6 7 7 10 15 7 18 -3 3 -9 -2 -12 -12z" fill="#7cf34d"/>
<path d="M2787 4653 c-3 -5 6 -8 19 -8 13 0 24 3 24 8 0 4 -9 7 -19 7 -11 0 -22 -3 -24 -7z" fill="#7cf34d"/>
<path d="M2968 4615 c4 -21 1 -24 -14 -18 -17 6 -17 5 -5 -10 10 -12 17 -14 26 -7 13 10 9 60 -5 60 -4 0 -5 -11 -2 -25z" fill="#7cf34d"/>
<path d="M2807 4610 c-3 -11 -3 -20 -1 -20 2 0 8 9 14 20 6 11 7 20 2 20 -6 0 -12 -9 -15 -20z" fill="#7cf34d"/>
<path d="M2615 4599 c-4 -6 -5 -12 -2 -15 2 -3 7 2 10 11 7 17 1 20 -8 4z" fill="#7cf34d"/>
<path d="M2883 4597 c8 -7 17 -19 20 -27 3 -9 6 -5 6 10 1 19 -4 26 -20 27 -18 2 -19 0 -6 -10z" fill="#7cf34d"/>
<path d="M2535 4590 c-2 -3 5 -7 16 -7 10 -1 19 2 19 6 0 9 -29 10 -35 1z" fill="#7cf34d"/>
<path d="M2685 4590 c-3 -5 1 -10 10 -10 9 0 13 5 10 10 -3 6 -8 10 -10 10 -2 0 -7 -4 -10 -10z" fill="#7cf34d"/>
<path d="M2920 4589 c0 -8 7 -24 15 -35 18 -24 19 -7 0 26 -9 16 -14 19 -15 9z" fill="#7cf34d"/>
<path d="M2881 4570 c-1 -14 -4 -36 -6 -50 l-6 -25 11 25 c6 13 9 36 7 50 l-4 25 -2 -25z" fill="#7cf34d"/>
<path d="M2862 4560 c0 -14 2 -19 5 -12 2 6 2 18 0 25 -3 6 -5 1 -5 -13z" fill="#7cf34d"/>
<path d="M2545 4550 c2 -27 10 -33 12 -10 1 11 -2 22 -6 24 -4 3 -7 -4 -6 -14z" fill="#7cf34d"/>
<path d="M2780 4561 c0 -6 4 -13 10 -16 6 -3 7 1 4 9 -7 18 -14 21 -14 7z" fill="#7cf34d"/>
<path d="M2650 4523 c0 -10 4 -14 8 -8 4 6 11 13 16 18 5 4 2 7 -7 7 -10 0 -17 -8 -17 -17z" fill="#7cf34d"/>
<path d="M2726 4504 c-3 -9 -4 -19 -1 -22 3 -3 5 1 5 9 0 11 2 11 10 -1 5 -8 10 -10 10 -5 0 6 -4 16 -9 23 -6 11 -10 10 -15 -4z" fill="#7cf34d"/>
<path d="M2815 4500 c-3 -5 -1 -10 4 -10 6 0 11 5 11 10 0 6 -2 10 -4 10 -3 0 -8 -4 -11 -10z" fill="#7cf34d"/>
<path d="M2207 4485 c3 -8 9 -12 14 -9 12 7 11 11 -5 17 -10 4 -13 1 -9 -8z" fill="#7cf34d"/>
<path d="M2540 4489 c0 -5 5 -7 10 -4 6 3 10 8 10 11 0 2 -4 4 -10 4 -5 0 -10 -5 -10 -11z" fill="#7cf34d"/>
<path d="M2770 4490 c0 -5 5 -10 10 -10 6 0 10 5 10 10 0 6 -4 10 -10 10 -5 0 -10 -4 -10 -10z" fill="#7cf34d"/>
<path d="M2513 4453 c4 -3 2 -12 -4 -19 -8 -9 -7 -18 1 -31 11 -17 11 -17 6 1 -4 11 1 27 10 37 16 18 16 19 -1 19 -10 0 -15 -3 -12 -7z" fill="#7cf34d"/>
<path d="M2575 4440 c3 -5 8 -10 11 -10 2 0 4 5 4 10 0 6 -5 10 -11 10 -5 0 -7 -4 -4 -10z" fill="#7cf34d"/>
<path d="M2530 4425 c0 -5 5 -17 10 -25 5 -8 10 -10 10 -5 0 6 -5 17 -10 25 -5 8 -10 11 -10 5z" fill="#7cf34d"/>
<path d="M2117 4403 c-4 -3 -7 -11 -7 -17 0 -6 5 -5 12 2 6 6 9 14 7 17 -3 3 -9 2 -12 -2z" fill="#7cf34d"/>
<path d="M2140 4393 c0 -13 5 -23 10 -23 13 0 13 11 0 30 -8 12 -10 11 -10 -7z" fill="#7cf34d"/>
<path d="M2385 4359 c-4 -6 -5 -12 -2 -15 2 -3 7 2 10 11 7 17 1 20 -8 4z" fill="#7cf34d"/>
<path d="M2219 4343 c-13 -16 -12 -17 4 -4 9 7 17 15 17 17 0 8 -8 3 -21 -13z" fill="#7cf34d"/>
<path d="M2310 4346 c0 -9 5 -16 10 -16 6 0 10 4 10 9 0 6 -4 13 -10 16 -5 3 -10 -1 -10 -9z" fill="#7cf34d"/>
<path d="M2067 4323 c-4 -3 -7 -11 -7 -17 0 -6 5 -5 12 2 6 6 9 14 7 17 -3 3 -9 2 -12 -2z" fill="#7cf34d"/>
<path d="M2350 4310 c0 -11 4 -20 9 -20 5 0 7 9 4 20 -3 11 -7 20 -9 20 -2 0 -4 -9 -4 -20z" fill="#7cf34d"/>
<path d="M2301 4294 c0 -11 3 -14 6 -6 3 7 2 16 -1 19 -3 4 -6 -2 -5 -13z" fill="#7cf34d"/>
<path d="M2230 4290 c-8 -5 -11 -13 -6 -17 5 -4 11 -2 13 5 3 6 10 9 15 6 7 -4 8 -2 4 4 -9 14 -7 14 -26 2z" fill="#7cf34d"/>
<path d="M2047 4276 c-4 -10 -1 -13 8 -9 8 3 12 9 9 14 -7 12 -11 11 -17 -5z" fill="#7cf34d"/>
<path d="M2273 4237 c0 -25 4 -44 9 -41 10 6 9 42 -1 69 -5 13 -8 4 -8 -28z" fill="#7cf34d"/>
<path d="M2320 4276 c0 -6 37 -46 43 -46 2 0 3 9 2 20 -1 22 -15 40 -15 20 0 -10 -3 -10 -15 0 -8 7 -15 10 -15 6z" fill="#7cf34d"/>
<path d="M2069 4229 l-24 -20 28 17 c15 9 27 18 27 20 0 8 -8 4 -31 -17z" fill="#7cf34d"/>
<path d="M2311 4234 c0 -11 3 -14 6 -6 3 7 2 16 -1 19 -3 4 -6 -2 -5 -13z" fill="#7cf34d"/>
<path d="M2006 4196 c7 -18 26 -17 30 2 1 7 0 8 -3 2 -3 -8 -9 -7 -19 1 -12 10 -13 9 -8 -5z" fill="#7cf34d"/>
<path d="M2215 4200 c-4 -6 1 -7 11 -3 12 4 15 2 12 -8 -3 -8 -10 -14 -17 -14 -6 0 -16 -7 -21 -15 -8 -13 -10 -12 -10 4 0 11 -3 17 -6 13 -4 -3 -3 -14 0 -24 7 -17 8 -17 21 0 11 15 13 15 18 3 4 -9 -3 -22 -15 -30 -12 -9 -19 -18 -16 -21 9 -10 47 36 42 49 -3 7 2 19 11 26 13 11 13 15 3 21 -17 11 -26 11 -33 -1z" fill="#7cf34d"/>
<path d="M2305 4200 c3 -5 8 -10 11 -10 2 0 4 5 4 10 0 6 -5 10 -11 10 -5 0 -7 -4 -4 -10z" fill="#7cf34d"/>
<path d="M1991 4084 c0 -11 3 -14 6 -6 3 7 2 16 -1 19 -3 4 -6 -2 -5 -13z" fill="#7cf34d"/>
<path d="M2120 4089 c0 -5 5 -7 10 -4 6 3 10 8 10 11 0 2 -4 4 -10 4 -5 0 -10 -5 -10 -11z" fill="#7cf34d"/>
<path d="M2058 4063 c6 -2 18 -2 25 0 6 3 1 5 -13 5 -14 0 -19 -2 -12 -5z" fill="#7cf34d"/>
<path d="M2117 4063 c-9 -2 -14 -9 -11 -15 4 -6 -2 -8 -17 -4 -20 6 -21 5 -7 -4 19 -12 58 2 58 20 0 6 -1 9 -2 9 -2 -1 -11 -3 -21 -6z" fill="#7cf34d"/>
<path d="M1989 4058 c-3 -11 -5 -48 -3 -48 11 0 23 40 14 45 -5 3 -10 5 -11 3z" fill="#7cf34d"/>
<path d="M2025 4040 c4 -6 11 -8 16 -5 14 9 11 15 -7 15 -8 0 -12 -5 -9 -10z" fill="#7cf34d"/>
<path d="M2011 4004 c0 -11 3 -14 6 -6 3 7 2 16 -1 19 -3 4 -6 -2 -5 -13z" fill="#7cf34d"/>
<path d="M1730 3980 c-9 -6 -10 -10 -3 -10 6 0 15 5 18 10 8 12 4 12 -15 0z" fill="#7cf34d"/>
<path d="M1780 3985 c0 -6 9 -18 20 -28 21 -18 26 -12 10 13 -5 8 -10 11 -10 5 0 -5 -5 -3 -10 5 -5 8 -10 10 -10 5z" fill="#7cf34d"/>
<path d="M1925 3970 c-4 -11 -11 -18 -16 -15 -5 3 -6 -1 -3 -9 3 -9 2 -16 -4 -16 -6 0 -12 6 -15 13 -2 7 -8 8 -13 3 -5 -5 -4 -11 4 -13 6 -3 12 -11 12 -18 0 -7 8 -15 19 -18 14 -3 17 0 14 13 -3 9 3 24 11 33 12 11 13 17 3 20 -9 4 -9 6 1 6 14 1 17 21 3 21 -5 0 -13 -9 -16 -20z" fill="#7cf34d"/>
<path d="M1749 3963 c-13 -16 -12 -17 4 -4 16 13 21 21 13 21 -2 0 -10 -8 -17 -17z" fill="#7cf34d"/>
<path d="M1771 3944 c0 -11 3 -14 6 -6 3 7 2 16 -1 19 -3 4 -6 -2 -5 -13z" fill="#7cf34d"/>
<path d="M1635 3930 c-3 -5 -1 -10 4 -10 6 0 11 5 11 10 0 6 -2 10 -4 10 -3 0 -8 -4 -11 -10z" fill="#7cf34d"/>
<path d="M1934 3929 c-3 -6 -2 -15 3 -20 5 -5 9 -1 9 11 0 23 -2 24 -12 9z" fill="#7cf34d"/>
<path d="M1575 3920 c-3 -6 1 -7 9 -4 18 7 21 14 7 14 -6 0 -13 -4 -16 -10z" fill="#7cf34d"/>
<path d="M1557 3889 c4 -13 8 -18 11 -10 2 7 -1 18 -6 23 -8 8 -9 4 -5 -13z" fill="#7cf34d"/>
<path d="M1620 3900 c0 -5 5 -10 11 -10 5 0 7 5 4 10 -3 6 -8 10 -11 10 -2 0 -4 -4 -4 -10z" fill="#7cf34d"/>
<path d="M1740 3900 c0 -5 5 -10 10 -10 6 0 10 5 10 10 0 6 -4 10 -10 10 -5 0 -10 -4 -10 -10z" fill="#7cf34d"/>
<path d="M1580 3896 c0 -2 7 -7 16 -10 8 -3 12 -2 9 4 -6 10 -25 14 -25 6z" fill="#7cf34d"/>
<path d="M1777 3855 c3 -11 6 -28 7 -37 3 -25 13 -31 33 -23 16 6 16 8 -7 27 -16 14 -21 22 -12 25 6 3 12 9 12 15 0 7 -5 6 -14 -1 -11 -9 -15 -9 -19 1 -2 7 -2 4 0 -7z m40 -51 c-3 -3 -12 -4 -19 -1 -8 3 -5 6 6 6 11 1 17 -2 13 -5z" fill="#7cf34d"/>
<path d="M1590 3855 c0 -8 2 -15 4 -15 2 0 6 7 10 15 3 8 1 15 -4 15 -6 0 -10 -7 -10 -15z" fill="#7cf34d"/>
<path d="M1535 3850 c-3 -5 1 -10 10 -10 9 0 13 5 10 10 -3 6 -8 10 -10 10 -2 0 -7 -4 -10 -10z" fill="#7cf34d"/>
<path d="M1825 3850 c-3 -5 -1 -10 4 -10 6 0 11 5 11 10 0 6 -2 10 -4 10 -3 0 -8 -4 -11 -10z" fill="#7cf34d"/>
<path d="M1506 3831 c-4 -6 -2 -11 4 -11 6 0 9 -4 6 -8 -9 -15 9 -31 24 -22 13 8 12 10 -3 10 -10 0 -16 4 -13 8 2 4 1 14 -3 21 -6 9 -11 10 -15 2z" fill="#7cf34d"/>
<path d="M1571 3833 c-1 -7 10 -24 23 -38 22 -24 25 -25 23 -7 0 11 -6 18 -12 15 -7 -2 -17 6 -23 19 -6 13 -11 18 -11 11z" fill="#7cf34d"/>
<path d="M1691 3826 c-9 -11 -8 -15 5 -20 9 -4 19 -4 22 -1 3 3 0 5 -7 5 -8 0 -11 7 -7 15 7 19 2 19 -13 1z" fill="#7cf34d"/>
<path d="M1468 3814 c6 -3 10 -10 6 -15 -6 -11 24 -44 33 -35 3 3 1 11 -5 18 -6 7 -10 18 -11 23 0 6 -8 11 -18 12 -10 2 -12 0 -5 -3z" fill="#7cf34d"/>
<path d="M1640 3820 c-1 -3 -3 -18 -6 -35 -3 -28 -3 -29 7 -6 5 13 8 29 5 35 -2 6 -5 9 -6 6z" fill="#7cf34d"/>
<path d="M5481 4897 c2 -1 15 -11 29 -22 l25 -20 -19 23 c-11 12 -24 22 -29 22 -6 0 -8 -1 -6 -3z" fill="#7cf34d"/>
<path d="M5465 4799 c-4 -6 -4 -13 -1 -16 3 -4 6 -1 6 7 0 10 3 10 15 0 9 -7 18 -10 21 -7 3 3 -3 10 -15 16 -14 8 -22 8 -26 0z" fill="#7cf34d"/>
<path d="M2650 4801 c0 -5 -3 -18 -7 -28 -6 -17 -5 -17 15 1 12 10 19 23 16 27 -7 12 -24 11 -24 0z" fill="#7cf34d"/>
<path d="M1840 4520 c10 -6 11 -10 3 -10 -7 0 -13 -5 -13 -11 0 -8 5 -8 15 1 16 13 11 30 -8 30 -7 0 -6 -4 3 -10z" fill="#7cf34d"/>
<path d="M1837 4473 c-4 -3 -7 -11 -7 -17 0 -6 5 -5 12 2 6 6 9 14 7 17 -3 3 -9 2 -12 -2z" fill="#7cf34d"/>
<path d="M1893 4458 c-2 -18 0 -20 7 -8 12 18 13 30 2 30 -4 0 -9 -10 -9 -22z" fill="#7cf34d"/>
<path d="M1860 4436 c0 -2 8 -10 18 -17 15 -13 16 -12 3 4 -13 16 -21 21 -21 13z" fill="#7cf34d"/>
<path d="M1580 4411 c0 -11 4 -22 9 -25 4 -3 6 6 3 19 -5 30 -12 33 -12 6z" fill="#7cf34d"/>
<path d="M1670 4421 c0 -6 5 -13 10 -16 6 -3 10 1 10 9 0 9 -4 16 -10 16 -5 0 -10 -4 -10 -9z" fill="#7cf34d"/>
<path d="M1703 4415 c-3 -9 -3 -18 -1 -21 3 -3 8 4 11 16 6 23 -1 27 -10 5z" fill="#7cf34d"/>
<path d="M1750 4410 c0 -5 5 -10 10 -10 6 0 10 5 10 10 0 6 -4 10 -10 10 -5 0 -10 -4 -10 -10z" fill="#7cf34d"/>
<path d="M1427 4386 c-16 -13 -16 -14 -1 -20 10 -4 22 -2 28 4 8 8 5 9 -9 5 -20 -7 -20 -6 -1 9 24 19 8 21 -17 2z" fill="#7cf34d"/>
<path d="M1736 4377 c3 -10 9 -15 12 -12 3 3 0 11 -7 18 -10 9 -11 8 -5 -6z" fill="#7cf34d"/>
<path d="M1750 4326 c0 -8 -6 -17 -12 -19 -7 -3 -4 -6 7 -6 14 -1 21 5 21 19 0 11 -4 20 -8 20 -4 0 -8 -6 -8 -14z" fill="#7cf34d"/>
<path d="M1350 4326 c0 -2 7 -7 16 -10 8 -3 12 -2 9 4 -6 10 -25 14 -25 6z" fill="#7cf34d"/>
<path d="M1590 4310 c0 -5 5 -10 11 -10 5 0 7 5 4 10 -3 6 -8 10 -11 10 -2 0 -4 -4 -4 -10z" fill="#7cf34d"/>
<path d="M1618 4279 c-10 -10 -14 -19 -8 -19 5 0 7 -7 3 -16 -5 -14 -2 -13 16 2 12 10 17 20 12 22 -6 2 -7 10 -4 18 7 18 2 17 -19 -7z" fill="#7cf34d"/>
<path d="M1770 4280 c0 -5 4 -10 9 -10 6 0 13 5 16 10 3 6 -1 10 -9 10 -9 0 -16 -4 -16 -10z" fill="#7cf34d"/>
<path d="M1565 4271 c-3 -5 -2 -12 3 -15 5 -3 9 1 9 9 0 17 -3 19 -12 6z" fill="#7cf34d"/>
<path d="M1554 4230 c0 -13 4 -16 10 -10 7 7 7 13 0 20 -6 6 -10 3 -10 -10z" fill="#7cf34d"/>
<path d="M1630 4220 c0 -6 7 -10 15 -10 8 0 15 2 15 4 0 2 -7 6 -15 10 -8 3 -15 1 -15 -4z" fill="#7cf34d"/>
<path d="M1600 4205 c-8 -9 -8 -15 -2 -15 12 0 26 19 19 26 -2 2 -10 -2 -17 -11z" fill="#7cf34d"/>
<path d="M1260 4155 c0 -18 -6 -36 -12 -38 -8 -3 -6 -6 5 -6 11 -1 17 6 17 19 0 11 7 20 15 20 8 0 15 -4 15 -10 0 -5 -4 -10 -10 -10 -5 0 -7 -7 -3 -17 5 -14 8 -13 15 7 6 18 3 27 -17 46 l-25 23 0 -34z" fill="#7cf34d"/>
<path d="M1360 4183 c8 -3 18 -11 22 -17 5 -7 8 -4 8 7 0 11 -7 17 -22 16 -16 0 -18 -2 -8 -6z" fill="#7cf34d"/>
<path d="M1450 4186 c0 -2 7 -9 15 -16 13 -11 14 -10 9 4 -5 14 -24 23 -24 12z" fill="#7cf34d"/>
<path d="M1340 4161 c0 -10 30 -24 37 -17 3 2 -5 9 -16 16 -12 6 -21 7 -21 1z" fill="#7cf34d"/>
<path d="M1185 4140 c-3 -5 -1 -10 4 -10 6 0 11 5 11 10 0 6 -2 10 -4 10 -3 0 -8 -4 -11 -10z" fill="#7cf34d"/>
<path d="M1210 4142 c0 -4 4 -13 9 -20 7 -11 9 -11 14 1 3 9 -1 18 -9 21 -8 3 -14 2 -14 -2z" fill="#7cf34d"/>
<path d="M1216 4087 c3 -10 9 -15 12 -12 3 3 0 11 -7 18 -10 9 -11 8 -5 -6z" fill="#7cf34d"/>
<path d="M1240 4089 c0 -5 6 -9 14 -9 8 0 17 -8 19 -17 3 -10 4 -7 4 8 -1 17 -7 25 -19 26 -10 1 -18 -2 -18 -8z" fill="#7cf34d"/>
<path d="M1240 4060 c0 -5 5 -10 11 -10 5 0 7 5 4 10 -3 6 -8 10 -11 10 -2 0 -4 -4 -4 -10z" fill="#7cf34d"/>
<path d="M1180 4035 c0 -9 5 -13 11 -9 6 3 15 0 20 -7 6 -10 9 -10 9 -2 0 7 -9 17 -20 23 -16 9 -20 8 -20 -5z" fill="#7cf34d"/>
<path d="M1177 3963 c-12 -14 -13 -22 -6 -33 9 -12 10 -11 5 4 -5 13 -2 17 9 13 18 -7 26 4 16 21 -6 9 -12 8 -24 -5z" fill="#7cf34d"/>
<path d="M2687 4426 c-4 -10 -7 -25 -6 -34 0 -11 4 -9 10 7 5 13 8 29 6 35 -2 5 -6 2 -10 -8z" fill="#7cf34d"/>
<path d="M1901 3801 c-8 -5 -9 -11 -3 -15 5 -3 12 1 16 9 6 17 6 18 -13 6z" fill="#7cf34d"/>
<path d="M866 3891 c-4 -7 -5 -15 -2 -18 9 -9 19 4 14 18 -4 11 -6 11 -12 0z" fill="#7cf34d"/>
<path d="M665 3851 c-3 -5 -1 -12 5 -16 5 -3 10 1 10 9 0 18 -6 21 -15 7z" fill="#7cf34d"/>
<path d="M860 3850 c0 -5 5 -10 10 -10 6 0 10 5 10 10 0 6 -4 10 -10 10 -5 0 -10 -4 -10 -10z" fill="#7cf34d"/>
<path d="M712 3825 c-7 -8 -9 -15 -4 -15 5 0 15 7 22 15 16 19 -1 19 -18 0z" fill="#7cf34d"/>
<path d="M2111 3744 c0 -11 3 -14 6 -6 3 7 2 16 -1 19 -3 4 -6 -2 -5 -13z" fill="#7cf34d"/>
<path d="M2110 3699 c0 -5 5 -7 10 -4 6 3 10 8 10 11 0 2 -4 4 -10 4 -5 0 -10 -5 -10 -11z" fill="#7cf34d"/>
<path d="M2449 2573 c10 -21 26 -55 34 -75 l16 -38 -45 -11 c-25 -6 -42 -14 -39 -18 4 -3 36 -13 73 -21 l67 -15 -49 -38 -49 -37 34 6 c19 3 50 10 69 15 70 18 80 2 30 -46 -16 -16 -28 -30 -26 -32 2 -2 31 10 64 27 91 46 125 38 85 -20 -17 -25 -17 -25 19 3 37 27 72 35 83 18 3 -6 28 -8 55 -6 47 3 49 2 40 -16 -14 -24 2 -25 24 0 18 20 84 33 93 18 3 -5 16 2 29 14 18 17 27 20 36 11 8 -8 14 -8 22 3 6 8 22 16 36 18 14 2 50 16 80 30 l55 26 -40 1 -40 1 28 17 c27 16 36 32 18 32 -5 0 -49 -10 -98 -22 -126 -31 -292 -31 -387 0 -94 31 -166 69 -259 136 l-77 56 19 -37z" fill="#7cf34d"/>
<path d="M4920 2548 c-80 -60 -185 -112 -270 -134 -94 -24 -243 -21 -345 6 -116 32 -138 35 -133 19 3 -8 15 -19 27 -25 21 -11 20 -12 -16 -19 -21 -4 -31 -10 -23 -12 20 -6 58 -22 98 -41 18 -8 44 -17 58 -18 15 -2 35 -11 47 -21 11 -10 17 -12 12 -4 -6 11 1 12 36 6 53 -9 114 -39 128 -62 6 -10 11 -13 11 -6 0 6 -4 15 -10 18 -5 3 -10 13 -10 21 0 19 62 10 100 -14 l25 -15 -18 26 -17 26 56 12 c54 12 58 12 104 -14 64 -36 71 -34 30 8 -18 19 -31 38 -27 41 4 4 43 3 87 -2 44 -6 80 -6 80 -2 0 4 -17 19 -37 32 -39 27 -37 30 28 40 19 4 44 13 55 21 18 14 17 14 -11 15 -16 0 -37 4 -45 10 -12 8 -12 11 1 27 16 18 53 103 47 108 -2 1 -32 -20 -68 -47z" fill="#7cf34d"/>
<path d="M2320 2279 c0 -8 17 -31 37 -50 33 -29 34 -30 12 -4 -15 17 -31 39 -37 50 -9 15 -11 16 -12 4z" fill="#7cf34d"/>
<path d="M4757 2115 c-13 -9 -17 -20 -12 -34 9 -29 33 -26 41 5 8 33 -6 47 -29 29z" fill="#7cf34d"/>
<path d="M2580 2095 c0 -18 5 -25 20 -25 15 0 20 7 20 25 0 18 -5 25 -20 25 -15 0 -20 -7 -20 -25z" fill="#7cf34d"/>
<path d="M3661 1986 c-1 -49 1 -87 4 -85 9 10 13 121 5 147 -6 19 -9 0 -9 -62z" fill="#7cf34d"/>
<path d="M3377 1314 c-9 -10 2 -24 19 -24 8 0 14 7 14 15 0 15 -21 21 -33 9z" fill="#7cf34d"/>
<path d="M3990 1312 c0 -14 11 -21 26 -15 8 3 11 9 8 14 -7 11 -34 12 -34 1z" fill="#7cf34d"/>
<path d="M3553 1303 c9 -2 25 -2 35 0 9 3 1 5 -18 5 -19 0 -27 -2 -17 -5z" fill="#7cf34d"/>
<path d="M3828 1303 c6 -2 18 -2 25 0 6 3 1 5 -13 5 -14 0 -19 -2 -12 -5z" fill="#7cf34d"/>
<path d="M628 2962 c7 -5 10 -17 7 -28 -6 -19 -6 -19 9 0 16 20 7 36 -19 36 -5 0 -4 -4 3 -8z" fill="#7cf34d"/>
<path d="M5596 2203 c-6 -14 -5 -15 5 -6 7 7 10 15 7 18 -3 3 -9 -2 -12 -12z" fill="#7cf34d"/>
<path d="M1954 2079 c-3 -6 -2 -15 3 -20 5 -5 9 -1 9 11 0 23 -2 24 -12 9z" fill="#7cf34d"/>
<path d="M2081 1964 c0 -11 3 -14 6 -6 3 7 2 16 -1 19 -3 4 -6 -2 -5 -13z" fill="#7cf34d"/>
<path d="M2230 1930 c0 -5 5 -10 11 -10 5 0 7 5 4 10 -3 6 -8 10 -11 10 -2 0 -4 -4 -4 -10z" fill="#7cf34d"/>
<path d="M2200 1922 c0 -6 -8 -13 -17 -15 -16 -4 -16 -5 -1 -6 18 -1 34 16 24 26 -3 4 -6 1 -6 -5z" fill="#7cf34d"/>
<path d="M2217 1903 c-11 -10 -8 -45 3 -38 6 4 7 11 4 17 -4 6 0 14 7 19 8 5 9 9 3 9 -6 0 -14 -3 -17 -7z" fill="#7cf34d"/>
<path d="M5390 85 c0 -8 2 -15 4 -15 2 0 6 7 10 15 3 8 1 15 -4 15 -6 0 -10 -7 -10 -15z" fill="#7cf34d"/>
<path d="M5500 84 c0 -19 20 -38 42 -40 13 -2 17 0 11 2 -7 3 -13 13 -13 22 0 8 -3 12 -7 9 -3 -4 -12 -2 -20 4 -7 6 -13 8 -13 3z" fill="#7cf34d"/>
<path d="M3513 6733 c4 -3 -1 -12 -11 -20 -13 -10 -14 -13 -2 -11 26 5 42 38 18 38 -6 0 -8 -3 -5 -7z" fill="#7cf34d"/>
<path d="M3407 6653 c-4 -3 -7 -11 -7 -17 0 -6 5 -5 12 2 6 6 9 14 7 17 -3 3 -9 2 -12 -2z" fill="#7cf34d"/>
<path d="M3493 6525 c0 -8 4 -12 9 -9 5 3 6 10 3 15 -9 13 -12 11 -12 -6z" fill="#7cf34d"/>
<path d="M2931 6324 c0 -11 3 -14 6 -6 3 7 2 16 -1 19 -3 4 -6 -2 -5 -13z" fill="#7cf34d"/>
<path d="M3108 6193 c7 -3 16 -2 19 1 4 3 -2 6 -13 5 -11 0 -14 -3 -6 -6z" fill="#7cf34d"/>
<path d="M3120 6170 c0 -13 18 -22 24 -11 3 5 -1 11 -9 15 -8 3 -15 1 -15 -4z" fill="#7cf34d"/>
<path d="M3223 6125 c0 -8 4 -12 9 -9 5 3 6 10 3 15 -9 13 -12 11 -12 -6z" fill="#7cf34d"/>
<path d="M3165 6110 c-3 -6 1 -7 9 -4 18 7 21 14 7 14 -6 0 -13 -4 -16 -10z" fill="#7cf34d"/>
<path d="M3370 5952 c0 -12 19 -26 26 -19 2 2 -2 10 -11 17 -9 8 -15 8 -15 2z" fill="#7cf34d"/>
<path d="M2300 5920 c0 -5 5 -10 11 -10 5 0 7 5 4 10 -3 6 -8 10 -11 10 -2 0 -4 -4 -4 -10z" fill="#7cf34d"/>
<path d="M3300 5926 c0 -2 7 -7 16 -10 8 -3 12 -2 9 4 -6 10 -25 14 -25 6z" fill="#7cf34d"/>
<path d="M2978 5913 c7 -3 16 -2 19 1 4 3 -2 6 -13 5 -11 0 -14 -3 -6 -6z" fill="#7cf34d"/>
<path d="M3034 5912 c4 -3 14 -7 22 -8 9 -1 13 0 10 4 -4 3 -14 7 -22 8 -9 1 -13 0 -10 -4z" fill="#7cf34d"/>
<path d="M2245 5870 c-16 -6 -14 -8 12 -7 18 0 30 4 27 9 -6 10 -12 9 -39 -2z" fill="#7cf34d"/>
<path d="M2308 5863 c7 -3 16 -2 19 1 4 3 -2 6 -13 5 -11 0 -14 -3 -6 -6z" fill="#7cf34d"/>
<path d="M2348 5863 c6 -2 18 -2 25 0 6 3 1 5 -13 5 -14 0 -19 -2 -12 -5z" fill="#7cf34d"/>
<path d="M1790 5801 c0 -6 4 -13 10 -16 6 -3 7 1 4 9 -7 18 -14 21 -14 7z" fill="#7cf34d"/>
<path d="M2795 5738 l-20 -20 33 16 c33 17 41 26 20 25 -7 0 -22 -9 -33 -21z" fill="#7cf34d"/>
<path d="M1950 5676 c0 -2 7 -7 16 -10 8 -3 12 -2 9 4 -6 10 -25 14 -25 6z" fill="#7cf34d"/>
<path d="M2666 5617 c3 -10 9 -15 12 -12 3 3 0 11 -7 18 -10 9 -11 8 -5 -6z" fill="#7cf34d"/>
<path d="M2449 5603 c-13 -17 -13 -17 6 -3 11 8 22 16 24 17 2 2 0 3 -6 3 -6 0 -17 -8 -24 -17z" fill="#7cf34d"/>
<path d="M2810 5616 c0 -2 8 -10 18 -17 15 -13 16 -12 3 4 -13 16 -21 21 -21 13z" fill="#7cf34d"/>
<path d="M2455 5580 c-3 -6 1 -7 9 -4 18 7 21 14 7 14 -6 0 -13 -4 -16 -10z" fill="#7cf34d"/>
<path d="M2708 5543 c7 -3 16 -2 19 1 4 3 -2 6 -13 5 -11 0 -14 -3 -6 -6z" fill="#7cf34d"/>
<path d="M2600 5521 c0 -6 4 -13 10 -16 6 -3 7 1 4 9 -7 18 -14 21 -14 7z" fill="#7cf34d"/>
<path d="M1096 5348 c3 -4 11 -5 19 -1 21 7 19 12 -4 10 -11 0 -18 -5 -15 -9z" fill="#7cf34d"/>
<path d="M1155 5319 c-4 -6 -5 -12 -2 -15 2 -3 7 2 10 11 7 17 1 20 -8 4z" fill="#7cf34d"/>
<path d="M1430 5289 c0 -5 5 -7 10 -4 6 3 10 8 10 11 0 2 -4 4 -10 4 -5 0 -10 -5 -10 -11z" fill="#7cf34d"/>
<path d="M1198 5263 c7 -3 16 -2 19 1 4 3 -2 6 -13 5 -11 0 -14 -3 -6 -6z" fill="#7cf34d"/>
<path d="M1420 5240 c8 -5 20 -10 25 -10 6 0 3 5 -5 10 -8 5 -19 10 -25 10 -5 0 -3 -5 5 -10z" fill="#7cf34d"/>
<path d="M2560 5246 c0 -2 8 -10 18 -17 15 -13 16 -12 3 4 -13 16 -21 21 -21 13z" fill="#7cf34d"/>
<path d="M2270 5226 c7 -7 13 -7 20 0 6 6 3 10 -10 10 -13 0 -16 -4 -10 -10z" fill="#7cf34d"/>
<path d="M2667 5224 c4 -10 0 -13 -13 -8 -13 4 -15 3 -6 -3 7 -6 10 -17 6 -29 -9 -23 -4 -18 19 18 14 22 14 27 2 32 -9 3 -12 0 -8 -10z" fill="#7cf34d"/>
<path d="M2717 5219 c4 -13 8 -18 11 -10 2 7 -1 18 -6 23 -8 8 -9 4 -5 -13z" fill="#7cf34d"/>
<path d="M2810 5229 c0 -5 5 -7 10 -4 6 3 10 8 10 11 0 2 -4 4 -10 4 -5 0 -10 -5 -10 -11z" fill="#7cf34d"/>
<path d="M2611 5211 c-8 -5 -9 -11 -3 -15 5 -3 12 1 16 9 6 17 6 18 -13 6z" fill="#7cf34d"/>
<path d="M2745 5209 c-4 -6 -5 -12 -2 -15 2 -3 7 2 10 11 7 17 1 20 -8 4z" fill="#7cf34d"/>
<path d="M2566 5154 c-3 -9 -4 -19 -1 -22 3 -3 5 0 5 6 0 6 6 9 13 6 8 -3 20 3 28 13 13 17 13 17 -4 4 -15 -12 -20 -12 -26 -2 -6 10 -10 8 -15 -5z" fill="#7cf34d"/>
<path d="M2511 5147 c2 -1 13 -9 24 -17 19 -14 19 -14 6 3 -7 9 -18 17 -24 17 -6 0 -8 -1 -6 -3z" fill="#7cf34d"/>
<path d="M1463 5132 c-8 -5 -9 -13 -3 -22 5 -9 5 -19 -2 -27 -7 -9 -7 -13 1 -13 6 0 11 3 12 8 1 10 5 62 4 62 0 0 -5 -4 -12 -8z" fill="#7cf34d"/>
<path d="M2505 5120 c3 -5 11 -10 16 -10 6 0 7 5 4 10 -3 6 -11 10 -16 10 -6 0 -7 -4 -4 -10z" fill="#7cf34d"/>
<path d="M1559 5093 c-13 -15 -12 -15 9 -4 23 12 28 21 13 21 -5 0 -15 -7 -22 -17z" fill="#7cf34d"/>
<path d="M1500 5046 c0 -2 7 -7 16 -10 8 -3 12 -2 9 4 -6 10 -25 14 -25 6z" fill="#7cf34d"/>
<path d="M2138 5043 c7 -3 16 -2 19 1 4 3 -2 6 -13 5 -11 0 -14 -3 -6 -6z" fill="#7cf34d"/>
<path d="M1885 4990 c-3 -6 1 -7 9 -4 18 7 21 14 7 14 -6 0 -13 -4 -16 -10z" fill="#7cf34d"/>
<path d="M1946 4985 c-3 -8 -1 -15 4 -15 6 0 10 7 10 15 0 8 -2 15 -4 15 -2 0 -6 -7 -10 -15z" fill="#7cf34d"/>
<path d="M1841 4844 c0 -11 3 -14 6 -6 3 7 2 16 -1 19 -3 4 -6 -2 -5 -13z" fill="#7cf34d"/>
<path d="M1880 4839 c0 -5 5 -7 10 -4 6 3 10 8 10 11 0 2 -4 4 -10 4 -5 0 -10 -5 -10 -11z" fill="#7cf34d"/>
<path d="M1020 4835 c0 -5 5 -17 10 -25 5 -8 10 -10 10 -5 0 6 -5 17 -10 25 -5 8 -10 11 -10 5z" fill="#7cf34d"/>
<path d="M1090 4810 c0 -5 5 -10 11 -10 5 0 7 5 4 10 -3 6 -8 10 -11 10 -2 0 -4 -4 -4 -10z" fill="#7cf34d"/>
<path d="M1080 4769 c0 -5 5 -7 10 -4 6 3 10 8 10 11 0 2 -4 4 -10 4 -5 0 -10 -5 -10 -11z" fill="#7cf34d"/>
<path d="M1390 4760 c-9 -6 -10 -10 -3 -10 6 0 15 5 18 10 8 12 4 12 -15 0z" fill="#7cf34d"/>
<path d="M1672 4746 c7 -8 15 -12 17 -11 5 6 -10 25 -20 25 -5 0 -4 -6 3 -14z" fill="#7cf34d"/>
<path d="M1545 4730 c-3 -6 1 -7 9 -4 9 3 16 1 16 -5 0 -6 5 -11 11 -11 8 0 8 5 -1 15 -14 17 -26 19 -35 5z" fill="#7cf34d"/>
<path d="M1510 4721 c0 -6 4 -13 10 -16 6 -3 7 1 4 9 -7 18 -14 21 -14 7z" fill="#7cf34d"/>
<path d="M1628 4723 c7 -3 16 -2 19 1 4 3 -2 6 -13 5 -11 0 -14 -3 -6 -6z" fill="#7cf34d"/>
<path d="M1490 4689 c0 -5 5 -7 10 -4 6 3 10 8 10 11 0 2 -4 4 -10 4 -5 0 -10 -5 -10 -11z" fill="#7cf34d"/>
<path d="M1530 4679 c0 -5 5 -7 10 -4 6 3 10 8 10 11 0 2 -4 4 -10 4 -5 0 -10 -5 -10 -11z" fill="#7cf34d"/>
<path d="M1925 1285 c17 -8 39 -14 50 -14 l20 0 -20 8 c-11 4 -33 11 -50 14 l-30 6 30 -14z" fill="#7cf34d"/>
<path d="M2015 130 c3 -5 8 -10 11 -10 2 0 4 5 4 10 0 6 -5 10 -11 10 -5 0 -7 -4 -4 -10z" fill="#7cf34d"/>
<path d="M1960 118 c0 -10 27 -10 34 0 2 4 -4 8 -15 8 -10 0 -19 -4 -19 -8z" fill="#7cf34d"/>
<path d="M1857 88 c4 -7 8 -22 8 -32 0 -11 6 -21 13 -24 9 -3 11 3 6 23 -5 18 -2 30 7 36 10 6 6 9 -14 9 -20 0 -26 -4 -20 -12z" fill="#7cf34d"/>
<path d="M1815 80 c-3 -5 1 -10 9 -10 20 0 20 -14 1 -30 -8 -7 -15 -20 -15 -29 1 -10 6 -6 16 12 8 15 19 27 25 27 6 0 6 7 -1 20 -12 22 -25 26 -35 10z" fill="#7cf34d"/>
</g>
</svg>