<?xml version="1.0" encoding="UTF-8" standalone="no" ?>
<!DOCTYPE svg PUBLIC "-//W3C//DTD SVG 1.1//EN" "http://www.w3.org/Graphics/SVG/1.1/DTD/svg11.dtd">
<svg xmlns="http://www.w3.org/2000/svg" xmlns:xlink="http://www.w3.org/1999/xlink" version="1.1" width="1080" height="1080" viewBox="0 0 1080 1080" xml:space="preserve">
<desc>Created with Fabric.js 5.2.4</desc>
<defs>
</defs>
<g transform="matrix(1 0 0 1 540 540)" id="ea838d29-3a28-40e7-8fbb-490d49727d40"  >
<rect style="stroke: none; stroke-width: 1; stroke-dasharray: none; stroke-linecap: butt; stroke-dashoffset: 0; stroke-linejoin: miter; stroke-miterlimit: 4; fill: rgb(255,255,255); fill-rule: nonzero; opacity: 1; visibility: hidden;" vector-effect="non-scaling-stroke"  x="-540" y="-540" rx="0" ry="0" width="1080" height="1080" />
</g>
<g transform="matrix(1 0 0 1 540 540)" id="daecef62-7e23-4ed7-af64-4c1c8d1602fa"  >
</g>
<g transform="matrix(6.71 0 0 6.71 532.99 539.51)"  >
<g style="" vector-effect="non-scaling-stroke"   >
		<g transform="matrix(0.13 0 0 -0.13 -30.38 -64.06)"  >
<path style="stroke: none; stroke-width: 1; stroke-dasharray: none; stroke-linecap: butt; stroke-dashoffset: 0; stroke-linejoin: miter; stroke-miterlimit: 4; fill: rgb(91,15,153); fill-rule: nonzero; opacity: 1;" vector-effect="non-scaling-stroke"  transform=" translate(-972.5, -1670.41)" d="M 960 1670 C 960 1601 963 1579 973 1583 C 981 1585 985 1612 985 1670 C 985 1728 981 1755 973 1758 C 963 1761 960 1739 960 1670 z" stroke-linecap="round" />
</g>
		<g transform="matrix(0.13 0 0 -0.13 -22.04 -64.12)"  >
<path style="stroke: none; stroke-width: 1; stroke-dasharray: none; stroke-linecap: butt; stroke-dashoffset: 0; stroke-linejoin: miter; stroke-miterlimit: 4; fill: rgb(91,15,153); fill-rule: nonzero; opacity: 1;" vector-effect="non-scaling-stroke"  transform=" translate(-1035.06, -1670.87)" d="M 1024 1747 C 1014 1720 1025 1587 1038 1582 C 1047 1579 1050 1601 1050 1669 C 1050 1725 1046 1760 1040 1760 C 1034 1760 1027 1754 1024 1747 z" stroke-linecap="round" />
</g>
		<g transform="matrix(0.13 0 0 -0.13 -12.8 -64.12)"  >
<path style="stroke: none; stroke-width: 1; stroke-dasharray: none; stroke-linecap: butt; stroke-dashoffset: 0; stroke-linejoin: miter; stroke-miterlimit: 4; fill: rgb(91,15,153); fill-rule: nonzero; opacity: 1;" vector-effect="non-scaling-stroke"  transform=" translate(-1104.33, -1670.87)" d="M 1090 1669 C 1090 1601 1093 1579 1103 1582 C 1111 1585 1116 1615 1118 1673 C 1120 1746 1118 1760 1105 1760 C 1093 1760 1090 1744 1090 1669 z" stroke-linecap="round" />
</g>
		<g transform="matrix(0.13 0 0 -0.13 -4.7 -64.12)"  >
<path style="stroke: none; stroke-width: 1; stroke-dasharray: none; stroke-linecap: butt; stroke-dashoffset: 0; stroke-linejoin: miter; stroke-miterlimit: 4; fill: rgb(91,15,153); fill-rule: nonzero; opacity: 1;" vector-effect="non-scaling-stroke"  transform=" translate(-1165.06, -1670.87)" d="M 1154 1747 C 1144 1720 1155 1587 1168 1582 C 1177 1579 1180 1601 1180 1669 C 1180 1725 1176 1760 1170 1760 C 1164 1760 1157 1754 1154 1747 z" stroke-linecap="round" />
</g>
		<g transform="matrix(0.13 0 0 -0.13 4.53 -64.12)"  >
<path style="stroke: none; stroke-width: 1; stroke-dasharray: none; stroke-linecap: butt; stroke-dashoffset: 0; stroke-linejoin: miter; stroke-miterlimit: 4; fill: rgb(91,15,153); fill-rule: nonzero; opacity: 1;" vector-effect="non-scaling-stroke"  transform=" translate(-1234.33, -1670.87)" d="M 1220 1669 C 1220 1601 1223 1579 1233 1582 C 1241 1585 1246 1615 1248 1673 C 1250 1746 1248 1760 1235 1760 C 1223 1760 1220 1744 1220 1669 z" stroke-linecap="round" />
</g>
		<g transform="matrix(0.13 0 0 -0.13 13.04 -64.2)"  >
<path style="stroke: none; stroke-width: 1; stroke-dasharray: none; stroke-linecap: butt; stroke-dashoffset: 0; stroke-linejoin: miter; stroke-miterlimit: 4; fill: rgb(91,15,153); fill-rule: nonzero; opacity: 1;" vector-effect="non-scaling-stroke"  transform=" translate(-1298.1, -1671.44)" d="M 1285 1747 C 1282 1740 1280 1700 1282 1659 C 1284 1601 1288 1585 1300 1585 C 1312 1585 1315 1601 1315 1669 C 1315 1728 1311 1755 1303 1757 C 1296 1760 1288 1755 1285 1747 z" stroke-linecap="round" />
</g>
		<g transform="matrix(0.13 0 0 -0.13 22.05 -64.12)"  >
<path style="stroke: none; stroke-width: 1; stroke-dasharray: none; stroke-linecap: butt; stroke-dashoffset: 0; stroke-linejoin: miter; stroke-miterlimit: 4; fill: rgb(91,15,153); fill-rule: nonzero; opacity: 1;" vector-effect="non-scaling-stroke"  transform=" translate(-1365.67, -1670.87)" d="M 1352 1673 C 1354 1615 1359 1585 1368 1582 C 1377 1579 1380 1601 1380 1669 C 1380 1744 1377 1760 1365 1760 C 1352 1760 1350 1746 1352 1673 z" stroke-linecap="round" />
</g>
		<g transform="matrix(0.13 0 0 -0.13 30.54 -64)"  >
<path style="stroke: none; stroke-width: 1; stroke-dasharray: none; stroke-linecap: butt; stroke-dashoffset: 0; stroke-linejoin: miter; stroke-miterlimit: 4; fill: rgb(91,15,153); fill-rule: nonzero; opacity: 1;" vector-effect="non-scaling-stroke"  transform=" translate(-1429.4, -1669.95)" d="M 1416 1745 C 1407 1720 1409 1607 1420 1590 C 1439 1560 1451 1596 1448 1675 C 1445 1750 1431 1782 1416 1745 z" stroke-linecap="round" />
</g>
		<g transform="matrix(0.13 0 0 -0.13 0.56 -0.59)"  >
<path style="stroke: none; stroke-width: 1; stroke-dasharray: none; stroke-linecap: butt; stroke-dashoffset: 0; stroke-linejoin: miter; stroke-miterlimit: 4; fill: rgb(91,15,153); fill-rule: nonzero; opacity: 1;" vector-effect="non-scaling-stroke"  transform=" translate(-1204.56, -1194.37)" d="M 883 1551 C 866 1540 846 1522 841 1511 C 834 1498 830 1383 830 1186 L 830 882 L 861 851 L 892 820 L 1199 820 C 1495 820 1508 821 1533 841 C 1577 875 1582 912 1578 1217 L 1575 1500 L 1542 1532 L 1510 1565 L 1212 1568 C 932 1570 913 1569 883 1551 z M 1512 1503 C 1529 1488 1530 1465 1530 1193 C 1530 913 1529 899 1510 880 C 1491 861 1477 860 1203 860 C 922 860 916 860 893 882 L 870 903 L 870 1192 C 870 1467 871 1481 890 1500 C 909 1519 923 1520 1202 1520 C 1459 1520 1496 1518 1512 1503 z" stroke-linecap="round" />
</g>
		<g transform="matrix(0.13 0 0 -0.13 -0.4 -0.67)"  >
<path style="stroke: none; stroke-width: 1; stroke-dasharray: none; stroke-linecap: butt; stroke-dashoffset: 0; stroke-linejoin: miter; stroke-miterlimit: 4; fill: rgb(91,15,153); fill-rule: nonzero; opacity: 1;" vector-effect="non-scaling-stroke"  transform=" translate(-1197.35, -1195)" d="M 922 1468 C 908 1454 905 944 918 922 C 925 913 989 910 1206 912 L 1485 915 L 1485 1195 L 1485 1475 L 1210 1478 C 1004 1480 931 1477 922 1468 z" stroke-linecap="round" />
</g>
		<g transform="matrix(0.13 0 0 -0.13 -64.23 -30.69)"  >
<path style="stroke: none; stroke-width: 1; stroke-dasharray: none; stroke-linecap: butt; stroke-dashoffset: 0; stroke-linejoin: miter; stroke-miterlimit: 4; fill: rgb(91,15,153); fill-rule: nonzero; opacity: 1;" vector-effect="non-scaling-stroke"  transform=" translate(-718.56, -1420.16)" d="M 635 1429 C 622 1409 653 1400 730 1402 C 789 1404 805 1408 805 1420 C 805 1432 788 1436 723 1438 C 670 1440 639 1437 635 1429 z" stroke-linecap="round" />
</g>
		<g transform="matrix(0.13 0 0 -0.13 63.73 -30.91)"  >
<path style="stroke: none; stroke-width: 1; stroke-dasharray: none; stroke-linecap: butt; stroke-dashoffset: 0; stroke-linejoin: miter; stroke-miterlimit: 4; fill: rgb(91,15,153); fill-rule: nonzero; opacity: 1;" vector-effect="non-scaling-stroke"  transform=" translate(-1678.28, -1421.8)" d="M 1595 1430 C 1583 1410 1600 1405 1683 1405 C 1749 1405 1765 1408 1765 1420 C 1765 1432 1748 1436 1683 1438 C 1631 1440 1599 1437 1595 1430 z" stroke-linecap="round" />
</g>
		<g transform="matrix(0.13 0 0 -0.13 -63.87 -22.01)"  >
<path style="stroke: none; stroke-width: 1; stroke-dasharray: none; stroke-linecap: butt; stroke-dashoffset: 0; stroke-linejoin: miter; stroke-miterlimit: 4; fill: rgb(91,15,153); fill-rule: nonzero; opacity: 1;" vector-effect="non-scaling-stroke"  transform=" translate(-721.29, -1355)" d="M 637 1364 C 621 1347 648 1340 726 1340 C 794 1340 810 1343 810 1355 C 810 1367 794 1370 727 1370 C 681 1370 640 1367 637 1364 z" stroke-linecap="round" />
</g>
		<g transform="matrix(0.13 0 0 -0.13 64.07 -22.09)"  >
<path style="stroke: none; stroke-width: 1; stroke-dasharray: none; stroke-linecap: butt; stroke-dashoffset: 0; stroke-linejoin: miter; stroke-miterlimit: 4; fill: rgb(91,15,153); fill-rule: nonzero; opacity: 1;" vector-effect="non-scaling-stroke"  transform=" translate(-1680.87, -1355.67)" d="M 1592 1358 C 1595 1349 1625 1344 1683 1342 C 1756 1340 1770 1342 1770 1355 C 1770 1367 1754 1370 1679 1370 C 1611 1370 1589 1367 1592 1358 z" stroke-linecap="round" />
</g>
		<g transform="matrix(0.13 0 0 -0.13 -64.28 -13.34)"  >
<path style="stroke: none; stroke-width: 1; stroke-dasharray: none; stroke-linecap: butt; stroke-dashoffset: 0; stroke-linejoin: miter; stroke-miterlimit: 4; fill: rgb(91,15,153); fill-rule: nonzero; opacity: 1;" vector-effect="non-scaling-stroke"  transform=" translate(-718.23, -1290)" d="M 635 1300 C 621 1277 648 1269 726 1272 C 788 1274 805 1278 805 1290 C 805 1302 788 1306 723 1308 C 671 1310 639 1307 635 1300 z" stroke-linecap="round" />
</g>
		<g transform="matrix(0.13 0 0 -0.13 63.72 -13.34)"  >
<path style="stroke: none; stroke-width: 1; stroke-dasharray: none; stroke-linecap: butt; stroke-dashoffset: 0; stroke-linejoin: miter; stroke-miterlimit: 4; fill: rgb(91,15,153); fill-rule: nonzero; opacity: 1;" vector-effect="non-scaling-stroke"  transform=" translate(-1678.23, -1290)" d="M 1595 1300 C 1581 1277 1608 1269 1686 1272 C 1748 1274 1765 1278 1765 1290 C 1765 1302 1748 1306 1683 1308 C 1631 1310 1599 1307 1595 1300 z" stroke-linecap="round" />
</g>
		<g transform="matrix(0.13 0 0 -0.13 -63.87 -4.67)"  >
<path style="stroke: none; stroke-width: 1; stroke-dasharray: none; stroke-linecap: butt; stroke-dashoffset: 0; stroke-linejoin: miter; stroke-miterlimit: 4; fill: rgb(91,15,153); fill-rule: nonzero; opacity: 1;" vector-effect="non-scaling-stroke"  transform=" translate(-721.29, -1225)" d="M 637 1234 C 621 1217 648 1210 726 1210 C 794 1210 810 1213 810 1225 C 810 1237 794 1240 727 1240 C 681 1240 640 1237 637 1234 z" stroke-linecap="round" />
</g>
		<g transform="matrix(0.13 0 0 -0.13 63.96 -4.67)"  >
<path style="stroke: none; stroke-width: 1; stroke-dasharray: none; stroke-linecap: butt; stroke-dashoffset: 0; stroke-linejoin: miter; stroke-miterlimit: 4; fill: rgb(91,15,153); fill-rule: nonzero; opacity: 1;" vector-effect="non-scaling-stroke"  transform=" translate(-1680, -1225)" d="M 1590 1225 C 1590 1213 1607 1210 1680 1210 C 1753 1210 1770 1213 1770 1225 C 1770 1237 1753 1240 1680 1240 C 1607 1240 1590 1237 1590 1225 z" stroke-linecap="round" />
</g>
		<g transform="matrix(0.13 0 0 -0.13 -63.98 4.14)"  >
<path style="stroke: none; stroke-width: 1; stroke-dasharray: none; stroke-linecap: butt; stroke-dashoffset: 0; stroke-linejoin: miter; stroke-miterlimit: 4; fill: rgb(91,15,153); fill-rule: nonzero; opacity: 1;" vector-effect="non-scaling-stroke"  transform=" translate(-720.51, -1158.88)" d="M 647 1173 C 637 1170 631 1163 633 1157 C 638 1142 789 1135 803 1149 C 809 1155 810 1163 806 1167 C 798 1175 674 1180 647 1173 z" stroke-linecap="round" />
</g>
		<g transform="matrix(0.13 0 0 -0.13 63.94 4.12)"  >
<path style="stroke: none; stroke-width: 1; stroke-dasharray: none; stroke-linecap: butt; stroke-dashoffset: 0; stroke-linejoin: miter; stroke-miterlimit: 4; fill: rgb(91,15,153); fill-rule: nonzero; opacity: 1;" vector-effect="non-scaling-stroke"  transform=" translate(-1679.88, -1159.07)" d="M 1632 1172 C 1604 1170 1590 1165 1593 1157 C 1598 1141 1762 1140 1767 1157 C 1771 1169 1703 1177 1632 1172 z" stroke-linecap="round" />
</g>
		<g transform="matrix(0.13 0 0 -0.13 -64 12.66)"  >
<path style="stroke: none; stroke-width: 1; stroke-dasharray: none; stroke-linecap: butt; stroke-dashoffset: 0; stroke-linejoin: miter; stroke-miterlimit: 4; fill: rgb(91,15,153); fill-rule: nonzero; opacity: 1;" vector-effect="non-scaling-stroke"  transform=" translate(-720.32, -1095)" d="M 637 1103 C 619 1085 637 1080 720 1080 C 793 1080 810 1083 810 1095 C 810 1107 794 1110 727 1110 C 681 1110 640 1107 637 1103 z" stroke-linecap="round" />
</g>
		<g transform="matrix(0.13 0 0 -0.13 64 12.66)"  >
<path style="stroke: none; stroke-width: 1; stroke-dasharray: none; stroke-linecap: butt; stroke-dashoffset: 0; stroke-linejoin: miter; stroke-miterlimit: 4; fill: rgb(91,15,153); fill-rule: nonzero; opacity: 1;" vector-effect="non-scaling-stroke"  transform=" translate(-1680.32, -1095)" d="M 1597 1103 C 1579 1085 1597 1080 1680 1080 C 1753 1080 1770 1083 1770 1095 C 1770 1107 1754 1110 1687 1110 C 1641 1110 1600 1107 1597 1103 z" stroke-linecap="round" />
</g>
		<g transform="matrix(0.13 0 0 -0.13 -63.93 21.91)"  >
<path style="stroke: none; stroke-width: 1; stroke-dasharray: none; stroke-linecap: butt; stroke-dashoffset: 0; stroke-linejoin: miter; stroke-miterlimit: 4; fill: rgb(91,15,153); fill-rule: nonzero; opacity: 1;" vector-effect="non-scaling-stroke"  transform=" translate(-720.87, -1025.67)" d="M 632 1028 C 635 1019 665 1014 723 1012 C 796 1010 810 1012 810 1025 C 810 1037 794 1040 719 1040 C 651 1040 629 1037 632 1028 z" stroke-linecap="round" />
</g>
		<g transform="matrix(0.13 0 0 -0.13 64.01 21.66)"  >
<path style="stroke: none; stroke-width: 1; stroke-dasharray: none; stroke-linecap: butt; stroke-dashoffset: 0; stroke-linejoin: miter; stroke-miterlimit: 4; fill: rgb(91,15,153); fill-rule: nonzero; opacity: 1;" vector-effect="non-scaling-stroke"  transform=" translate(-1680.41, -1027.5)" d="M 1593 1028 C 1595 1019 1622 1015 1680 1015 C 1738 1015 1765 1019 1768 1028 C 1771 1037 1749 1040 1680 1040 C 1611 1040 1589 1037 1593 1028 z" stroke-linecap="round" />
</g>
		<g transform="matrix(0.13 0 0 -0.13 -64 29.99)"  >
<path style="stroke: none; stroke-width: 1; stroke-dasharray: none; stroke-linecap: butt; stroke-dashoffset: 0; stroke-linejoin: miter; stroke-miterlimit: 4; fill: rgb(91,15,153); fill-rule: nonzero; opacity: 1;" vector-effect="non-scaling-stroke"  transform=" translate(-720.32, -965)" d="M 637 973 C 619 955 637 950 720 950 C 793 950 810 953 810 965 C 810 977 794 980 727 980 C 681 980 640 977 637 973 z" stroke-linecap="round" />
</g>
		<g transform="matrix(0.13 0 0 -0.13 63.89 30.03)"  >
<path style="stroke: none; stroke-width: 1; stroke-dasharray: none; stroke-linecap: butt; stroke-dashoffset: 0; stroke-linejoin: miter; stroke-miterlimit: 4; fill: rgb(91,15,153); fill-rule: nonzero; opacity: 1;" vector-effect="non-scaling-stroke"  transform=" translate(-1679.46, -964.69)" d="M 1597 974 C 1579 955 1597 950 1681 950 C 1749 950 1771 953 1768 963 C 1763 976 1610 986 1597 974 z" stroke-linecap="round" />
</g>
		<g transform="matrix(0.13 0 0 -0.13 -30.13 63.88)"  >
<path style="stroke: none; stroke-width: 1; stroke-dasharray: none; stroke-linecap: butt; stroke-dashoffset: 0; stroke-linejoin: miter; stroke-miterlimit: 4; fill: rgb(91,15,153); fill-rule: nonzero; opacity: 1;" vector-effect="non-scaling-stroke"  transform=" translate(-974.33, -710.87)" d="M 960 709 C 960 641 963 619 973 622 C 981 625 986 655 988 713 C 990 786 988 800 975 800 C 963 800 960 784 960 709 z" stroke-linecap="round" />
</g>
		<g transform="matrix(0.13 0 0 -0.13 -21.95 63.88)"  >
<path style="stroke: none; stroke-width: 1; stroke-dasharray: none; stroke-linecap: butt; stroke-dashoffset: 0; stroke-linejoin: miter; stroke-miterlimit: 4; fill: rgb(91,15,153); fill-rule: nonzero; opacity: 1;" vector-effect="non-scaling-stroke"  transform=" translate(-1035.67, -710.87)" d="M 1022 713 C 1024 655 1029 625 1038 622 C 1047 619 1050 641 1050 709 C 1050 784 1047 800 1035 800 C 1022 800 1020 786 1022 713 z" stroke-linecap="round" />
</g>
		<g transform="matrix(0.13 0 0 -0.13 -12.8 63.88)"  >
<path style="stroke: none; stroke-width: 1; stroke-dasharray: none; stroke-linecap: butt; stroke-dashoffset: 0; stroke-linejoin: miter; stroke-miterlimit: 4; fill: rgb(91,15,153); fill-rule: nonzero; opacity: 1;" vector-effect="non-scaling-stroke"  transform=" translate(-1104.33, -710.87)" d="M 1090 709 C 1090 641 1093 619 1103 622 C 1111 625 1116 655 1118 713 C 1120 786 1118 800 1105 800 C 1093 800 1090 784 1090 709 z" stroke-linecap="round" />
</g>
		<g transform="matrix(0.13 0 0 -0.13 -4.7 63.88)"  >
<path style="stroke: none; stroke-width: 1; stroke-dasharray: none; stroke-linecap: butt; stroke-dashoffset: 0; stroke-linejoin: miter; stroke-miterlimit: 4; fill: rgb(91,15,153); fill-rule: nonzero; opacity: 1;" vector-effect="non-scaling-stroke"  transform=" translate(-1165.06, -710.87)" d="M 1154 787 C 1144 760 1155 627 1168 622 C 1177 619 1180 641 1180 709 C 1180 765 1176 800 1170 800 C 1164 800 1157 794 1154 787 z" stroke-linecap="round" />
</g>
		<g transform="matrix(0.13 0 0 -0.13 4.62 63.33)"  >
<path style="stroke: none; stroke-width: 1; stroke-dasharray: none; stroke-linecap: butt; stroke-dashoffset: 0; stroke-linejoin: miter; stroke-miterlimit: 4; fill: rgb(91,15,153); fill-rule: nonzero; opacity: 1;" vector-effect="non-scaling-stroke"  transform=" translate(-1235, -715)" d="M 1222 715 C 1224 667 1229 630 1235 630 C 1241 630 1246 667 1248 715 C 1250 787 1248 800 1235 800 C 1222 800 1220 787 1222 715 z" stroke-linecap="round" />
</g>
		<g transform="matrix(0.13 0 0 -0.13 13.16 63.91)"  >
<path style="stroke: none; stroke-width: 1; stroke-dasharray: none; stroke-linecap: butt; stroke-dashoffset: 0; stroke-linejoin: miter; stroke-miterlimit: 4; fill: rgb(91,15,153); fill-rule: nonzero; opacity: 1;" vector-effect="non-scaling-stroke"  transform=" translate(-1299.01, -710.6)" d="M 1287 794 C 1275 782 1279 632 1291 624 C 1311 612 1320 644 1318 719 C 1315 787 1305 812 1287 794 z" stroke-linecap="round" />
</g>
		<g transform="matrix(0.13 0 0 -0.13 21.96 63.33)"  >
<path style="stroke: none; stroke-width: 1; stroke-dasharray: none; stroke-linecap: butt; stroke-dashoffset: 0; stroke-linejoin: miter; stroke-miterlimit: 4; fill: rgb(91,15,153); fill-rule: nonzero; opacity: 1;" vector-effect="non-scaling-stroke"  transform=" translate(-1365, -715)" d="M 1352 715 C 1354 667 1359 630 1365 630 C 1371 630 1376 667 1378 715 C 1380 787 1378 800 1365 800 C 1352 800 1350 787 1352 715 z" stroke-linecap="round" />
</g>
		<g transform="matrix(0.13 0 0 -0.13 30.56 64.05)"  >
<path style="stroke: none; stroke-width: 1; stroke-dasharray: none; stroke-linecap: butt; stroke-dashoffset: 0; stroke-linejoin: miter; stroke-miterlimit: 4; fill: rgb(91,15,153); fill-rule: nonzero; opacity: 1;" vector-effect="non-scaling-stroke"  transform=" translate(-1429.49, -709.55)" d="M 1417 794 C 1407 783 1409 647 1420 630 C 1439 600 1451 636 1448 715 C 1445 787 1435 812 1417 794 z" stroke-linecap="round" />
</g>
</g>
</g>
</svg>